<?xml version="1.0" encoding="UTF-8"?>
<svg id="Laag_2" data-name="Laag 2" xmlns="http://www.w3.org/2000/svg" xmlns:xlink="http://www.w3.org/1999/xlink" viewBox="0 0 259.58 188.2">
  <defs>
    <style>
      .cls-1 {
        fill: #ff3e48;
      }

      .cls-2 {
        fill: #1a1a1a;
      }

      .cls-3 {
        fill: url(#Naamloos_verloop_87-2);
      }

      .cls-4 {
        fill: url(#Naamloos_verloop_81-3);
      }

      .cls-5 {
        fill: url(#Naamloos_verloop_81-4);
      }

      .cls-6 {
        fill: url(#Naamloos_verloop_81-2);
      }

      .cls-7 {
        fill: url(#Naamloos_verloop_85-2);
      }

      .cls-8 {
        fill: url(#Naamloos_verloop_257);
      }

      .cls-8, .cls-9, .cls-10, .cls-11 {
        stroke: #fff;
        stroke-miterlimit: 10;
      }

      .cls-9 {
        fill: url(#Naamloos_verloop_257-2);
      }

      .cls-10 {
        fill: url(#Naamloos_verloop_257-4);
      }

      .cls-11 {
        fill: url(#Naamloos_verloop_257-3);
      }

      .cls-12 {
        fill: url(#Naamloos_verloop_85);
      }

      .cls-13 {
        fill: url(#Naamloos_verloop_87);
      }

      .cls-14 {
        fill: url(#Naamloos_verloop_81);
      }
    </style>
    <linearGradient id="Naamloos_verloop_257" data-name="Naamloos verloop 257" x1="176.98" y1="186.88" x2="176.98" y2="53.07" gradientTransform="translate(-103.51 -13.42)" gradientUnits="userSpaceOnUse">
      <stop offset="0" stop-color="#f0f0f0"/>
      <stop offset="1" stop-color="#fcfcfc"/>
    </linearGradient>
    <linearGradient id="Naamloos_verloop_81" data-name="Naamloos verloop 81" x1="166.6" y1="131.4" x2="166.6" y2="112.66" gradientTransform="translate(-136.99 68.87) rotate(-23.98)" gradientUnits="userSpaceOnUse">
      <stop offset="0" stop-color="#333"/>
      <stop offset="1" stop-color="#1a1a1a"/>
    </linearGradient>
    <linearGradient id="Naamloos_verloop_81-2" data-name="Naamloos verloop 81" x1="187.37" y1="131.4" x2="187.37" xlink:href="#Naamloos_verloop_81"/>
    <linearGradient id="Naamloos_verloop_81-3" data-name="Naamloos verloop 81" x1="177" y1="113.43" x2="177" y2="94.69" xlink:href="#Naamloos_verloop_81"/>
    <linearGradient id="Naamloos_verloop_85" data-name="Naamloos verloop 85" x1="177" y1="145.26" x2="177" y2="129.08" gradientTransform="translate(-136.99 68.87) rotate(-23.98)" gradientUnits="userSpaceOnUse">
      <stop offset="0" stop-color="#333"/>
      <stop offset="1" stop-color="#1a1a1a"/>
    </linearGradient>
    <linearGradient id="Naamloos_verloop_257-2" data-name="Naamloos verloop 257" x1="160.42" y1="165.32" x2="160.42" y2="31.5" gradientTransform="translate(-51.85 -7.42)" xlink:href="#Naamloos_verloop_257"/>
    <linearGradient id="Naamloos_verloop_81-4" data-name="Naamloos verloop 81" x1="160.44" y1="73.98" x2="160.44" y2="109.54" gradientTransform="translate(-70.41 32.81) rotate(-13.52)" xlink:href="#Naamloos_verloop_81"/>
    <linearGradient id="Naamloos_verloop_85-2" data-name="Naamloos verloop 85" x1="160.44" y1="123.69" x2="160.44" y2="107.5" gradientTransform="translate(-70.41 32.81) rotate(-13.52)" xlink:href="#Naamloos_verloop_85"/>
    <linearGradient id="Naamloos_verloop_257-3" data-name="Naamloos verloop 257" x1="171.63" y1="143.89" x2="171.63" y2="10.08" gradientTransform="translate(-16.17 2.74)" xlink:href="#Naamloos_verloop_257"/>
    <linearGradient id="Naamloos_verloop_87" data-name="Naamloos verloop 87" x1="171.63" y1="50.8" x2="171.63" y2="102.69" gradientTransform="translate(-22.78 19.6) rotate(-5.52)" gradientUnits="userSpaceOnUse">
      <stop offset="0" stop-color="#ff7078"/>
      <stop offset="1" stop-color="#ff3e48"/>
    </linearGradient>
    <linearGradient id="Naamloos_verloop_257-4" data-name="Naamloos verloop 257" x1="160.93" y1="116.51" x2="160.93" y2="-17.3" gradientTransform="translate(36.34 25.6)" xlink:href="#Naamloos_verloop_257"/>
    <linearGradient id="Naamloos_verloop_87-2" data-name="Naamloos verloop 87" x1="160.93" y1="21.13" x2="160.93" y2="78.08" gradientTransform="translate(48.05 -2.85) rotate(10.48)" xlink:href="#Naamloos_verloop_87"/>
  </defs>
  <g id="Laag_1-2" data-name="Laag 1">
    <g>
      <rect class="cls-8" x="22.67" y="39.65" width="101.61" height="133.82" rx="2" ry="2" transform="translate(-36.97 39.06) rotate(-23.98)"/>
      <g>
        <path class="cls-14" d="m73.39,108.87c2.1,4.72-.03,10.24-4.74,12.34s-10.28,0-12.38-4.73c-2.1-4.72.05-10.3,4.76-12.4,1.49-.66,3.03-.9,4.55-.78.18,0,.38.05.56.06,3.09.45,5.89,2.45,7.25,5.49Z"/>
        <path class="cls-6" d="m92.37,100.43c2.1,4.72-.03,10.24-4.74,12.34-4.72,2.1-10.28,0-12.38-4.73-1.35-3.05-.93-6.48.81-9.08.12-.14.21-.32.33-.46.93-1.21,2.17-2.21,3.62-2.86,4.72-2.1,10.26.06,12.36,4.78Z"/>
        <path class="cls-4" d="m75.59,88.22c1.31,2.93.94,6.21-.63,8.78-.16.25-.35.51-.52.72-.93,1.21-2.17,2.21-3.62,2.86s-2.95.87-4.46.78c-.33-.03-.65-.07-.98-.1-2.96-.55-5.6-2.49-6.91-5.42-2.11-4.75,0-10.28,4.73-12.38,4.72-2.1,10.28,0,12.4,4.76Z"/>
        <g>
          <path class="cls-12" d="m90.51,126.65l-13.48,6c.38-.66.72-1.39,1.01-2.14,2.02-5.57.02-12.25-1.23-15.47l.71-.31c1.59,3.07,5.22,9.02,10.7,11.26.75.29,1.52.52,2.3.67Z"/>
          <path class="cls-2" d="m94.22,99.6c-2.56-5.76-9.32-8.35-15.04-5.81-.33.15-.67.3-.99.48.43-2.24.25-4.65-.75-6.88-2.56-5.76-9.32-8.35-15.08-5.79-5.72,2.54-8.32,9.31-5.76,15.06.99,2.23,2.62,3.99,4.61,5.16-.35.11-.69.26-1.02.41-5.76,2.56-8.35,9.32-5.79,15.08,2.54,5.72,9.31,8.32,15.06,5.76,2.79-1.24,4.82-3.48,5.88-6.09,1.69,4.99,3.74,14.8-4.73,18.57l.81,1.82,26.29-11.7-.81-1.82c-8.5,3.78-14.43-4.35-17.01-8.94,2.67.99,5.72.97,8.55-.29,5.72-2.54,8.32-9.31,5.77-15.02Zm-35.75-3.76c-2.11-4.75,0-10.28,4.73-12.38,4.72-2.1,10.28,0,12.4,4.76,1.31,2.93.94,6.21-.63,8.78-.16.25-.35.51-.52.72-.93,1.21-2.17,2.21-3.62,2.86s-2.95.87-4.46.78c-.33-.03-.65-.07-.98-.1-2.96-.55-5.6-2.49-6.91-5.42Zm18.56,36.81c.38-.66.72-1.39,1.01-2.14,2.02-5.57.02-12.25-1.23-15.47l.71-.31c1.59,3.07,5.22,9.02,10.7,11.26.75.29,1.52.52,2.3.67l-13.48,6Zm-8.38-11.44c-4.72,2.1-10.28,0-12.38-4.73-2.1-4.72.05-10.3,4.76-12.4,1.49-.66,3.03-.9,4.55-.78.18,0,.38.05.56.06,3.09.45,5.89,2.45,7.25,5.49,2.1,4.72-.03,10.24-4.74,12.34Zm6.6-13.17c-1.35-3.05-.93-6.48.81-9.08.12-.14.21-.32.33-.46.93-1.21,2.17-2.21,3.62-2.86,4.72-2.1,10.26.06,12.36,4.78,2.1,4.72-.03,10.24-4.74,12.34-4.72,2.1-10.28,0-12.38-4.73Z"/>
        </g>
      </g>
      <path class="cls-2" d="m116.98,130.07l.17.38-.96.76c-.86.72-.96,1.12.68,2.82l2.22,2.34,6.24-2.78-.12-2.04c-.15-3.33-.54-3.73-1.77-3.57l-1.16.18-.17-.38,5.71-2.54.17.38-.55.55c-.74.72-.81,1.11-.73,4.02l.35,13.86c.02.99.13,1.18.78,1.74v.15s-2.52,1.12-2.52,1.12l-11.58-11.66c-1.71-1.72-2.06-1.84-3.12-1.76l-.77.04-.17-.38,7.28-3.24Zm7.08,11.48c.79.83,1.48,1.61,1.74,1.95l.05-.02c-.09-.47-.14-1.6-.2-2.7l-.28-5.87-5.38,2.4,4.07,4.25Z"/>
      <path class="cls-2" d="m29.6,83l-.17-.38.96-.76c.86-.72.96-1.12-.68-2.82l-2.22-2.34-6.24,2.78.12,2.04c.15,3.33.54,3.73,1.77,3.57l1.16-.18.17.38-5.71,2.54-.17-.38.55-.55c.74-.72.81-1.11.73-4.02l-.35-13.86c-.02-.99-.13-1.18-.78-1.74v-.15s2.52-1.12,2.52-1.12l11.58,11.66c1.71,1.72,2.06,1.84,3.12,1.76l.77-.04.17.38-7.28,3.24Zm-7.08-11.48c-.79-.83-1.48-1.61-1.74-1.95l-.05.02c.09.47.14,1.6.2,2.7l.28,5.87,5.38-2.4-4.07-4.25Z"/>
    </g>
    <g>
      <rect class="cls-9" x="57.77" y="24.08" width="101.61" height="133.82" rx="2" ry="2" transform="translate(-18.26 27.9) rotate(-13.52)"/>
      <g>
        <path class="cls-5" d="m128.05,94.65c-1.4,2.35-3.65,3.97-6.34,4.62s-5.39.21-7.7-1.24l-4.37-2.67-2.63,4.36c-1.44,2.36-3.69,3.98-6.34,4.62-2.65.64-5.39.21-7.74-1.23-4.81-2.94-6.33-9.27-3.39-14.08.06-.1.15-.25.31-.45l13.03-21.33,21.78,13.34c4.81,2.94,6.33,9.27,3.39,14.08Z"/>
        <g>
          <path class="cls-7" d="m121.7,113.84l-14.4,3.46c.53-.59,1-1.24,1.42-1.93,3-5.11,2.25-12.05,1.6-15.45l.75-.18c1.01,3.31,3.49,9.83,8.49,13.02.69.42,1.4.79,2.14,1.07Z"/>
          <path class="cls-2" d="m129.77,95.71c3.55-5.75,1.74-13.3-4.05-16.85l-23.51-14.43-13.98,22.94c-.17.17-.29.36-.4.6-1.77,2.89-2.23,6.23-1.49,9.27.73,3.05,2.66,5.84,5.55,7.58,2.8,1.71,6.07,2.26,9.27,1.49,3.05-.73,5.62-2.56,7.34-5.15.8,5.08,1.28,15.59-7.97,17.82l.47,1.94,28-6.73-.47-1.94c-9.29,2.23-13.67-7.42-15.25-12.27,2.71,1.52,5.88,2.02,8.93,1.28,3.2-.77,5.91-2.76,7.58-5.55Zm-22.46,21.59c.53-.59,1-1.24,1.42-1.93,3-5.11,2.25-12.05,1.6-15.45l.75-.18c1.01,3.31,3.49,9.83,8.49,13.02.69.42,1.4.79,2.14,1.07l-14.4,3.46Zm2.34-21.94l-2.63,4.36c-1.44,2.36-3.69,3.98-6.34,4.62-2.65.64-5.39.21-7.74-1.23-4.81-2.94-6.33-9.27-3.39-14.08.06-.1.15-.25.31-.45l13.03-21.33,21.78,13.34c4.81,2.94,6.33,9.27,3.39,14.08-1.4,2.35-3.65,3.97-6.34,4.62s-5.39.21-7.7-1.24l-4.37-2.67Z"/>
        </g>
      </g>
      <path class="cls-2" d="m147.12,122.13l.1.4-1.09.57c-.98.55-1.14.93.16,2.89l1.76,2.71,6.65-1.6.25-2.02c.46-3.3.15-3.77-1.09-3.83l-1.17-.03-.1-.4,6.08-1.46.1.4-.64.44c-.86.57-1,.95-1.44,3.82l-2.17,13.7c-.16.98-.08,1.19.45,1.86l-.02.15-2.69.65-9.27-13.57c-1.36-2-1.69-2.18-2.74-2.3l-.76-.1-.1-.4,7.75-1.86Zm4.87,12.57c.63.96,1.16,1.86,1.36,2.23h.05c0-.5.16-1.61.29-2.7l.79-5.82-5.73,1.38,3.23,4.92Z"/>
      <path class="cls-2" d="m69.73,59.92l-.1-.4,1.09-.57c.98-.55,1.14-.93-.16-2.89l-1.76-2.71-6.65,1.6-.25,2.02c-.46,3.3-.15,3.77,1.09,3.83l1.17.03.1.4-6.08,1.46-.1-.4.64-.44c.86-.57,1-.95,1.44-3.82l2.17-13.7c.16-.98.08-1.19-.45-1.86l.02-.15,2.69-.65,9.27,13.57c1.36,2,1.69,2.18,2.74,2.3l.76.1.1.4-7.75,1.86Zm-4.87-12.57c-.63-.96-1.16-1.86-1.36-2.23h-.05c0,.5-.16,1.61-.29,2.7l-.79,5.82,5.73-1.38-3.23-4.92Z"/>
    </g>
    <g>
      <rect class="cls-11" x="104.65" y="12.81" width="101.61" height="133.82" rx="2" ry="2" transform="translate(-6.95 15.32) rotate(-5.52)"/>
      <g>
        <path class="cls-13" d="m178.9,55.69c-6.58-5.42-16.25-4.48-21.63,2.09l-3.54,4.3-4.3-3.54c-6.55-5.42-16.22-4.49-21.6,2.09-5.39,6.54-4.46,16.21,2.09,21.63l4.26,3.51,23.72,19.54,2.95-3.62.28-.34,16.28-19.76,3.04-3.69c.2-.17.37-.38.53-.58,5.39-6.57,4.45-16.24-2.09-21.63Z"/>
        <path class="cls-1" d="m158.07,106.91l-28.86-23.78c-7.01-5.8-8.01-16.22-2.24-23.23,2.8-3.41,6.75-5.52,11.12-5.95h0c4.38-.42,8.67.89,12.07,3.71l3.42,2.82,2.82-3.42c2.79-3.4,6.74-5.52,11.11-5.95h.02c4.38-.43,8.67.89,12.09,3.7h0c7.01,5.77,8.02,16.19,2.24,23.22-.19.25-.41.49-.66.71l-23.14,28.16Zm-19.76-50.7h0c-3.78.37-7.19,2.19-9.6,5.13-4.97,6.05-4.11,15.04,1.94,20.05l27.1,22.33,21.84-26.54c.28-.26.4-.42.52-.57,4.98-6.08,4.12-15.07-1.93-20.05h0c-2.95-2.43-6.65-3.56-10.43-3.2h-.02c-3.77.37-7.18,2.19-9.59,5.13l-4.26,5.17-5.17-4.26c-2.93-2.43-6.63-3.57-10.41-3.2Z"/>
      </g>
      <path class="cls-1" d="m189.3,116.05l.04.41-1.15.42c-1.05.41-1.26.76-.25,2.89l1.37,2.93,6.8-.66.53-1.97c.91-3.2.67-3.71-.55-3.95l-1.16-.19-.04-.41,6.22-.6.04.41-.69.35c-.93.45-1.12.8-1.96,3.58l-4.06,13.26c-.3.95-.25,1.16.18,1.9l-.04.14-2.75.27-7.29-14.72c-1.07-2.17-1.37-2.4-2.4-2.66l-.74-.21-.04-.41,7.93-.77Zm3.08,13.13c.49,1.04.89,2,1.04,2.4h.06c.06-.48.38-1.57.66-2.63l1.59-5.66-5.87.57,2.52,5.32Z"/>
      <path class="cls-1" d="m121.29,43.42l-.04-.41,1.15-.42c1.05-.41,1.26-.76.25-2.89l-1.37-2.93-6.8.66-.53,1.97c-.91,3.2-.67,3.71.55,3.95l1.16.19.04.41-6.22.6-.04-.41.69-.35c.93-.45,1.12-.8,1.96-3.58l4.06-13.26c.3-.95.25-1.16-.18-1.9l.04-.14,2.75-.27,7.29,14.72c1.07,2.17,1.37,2.4,2.4,2.66l.74.21.04.41-7.93.77Zm-3.08-13.13c-.49-1.04-.89-2-1.04-2.4h-.06c-.06.48-.38,1.57-.66,2.63l-1.59,5.66,5.87-.57-2.52-5.32Z"/>
    </g>
    <g>
      <rect class="cls-10" x="146.47" y="8.3" width="101.61" height="133.82" rx="2" ry="2" transform="translate(16.97 -34.63) rotate(10.48)"/>
      <g>
        <path class="cls-3" d="m189.33,100.96l-11.23-27.25c-.56-1.36-.27-2.91.74-3.98l20.23-21.43c1.86-1.97,5.12-1.36,6.15,1.14l11.23,27.25c.56,1.36.27,2.91-.74,3.98l-20.23,21.43c-1.86,1.97-5.12,1.36-6.15-1.14Z"/>
        <path class="cls-1" d="m191.93,104.12c-1.56-.29-2.85-1.34-3.46-2.81l-11.23-27.24c-.7-1.69-.34-3.64.92-4.97l20.23-21.42c1.09-1.15,2.67-1.67,4.23-1.38h0c1.56.29,2.85,1.34,3.45,2.8l11.23,27.24c.7,1.69.34,3.64-.92,4.97l-20.23,21.42c-1.09,1.15-2.67,1.67-4.23,1.38h0Zm-1.74-3.52c.37.89,1.13,1.51,2.07,1.68h0c.95.17,1.87-.13,2.54-.83l20.23-21.42c.75-.8.97-1.97.55-2.98l-11.23-27.24c-.37-.89-1.12-1.51-2.07-1.68h0c-.95-.18-1.88.13-2.54.83l-20.23,21.42c-.75.8-.97,1.97-.55,2.98l11.23,27.24Z"/>
      </g>
      <path class="cls-1" d="m174.44,30.96l.08-.41,1.23-.08c1.12-.1,1.42-.38,1.03-2.71l-.51-3.19-6.72-1.24-1.06,1.75c-1.76,2.83-1.67,3.38-.56,3.95l1.06.51-.08.41-6.15-1.14.08-.41.76-.14c1.02-.18,1.3-.46,2.87-2.9l7.55-11.63c.55-.83.56-1.05.35-1.88l.08-.13,2.72.5,2.95,16.16c.43,2.39.66,2.68,1.57,3.22l.66.4-.08.41-7.84-1.45Zm.66-13.47c-.19-1.13-.3-2.17-.34-2.59h-.05c-.19.43-.79,1.39-1.36,2.33l-3.09,5,5.8,1.07-.95-5.81Z"/>
      <path class="cls-1" d="m219.82,119.36l-.08.41-1.23.08c-1.12.1-1.42.38-1.03,2.71l.51,3.19,6.72,1.24,1.06-1.75c1.76-2.83,1.67-3.38.56-3.95l-1.06-.51.08-.41,6.15,1.14-.08.41-.76.14c-1.02.18-1.3.46-2.87,2.9l-7.55,11.63c-.55.83-.56,1.05-.35,1.88l-.08.13-2.72-.5-2.95-16.16c-.43-2.39-.66-2.68-1.57-3.22l-.66-.4.08-.41,7.84,1.45Zm-.66,13.47c.19,1.13.3,2.17.34,2.59h.05c.19-.43.79-1.39,1.36-2.33l3.09-5-5.8-1.07.95,5.81Z"/>
    </g>
  </g>
</svg>