<?xml version="1.0" encoding="UTF-8"?>
<svg id="Laag_2" data-name="Laag 2" xmlns="http://www.w3.org/2000/svg" xmlns:xlink="http://www.w3.org/1999/xlink" viewBox="0 0 30.36 39.67">
  <defs>
    <style>
      .cls-1 {
        fill: #1a1a1a;
      }

      .cls-2 {
        fill: url(#Naamloos_verloop_81-6);
      }

      .cls-3 {
        fill: url(#Naamloos_verloop_81-7);
      }

      .cls-4 {
        fill: url(#Naamloos_verloop_81-5);
      }

      .cls-5 {
        fill: url(#Naamloos_verloop_81-3);
      }

      .cls-6 {
        fill: url(#Naamloos_verloop_81-4);
      }

      .cls-7 {
        fill: url(#Naamloos_verloop_81-2);
      }

      .cls-8 {
        fill: url(#Naamloos_verloop_81-9);
      }

      .cls-9 {
        fill: url(#Naamloos_verloop_81-8);
      }

      .cls-10 {
        fill: url(#Naamloos_verloop_85-9);
      }

      .cls-11 {
        fill: url(#Naamloos_verloop_85-8);
      }

      .cls-12 {
        fill: url(#Naamloos_verloop_85-7);
      }

      .cls-13 {
        fill: url(#Naamloos_verloop_85-5);
      }

      .cls-14 {
        fill: url(#Naamloos_verloop_85-2);
      }

      .cls-15 {
        fill: url(#Naamloos_verloop_85-4);
      }

      .cls-16 {
        fill: url(#Naamloos_verloop_85-6);
      }

      .cls-17 {
        fill: url(#Naamloos_verloop_85-3);
      }

      .cls-18 {
        fill: url(#Naamloos_verloop_257);
        stroke: #fff;
        stroke-miterlimit: 10;
      }

      .cls-19 {
        fill: url(#Naamloos_verloop_85-10);
      }

      .cls-20 {
        fill: url(#Naamloos_verloop_81-24);
      }

      .cls-21 {
        fill: url(#Naamloos_verloop_81-25);
      }

      .cls-22 {
        fill: url(#Naamloos_verloop_81-20);
      }

      .cls-23 {
        fill: url(#Naamloos_verloop_81-21);
      }

      .cls-24 {
        fill: url(#Naamloos_verloop_81-22);
      }

      .cls-25 {
        fill: url(#Naamloos_verloop_81-23);
      }

      .cls-26 {
        fill: url(#Naamloos_verloop_81-26);
      }

      .cls-27 {
        fill: url(#Naamloos_verloop_81-27);
      }

      .cls-28 {
        fill: url(#Naamloos_verloop_81-17);
      }

      .cls-29 {
        fill: url(#Naamloos_verloop_81-16);
      }

      .cls-30 {
        fill: url(#Naamloos_verloop_81-18);
      }

      .cls-31 {
        fill: url(#Naamloos_verloop_81-19);
      }

      .cls-32 {
        fill: url(#Naamloos_verloop_81-30);
      }

      .cls-33 {
        fill: url(#Naamloos_verloop_81-11);
      }

      .cls-34 {
        fill: url(#Naamloos_verloop_81-10);
      }

      .cls-35 {
        fill: url(#Naamloos_verloop_81-13);
      }

      .cls-36 {
        fill: url(#Naamloos_verloop_81-12);
      }

      .cls-37 {
        fill: url(#Naamloos_verloop_81-15);
      }

      .cls-38 {
        fill: url(#Naamloos_verloop_81-14);
      }

      .cls-39 {
        fill: url(#Naamloos_verloop_81-28);
      }

      .cls-40 {
        fill: url(#Naamloos_verloop_81-29);
      }

      .cls-41 {
        fill: url(#Naamloos_verloop_85);
      }

      .cls-42 {
        fill: url(#Naamloos_verloop_81);
      }
    </style>
    <linearGradient id="Naamloos_verloop_257" data-name="Naamloos verloop 257" x1="15.18" y1="39.17" x2="15.18" y2=".5" gradientUnits="userSpaceOnUse">
      <stop offset="0" stop-color="#f0f0f0"/>
      <stop offset="1" stop-color="#fcfcfc"/>
    </linearGradient>
    <linearGradient id="Naamloos_verloop_81" data-name="Naamloos verloop 81" x1="7.98" y1="23.57" x2="7.98" y2="21.76" gradientUnits="userSpaceOnUse">
      <stop offset="0" stop-color="#333"/>
      <stop offset="1" stop-color="#1a1a1a"/>
    </linearGradient>
    <linearGradient id="Naamloos_verloop_81-2" data-name="Naamloos verloop 81" x1="9.98" x2="9.98" xlink:href="#Naamloos_verloop_81"/>
    <linearGradient id="Naamloos_verloop_81-3" data-name="Naamloos verloop 81" x1="8.99" y1="21.84" x2="8.99" y2="20.03" xlink:href="#Naamloos_verloop_81"/>
    <linearGradient id="Naamloos_verloop_85" data-name="Naamloos verloop 85" x1="8.99" y1="24.9" x2="8.99" y2="23.34" gradientUnits="userSpaceOnUse">
      <stop offset="0" stop-color="#333"/>
      <stop offset="1" stop-color="#1a1a1a"/>
    </linearGradient>
    <linearGradient id="Naamloos_verloop_81-4" data-name="Naamloos verloop 81" x1="-636.16" y1="23.18" x2="-636.16" y2="21.38" gradientTransform="translate(-626.18 55.07) rotate(-180)" xlink:href="#Naamloos_verloop_81"/>
    <linearGradient id="Naamloos_verloop_81-5" data-name="Naamloos verloop 81" x1="-634.16" y1="23.18" x2="-634.16" y2="21.38" gradientTransform="translate(-626.18 55.07) rotate(-180)" xlink:href="#Naamloos_verloop_81"/>
    <linearGradient id="Naamloos_verloop_81-6" data-name="Naamloos verloop 81" x1="-635.16" y1="21.45" x2="-635.16" y2="19.65" gradientTransform="translate(-626.18 55.07) rotate(-180)" xlink:href="#Naamloos_verloop_81"/>
    <linearGradient id="Naamloos_verloop_85-2" data-name="Naamloos verloop 85" x1="-635.16" y1="24.52" x2="-635.16" y2="22.96" gradientTransform="translate(-626.18 55.07) rotate(-180)" xlink:href="#Naamloos_verloop_85"/>
    <linearGradient id="Naamloos_verloop_81-7" data-name="Naamloos verloop 81" x1="16.18" x2="16.18" xlink:href="#Naamloos_verloop_81"/>
    <linearGradient id="Naamloos_verloop_81-8" data-name="Naamloos verloop 81" x1="18.18" x2="18.18" xlink:href="#Naamloos_verloop_81"/>
    <linearGradient id="Naamloos_verloop_81-9" data-name="Naamloos verloop 81" x1="17.18" y1="21.84" x2="17.18" y2="20.03" xlink:href="#Naamloos_verloop_81"/>
    <linearGradient id="Naamloos_verloop_85-3" data-name="Naamloos verloop 85" x1="17.18" x2="17.18" xlink:href="#Naamloos_verloop_85"/>
    <linearGradient id="Naamloos_verloop_81-10" data-name="Naamloos verloop 81" x1="12.08" y1="28.83" x2="12.08" y2="27.02" xlink:href="#Naamloos_verloop_81"/>
    <linearGradient id="Naamloos_verloop_81-11" data-name="Naamloos verloop 81" x1="14.08" y1="28.83" x2="14.08" y2="27.02" xlink:href="#Naamloos_verloop_81"/>
    <linearGradient id="Naamloos_verloop_81-12" data-name="Naamloos verloop 81" x1="13.09" y1="27.1" x2="13.09" y2="25.29" xlink:href="#Naamloos_verloop_81"/>
    <linearGradient id="Naamloos_verloop_85-4" data-name="Naamloos verloop 85" x1="13.09" y1="30.16" x2="13.09" y2="28.6" xlink:href="#Naamloos_verloop_85"/>
    <linearGradient id="Naamloos_verloop_81-13" data-name="Naamloos verloop 81" x1="-644.36" y1="23.18" x2="-644.36" y2="21.38" gradientTransform="translate(-626.18 55.07) rotate(-180)" xlink:href="#Naamloos_verloop_81"/>
    <linearGradient id="Naamloos_verloop_81-14" data-name="Naamloos verloop 81" x1="-642.36" y1="23.18" x2="-642.36" y2="21.38" gradientTransform="translate(-626.18 55.07) rotate(-180)" xlink:href="#Naamloos_verloop_81"/>
    <linearGradient id="Naamloos_verloop_81-15" data-name="Naamloos verloop 81" x1="-643.36" y1="21.45" x2="-643.36" y2="19.65" gradientTransform="translate(-626.18 55.07) rotate(-180)" xlink:href="#Naamloos_verloop_81"/>
    <linearGradient id="Naamloos_verloop_85-5" data-name="Naamloos verloop 85" x1="-643.36" y1="24.52" x2="-643.36" y2="22.96" gradientTransform="translate(-626.18 55.07) rotate(-180)" xlink:href="#Naamloos_verloop_85"/>
    <linearGradient id="Naamloos_verloop_81-16" data-name="Naamloos verloop 81" x1="12.18" y1="7.78" x2="12.18" y2="5.97" xlink:href="#Naamloos_verloop_81"/>
    <linearGradient id="Naamloos_verloop_81-17" data-name="Naamloos verloop 81" x1="14.18" y1="7.78" x2="14.18" y2="5.97" xlink:href="#Naamloos_verloop_81"/>
    <linearGradient id="Naamloos_verloop_81-18" data-name="Naamloos verloop 81" x1="13.18" y1="6.05" x2="13.18" y2="4.24" xlink:href="#Naamloos_verloop_81"/>
    <linearGradient id="Naamloos_verloop_85-6" data-name="Naamloos verloop 85" x1="13.18" y1="9.11" x2="13.18" y2="7.56" xlink:href="#Naamloos_verloop_85"/>
    <linearGradient id="Naamloos_verloop_81-19" data-name="Naamloos verloop 81" x1="-640.36" y1="38.97" x2="-640.36" y2="37.16" gradientTransform="translate(-626.18 55.07) rotate(-180)" xlink:href="#Naamloos_verloop_81"/>
    <linearGradient id="Naamloos_verloop_81-20" data-name="Naamloos verloop 81" x1="-638.36" y1="38.97" x2="-638.36" y2="37.16" gradientTransform="translate(-626.18 55.07) rotate(-180)" xlink:href="#Naamloos_verloop_81"/>
    <linearGradient id="Naamloos_verloop_81-21" data-name="Naamloos verloop 81" x1="-639.36" y1="37.24" x2="-639.36" y2="35.43" gradientTransform="translate(-626.18 55.07) rotate(-180)" xlink:href="#Naamloos_verloop_81"/>
    <linearGradient id="Naamloos_verloop_85-7" data-name="Naamloos verloop 85" x1="-639.36" y1="40.3" x2="-639.36" y2="38.75" gradientTransform="translate(-626.18 55.07) rotate(-180)" xlink:href="#Naamloos_verloop_85"/>
    <linearGradient id="Naamloos_verloop_81-22" data-name="Naamloos verloop 81" x1="20.38" y1="7.78" x2="20.38" y2="5.97" xlink:href="#Naamloos_verloop_81"/>
    <linearGradient id="Naamloos_verloop_81-23" data-name="Naamloos verloop 81" x1="22.38" y1="7.78" x2="22.38" y2="5.97" xlink:href="#Naamloos_verloop_81"/>
    <linearGradient id="Naamloos_verloop_81-24" data-name="Naamloos verloop 81" x1="21.38" y1="6.05" x2="21.38" y2="4.24" xlink:href="#Naamloos_verloop_81"/>
    <linearGradient id="Naamloos_verloop_85-8" data-name="Naamloos verloop 85" x1="21.38" y1="9.11" x2="21.38" y2="7.56" xlink:href="#Naamloos_verloop_85"/>
    <linearGradient id="Naamloos_verloop_81-25" data-name="Naamloos verloop 81" x1="16.28" y1="13.04" x2="16.28" y2="11.24" xlink:href="#Naamloos_verloop_81"/>
    <linearGradient id="Naamloos_verloop_81-26" data-name="Naamloos verloop 81" x1="18.28" y1="13.04" x2="18.28" y2="11.24" xlink:href="#Naamloos_verloop_81"/>
    <linearGradient id="Naamloos_verloop_81-27" data-name="Naamloos verloop 81" x1="17.28" y1="11.31" x2="17.28" y2="9.51" xlink:href="#Naamloos_verloop_81"/>
    <linearGradient id="Naamloos_verloop_85-9" data-name="Naamloos verloop 85" x1="17.28" y1="14.38" x2="17.28" y2="12.82" xlink:href="#Naamloos_verloop_85"/>
    <linearGradient id="Naamloos_verloop_81-28" data-name="Naamloos verloop 81" x1="-648.56" y1="38.97" x2="-648.56" y2="37.16" gradientTransform="translate(-626.18 55.07) rotate(-180)" xlink:href="#Naamloos_verloop_81"/>
    <linearGradient id="Naamloos_verloop_81-29" data-name="Naamloos verloop 81" x1="-646.56" y1="38.97" x2="-646.56" y2="37.16" gradientTransform="translate(-626.18 55.07) rotate(-180)" xlink:href="#Naamloos_verloop_81"/>
    <linearGradient id="Naamloos_verloop_81-30" data-name="Naamloos verloop 81" x1="-647.56" y1="37.24" x2="-647.56" y2="35.43" gradientTransform="translate(-626.18 55.07) rotate(-180)" xlink:href="#Naamloos_verloop_81"/>
    <linearGradient id="Naamloos_verloop_85-10" data-name="Naamloos verloop 85" x1="-647.56" y1="40.3" x2="-647.56" y2="38.75" gradientTransform="translate(-626.18 55.07) rotate(-180)" xlink:href="#Naamloos_verloop_85"/>
  </defs>
  <g id="Laag_1-2" data-name="Laag 1">
    <g>
      <rect class="cls-18" x=".5" y=".5" width="29.36" height="38.67" rx="2" ry="2"/>
      <g>
        <path class="cls-42" d="m8.89,22.67c0,.5-.4.9-.9.9s-.9-.4-.9-.9.41-.9.9-.9c.16,0,.3.04.43.11.02,0,.03.02.05.03.25.16.42.45.42.77Z"/>
        <path class="cls-7" d="m10.89,22.67c0,.5-.4.9-.9.9s-.9-.4-.9-.9c0-.32.17-.61.43-.77.02,0,.03-.02.05-.03.13-.07.28-.11.43-.11.5,0,.9.41.9.9Z"/>
        <path class="cls-5" d="m9.89,20.93c0,.31-.16.58-.4.75-.02.02-.05.03-.07.04-.13.07-.28.11-.43.11s-.29-.04-.42-.11c-.03-.02-.05-.03-.08-.05-.24-.16-.4-.44-.4-.75,0-.5.4-.9.9-.9s.9.4.9.9Z"/>
        <g>
          <path class="cls-41" d="m9.7,24.9h-1.42c.06-.04.12-.09.17-.15.4-.41.48-1.08.5-1.41h.07c.02.33.11,1,.5,1.41.05.05.11.11.18.15Z"/>
          <path class="cls-1" d="m11.08,22.67c0-.61-.49-1.1-1.1-1.1-.04,0-.07,0-.11,0,.13-.18.2-.4.2-.63,0-.61-.49-1.1-1.1-1.1s-1.1.49-1.1,1.1c0,.23.07.45.2.63-.04,0-.07,0-.11,0-.61,0-1.1.49-1.1,1.1s.49,1.1,1.1,1.1c.29,0,.56-.12.76-.31-.05.51-.25,1.45-1.14,1.45v.19h2.77v-.19c-.9,0-1.1-.95-1.15-1.45.2.19.47.31.76.31.6,0,1.1-.49,1.1-1.1Zm-3-1.73c0-.5.4-.9.9-.9s.9.4.9.9c0,.31-.16.58-.4.75-.02.02-.05.03-.07.04-.13.07-.28.11-.43.11s-.29-.04-.42-.11c-.03-.02-.05-.03-.08-.05-.24-.16-.4-.44-.4-.75Zm.19,3.97c.06-.04.12-.09.17-.15.4-.41.48-1.08.5-1.41h.07c.02.33.11,1,.5,1.41.05.05.11.11.18.15h-1.42Zm-.29-1.34c-.5,0-.9-.4-.9-.9s.41-.9.9-.9c.16,0,.3.04.43.11.02,0,.03.02.05.03.25.16.42.45.42.77,0,.5-.4.9-.9.9Zm1.1-.9c0-.32.17-.61.43-.77.02,0,.03-.02.05-.03.13-.07.28-.11.43-.11.5,0,.9.41.9.9s-.4.9-.9.9-.9-.4-.9-.9Z"/>
        </g>
      </g>
      <g>
        <path class="cls-6" d="m9.08,32.79c0-.5.4-.9.9-.9s.9.4.9.9-.41.9-.9.9c-.16,0-.3-.04-.43-.11-.02,0-.03-.02-.05-.03-.25-.16-.42-.45-.42-.77Z"/>
        <path class="cls-4" d="m7.08,32.79c0-.5.4-.9.9-.9s.9.4.9.9c0,.32-.17.61-.43.77-.02,0-.03.02-.05.03-.13.07-.28.11-.43.11-.5,0-.9-.41-.9-.9Z"/>
        <path class="cls-2" d="m8.08,34.52c0-.31.16-.58.4-.75.02-.02.05-.03.07-.04.13-.07.28-.11.43-.11s.29.04.42.11c.03.02.05.03.08.05.24.16.4.44.4.75,0,.5-.4.9-.9.9s-.9-.4-.9-.9Z"/>
        <g>
          <path class="cls-14" d="m8.27,30.55h1.42c-.06.04-.12.09-.17.15-.4.41-.48,1.08-.5,1.41h-.07c-.02-.33-.11-1-.5-1.41-.05-.05-.11-.11-.18-.15Z"/>
          <path class="cls-1" d="m6.89,32.79c0,.61.49,1.1,1.1,1.1.04,0,.07,0,.11,0-.13.18-.2.4-.2.63,0,.61.49,1.1,1.1,1.1s1.1-.49,1.1-1.1c0-.23-.07-.45-.2-.63.04,0,.07,0,.11,0,.61,0,1.1-.49,1.1-1.1s-.49-1.1-1.1-1.1c-.29,0-.56.12-.76.31.05-.51.25-1.45,1.14-1.45v-.19h-2.77v.19c.9,0,1.1.95,1.15,1.45-.2-.19-.47-.31-.76-.31-.6,0-1.1.49-1.1,1.1Zm3,1.73c0,.5-.4.9-.9.9s-.9-.4-.9-.9c0-.31.16-.58.4-.75.02-.02.05-.03.07-.04.13-.07.28-.11.43-.11s.29.04.42.11c.03.02.05.03.08.05.24.16.4.44.4.75Zm-.19-3.97c-.06.04-.12.09-.17.15-.4.41-.48,1.08-.5,1.41h-.07c-.02-.33-.11-1-.5-1.41-.05-.05-.11-.11-.18-.15h1.42Zm.29,1.34c.5,0,.9.4.9.9s-.41.9-.9.9c-.16,0-.3-.04-.43-.11-.02,0-.03-.02-.05-.03-.25-.16-.42-.45-.42-.77,0-.5.4-.9.9-.9Zm-1.1.9c0,.32-.17.61-.43.77-.02,0-.03.02-.05.03-.13.07-.28.11-.43.11-.5,0-.9-.41-.9-.9s.4-.9.9-.9.9.4.9.9Z"/>
        </g>
      </g>
      <g>
        <path class="cls-3" d="m17.08,22.67c0,.5-.4.9-.9.9s-.9-.4-.9-.9.41-.9.9-.9c.16,0,.3.04.43.11.02,0,.03.02.05.03.25.16.42.45.42.77Z"/>
        <path class="cls-9" d="m19.09,22.67c0,.5-.4.9-.9.9s-.9-.4-.9-.9c0-.32.17-.61.43-.77.02,0,.03-.02.05-.03.13-.07.28-.11.43-.11.5,0,.9.41.9.9Z"/>
        <path class="cls-8" d="m18.09,20.93c0,.31-.16.58-.4.75-.02.02-.05.03-.07.04-.13.07-.28.11-.43.11s-.29-.04-.42-.11c-.03-.02-.05-.03-.08-.05-.24-.16-.4-.44-.4-.75,0-.5.4-.9.9-.9s.9.4.9.9Z"/>
        <g>
          <path class="cls-17" d="m17.9,24.9h-1.42c.06-.04.12-.09.17-.15.4-.41.48-1.08.5-1.41h.07c.02.33.11,1,.5,1.41.05.05.11.11.18.15Z"/>
          <path class="cls-1" d="m19.28,22.67c0-.61-.49-1.1-1.1-1.1-.04,0-.07,0-.11,0,.13-.18.2-.4.2-.63,0-.61-.49-1.1-1.1-1.1s-1.1.49-1.1,1.1c0,.23.07.45.2.63-.04,0-.07,0-.11,0-.61,0-1.1.49-1.1,1.1s.49,1.1,1.1,1.1c.29,0,.56-.12.76-.31-.05.51-.25,1.45-1.14,1.45v.19h2.77v-.19c-.9,0-1.1-.95-1.15-1.45.2.19.47.31.76.31.6,0,1.1-.49,1.1-1.1Zm-3-1.73c0-.5.4-.9.9-.9s.9.4.9.9c0,.31-.16.58-.4.75-.02.02-.05.03-.07.04-.13.07-.28.11-.43.11s-.29-.04-.42-.11c-.03-.02-.05-.03-.08-.05-.24-.16-.4-.44-.4-.75Zm.19,3.97c.06-.04.12-.09.17-.15.4-.41.48-1.08.5-1.41h.07c.02.33.11,1,.5,1.41.05.05.11.11.18.15h-1.42Zm-.29-1.34c-.5,0-.9-.4-.9-.9s.41-.9.9-.9c.16,0,.3.04.43.11.02,0,.03.02.05.03.25.16.42.45.42.77,0,.5-.4.9-.9.9Zm1.1-.9c0-.32.17-.61.43-.77.02,0,.03-.02.05-.03.13-.07.28-.11.43-.11.5,0,.9.41.9.9s-.4.9-.9.9-.9-.4-.9-.9Z"/>
        </g>
      </g>
      <g>
        <path class="cls-34" d="m12.99,27.93c0,.5-.4.9-.9.9s-.9-.4-.9-.9.41-.9.9-.9c.16,0,.3.04.43.11.02,0,.03.02.05.03.25.16.42.45.42.77Z"/>
        <path class="cls-33" d="m14.99,27.93c0,.5-.4.9-.9.9s-.9-.4-.9-.9c0-.32.17-.61.43-.77.02,0,.03-.02.05-.03.13-.07.28-.11.43-.11.5,0,.9.41.9.9Z"/>
        <path class="cls-36" d="m13.99,26.2c0,.31-.16.58-.4.75-.02.02-.05.03-.07.04-.13.07-.28.11-.43.11s-.29-.04-.42-.11c-.03-.02-.05-.03-.08-.05-.24-.16-.4-.44-.4-.75,0-.5.4-.9.9-.9s.9.4.9.9Z"/>
        <g>
          <path class="cls-15" d="m13.8,30.16h-1.42c.06-.04.12-.09.17-.15.4-.41.48-1.08.5-1.41h.07c.02.33.11,1,.5,1.41.05.05.11.11.18.15Z"/>
          <path class="cls-1" d="m15.18,27.93c0-.61-.49-1.1-1.1-1.1-.04,0-.07,0-.11,0,.13-.18.2-.4.2-.63,0-.61-.49-1.1-1.1-1.1s-1.1.49-1.1,1.1c0,.23.07.45.2.63-.04,0-.07,0-.11,0-.61,0-1.1.49-1.1,1.1s.49,1.1,1.1,1.1c.29,0,.56-.12.76-.31-.05.51-.25,1.45-1.14,1.45v.19h2.77v-.19c-.9,0-1.1-.95-1.15-1.45.2.19.47.31.76.31.6,0,1.1-.49,1.1-1.1Zm-3-1.73c0-.5.4-.9.9-.9s.9.4.9.9c0,.31-.16.58-.4.75-.02.02-.05.03-.07.04-.13.07-.28.11-.43.11s-.29-.04-.42-.11c-.03-.02-.05-.03-.08-.05-.24-.16-.4-.44-.4-.75Zm.19,3.97c.06-.04.12-.09.17-.15.4-.41.48-1.08.5-1.41h.07c.02.33.11,1,.5,1.41.05.05.11.11.18.15h-1.42Zm-.29-1.34c-.5,0-.9-.4-.9-.9s.41-.9.9-.9c.16,0,.3.04.43.11.02,0,.03.02.05.03.25.16.42.45.42.77,0,.5-.4.9-.9.9Zm1.1-.9c0-.32.17-.61.43-.77.02,0,.03-.02.05-.03.13-.07.28-.11.43-.11.5,0,.9.41.9.9s-.4.9-.9.9-.9-.4-.9-.9Z"/>
        </g>
      </g>
      <g>
        <path class="cls-35" d="m17.28,32.79c0-.5.4-.9.9-.9s.9.4.9.9-.41.9-.9.9c-.16,0-.3-.04-.43-.11-.02,0-.03-.02-.05-.03-.25-.16-.42-.45-.42-.77Z"/>
        <path class="cls-38" d="m15.28,32.79c0-.5.4-.9.9-.9s.9.4.9.9c0,.32-.17.61-.43.77-.02,0-.03.02-.05.03-.13.07-.28.11-.43.11-.5,0-.9-.41-.9-.9Z"/>
        <path class="cls-37" d="m16.28,34.52c0-.31.16-.58.4-.75.02-.02.05-.03.07-.04.13-.07.28-.11.43-.11s.29.04.42.11c.03.02.05.03.08.05.24.16.4.44.4.75,0,.5-.4.9-.9.9s-.9-.4-.9-.9Z"/>
        <g>
          <path class="cls-13" d="m16.47,30.55h1.42c-.06.04-.12.09-.17.15-.4.41-.48,1.08-.5,1.41h-.07c-.02-.33-.11-1-.5-1.41-.05-.05-.11-.11-.18-.15Z"/>
          <path class="cls-1" d="m15.08,32.79c0,.61.49,1.1,1.1,1.1.04,0,.07,0,.11,0-.13.18-.2.4-.2.63,0,.61.49,1.1,1.1,1.1s1.1-.49,1.1-1.1c0-.23-.07-.45-.2-.63.04,0,.07,0,.11,0,.61,0,1.1-.49,1.1-1.1s-.49-1.1-1.1-1.1c-.29,0-.56.12-.76.31.05-.51.25-1.45,1.14-1.45v-.19h-2.77v.19c.9,0,1.1.95,1.15,1.45-.2-.19-.47-.31-.76-.31-.6,0-1.1.49-1.1,1.1Zm3,1.73c0,.5-.4.9-.9.9s-.9-.4-.9-.9c0-.31.16-.58.4-.75.02-.02.05-.03.07-.04.13-.07.28-.11.43-.11s.29.04.42.11c.03.02.05.03.08.05.24.16.4.44.4.75Zm-.19-3.97c-.06.04-.12.09-.17.15-.4.41-.48,1.08-.5,1.41h-.07c-.02-.33-.11-1-.5-1.41-.05-.05-.11-.11-.18-.15h1.42Zm.29,1.34c.5,0,.9.4.9.9s-.41.9-.9.9c-.16,0-.3-.04-.43-.11-.02,0-.03-.02-.05-.03-.25-.16-.42-.45-.42-.77,0-.5.4-.9.9-.9Zm-1.1.9c0,.32-.17.61-.43.77-.02,0-.03.02-.05.03-.13.07-.28.11-.43.11-.5,0-.9-.41-.9-.9s.4-.9.9-.9.9.4.9.9Z"/>
        </g>
      </g>
      <g>
        <path class="cls-29" d="m13.08,6.88c0,.5-.4.9-.9.9s-.9-.4-.9-.9.41-.9.9-.9c.16,0,.3.04.43.11.02,0,.03.02.05.03.25.16.42.45.42.77Z"/>
        <path class="cls-28" d="m15.08,6.88c0,.5-.4.9-.9.9s-.9-.4-.9-.9c0-.32.17-.61.43-.77.02,0,.03-.02.05-.03.13-.07.28-.11.43-.11.5,0,.9.41.9.9Z"/>
        <path class="cls-30" d="m14.09,5.15c0,.31-.16.58-.4.75-.02.02-.05.03-.07.04-.13.07-.28.11-.43.11s-.29-.04-.42-.11c-.03-.02-.05-.03-.08-.05-.24-.16-.4-.44-.4-.75,0-.5.4-.9.9-.9s.9.4.9.9Z"/>
        <g>
          <path class="cls-16" d="m13.89,9.11h-1.42c.06-.04.12-.09.17-.15.4-.41.48-1.08.5-1.41h.07c.02.33.11,1,.5,1.41.05.05.11.11.18.15Z"/>
          <path class="cls-1" d="m15.28,6.88c0-.61-.49-1.1-1.1-1.1-.04,0-.07,0-.11,0,.13-.18.2-.4.2-.63,0-.61-.49-1.1-1.1-1.1s-1.1.49-1.1,1.1c0,.23.07.45.2.63-.04,0-.07,0-.11,0-.61,0-1.1.49-1.1,1.1s.49,1.1,1.1,1.1c.29,0,.56-.12.76-.31-.05.51-.25,1.45-1.14,1.45v.19h2.77v-.19c-.9,0-1.1-.95-1.15-1.45.2.19.47.31.76.31.6,0,1.1-.49,1.1-1.1Zm-3-1.73c0-.5.4-.9.9-.9s.9.4.9.9c0,.31-.16.58-.4.75-.02.02-.05.03-.07.04-.13.07-.28.11-.43.11s-.29-.04-.42-.11c-.03-.02-.05-.03-.08-.05-.24-.16-.4-.44-.4-.75Zm.19,3.97c.06-.04.12-.09.17-.15.4-.41.48-1.08.5-1.41h.07c.02.33.11,1,.5,1.41.05.05.11.11.18.15h-1.42Zm-.29-1.34c-.5,0-.9-.4-.9-.9s.41-.9.9-.9c.16,0,.3.04.43.11.02,0,.03.02.05.03.25.16.42.45.42.77,0,.5-.4.9-.9.9Zm1.1-.9c0-.32.17-.61.43-.77.02,0,.03-.02.05-.03.13-.07.28-.11.43-.11.5,0,.9.41.9.9s-.4.9-.9.9-.9-.4-.9-.9Z"/>
        </g>
      </g>
      <g>
        <path class="cls-31" d="m13.28,17c0-.5.4-.9.9-.9s.9.4.9.9-.41.9-.9.9c-.16,0-.3-.04-.43-.11-.02,0-.03-.02-.05-.03-.25-.16-.42-.45-.42-.77Z"/>
        <path class="cls-22" d="m11.28,17c0-.5.4-.9.9-.9s.9.4.9.9c0,.32-.17.61-.43.77-.02,0-.03.02-.05.03-.13.07-.28.11-.43.11-.5,0-.9-.41-.9-.9Z"/>
        <path class="cls-23" d="m12.28,18.73c0-.31.16-.58.4-.75.02-.02.05-.03.07-.04.13-.07.28-.11.43-.11s.29.04.42.11c.03.02.05.03.08.05.24.16.4.44.4.75,0,.5-.4.9-.9.9s-.9-.4-.9-.9Z"/>
        <g>
          <path class="cls-12" d="m12.47,14.77h1.42c-.06.04-.12.09-.17.15-.4.41-.48,1.08-.5,1.41h-.07c-.02-.33-.11-1-.5-1.41-.05-.05-.11-.11-.18-.15Z"/>
          <path class="cls-1" d="m11.08,17c0,.61.49,1.1,1.1,1.1.04,0,.07,0,.11,0-.13.18-.2.4-.2.63,0,.61.49,1.1,1.1,1.1s1.1-.49,1.1-1.1c0-.23-.07-.45-.2-.63.04,0,.07,0,.11,0,.61,0,1.1-.49,1.1-1.1s-.49-1.1-1.1-1.1c-.29,0-.56.12-.76.31.05-.51.25-1.45,1.14-1.45v-.19h-2.77v.19c.9,0,1.1.95,1.15,1.45-.2-.19-.47-.31-.76-.31-.6,0-1.1.49-1.1,1.1Zm3,1.73c0,.5-.4.9-.9.9s-.9-.4-.9-.9c0-.31.16-.58.4-.75.02-.02.05-.03.07-.04.13-.07.28-.11.43-.11s.29.04.42.11c.03.02.05.03.08.05.24.16.4.44.4.75Zm-.19-3.97c-.06.04-.12.09-.17.15-.4.41-.48,1.08-.5,1.41h-.07c-.02-.33-.11-1-.5-1.41-.05-.05-.11-.11-.18-.15h1.42Zm.29,1.34c.5,0,.9.4.9.9s-.41.9-.9.9c-.16,0-.3-.04-.43-.11-.02,0-.03-.02-.05-.03-.25-.16-.42-.45-.42-.77,0-.5.4-.9.9-.9Zm-1.1.9c0,.32-.17.61-.43.77-.02,0-.03.02-.05.03-.13.07-.28.11-.43.11-.5,0-.9-.41-.9-.9s.4-.9.9-.9.9.4.9.9Z"/>
        </g>
      </g>
      <g>
        <path class="cls-24" d="m21.28,6.88c0,.5-.4.9-.9.9s-.9-.4-.9-.9.41-.9.9-.9c.16,0,.3.04.43.11.02,0,.03.02.05.03.25.16.42.45.42.77Z"/>
        <path class="cls-25" d="m23.28,6.88c0,.5-.4.9-.9.9s-.9-.4-.9-.9c0-.32.17-.61.43-.77.02,0,.03-.02.05-.03.13-.07.28-.11.43-.11.5,0,.9.41.9.9Z"/>
        <path class="cls-20" d="m22.28,5.15c0,.31-.16.58-.4.75-.02.02-.05.03-.07.04-.13.07-.28.11-.43.11s-.29-.04-.42-.11c-.03-.02-.05-.03-.08-.05-.24-.16-.4-.44-.4-.75,0-.5.4-.9.9-.9s.9.4.9.9Z"/>
        <g>
          <path class="cls-11" d="m22.09,9.11h-1.42c.06-.04.12-.09.17-.15.4-.41.48-1.08.5-1.41h.07c.02.33.11,1,.5,1.41.05.05.11.11.18.15Z"/>
          <path class="cls-1" d="m23.48,6.88c0-.61-.49-1.1-1.1-1.1-.04,0-.07,0-.11,0,.13-.18.2-.4.2-.63,0-.61-.49-1.1-1.1-1.1s-1.1.49-1.1,1.1c0,.23.07.45.2.63-.04,0-.07,0-.11,0-.61,0-1.1.49-1.1,1.1s.49,1.1,1.1,1.1c.29,0,.56-.12.76-.31-.05.51-.25,1.45-1.14,1.45v.19h2.77v-.19c-.9,0-1.1-.95-1.15-1.45.2.19.47.31.76.31.6,0,1.1-.49,1.1-1.1Zm-3-1.73c0-.5.4-.9.9-.9s.9.4.9.9c0,.31-.16.58-.4.75-.02.02-.05.03-.07.04-.13.07-.28.11-.43.11s-.29-.04-.42-.11c-.03-.02-.05-.03-.08-.05-.24-.16-.4-.44-.4-.75Zm.19,3.97c.06-.04.12-.09.17-.15.4-.41.48-1.08.5-1.41h.07c.02.33.11,1,.5,1.41.05.05.11.11.18.15h-1.42Zm-.29-1.34c-.5,0-.9-.4-.9-.9s.41-.9.9-.9c.16,0,.3.04.43.11.02,0,.03.02.05.03.25.16.42.45.42.77,0,.5-.4.9-.9.9Zm1.1-.9c0-.32.17-.61.43-.77.02,0,.03-.02.05-.03.13-.07.28-.11.43-.11.5,0,.9.41.9.9s-.4.9-.9.9-.9-.4-.9-.9Z"/>
        </g>
      </g>
      <g>
        <path class="cls-21" d="m17.18,12.14c0,.5-.4.9-.9.9s-.9-.4-.9-.9.41-.9.9-.9c.16,0,.3.04.43.11.02,0,.03.02.05.03.25.16.42.45.42.77Z"/>
        <path class="cls-26" d="m19.18,12.14c0,.5-.4.9-.9.9s-.9-.4-.9-.9c0-.32.17-.61.43-.77.02,0,.03-.02.05-.03.13-.07.28-.11.43-.11.5,0,.9.41.9.9Z"/>
        <path class="cls-27" d="m18.18,10.41c0,.31-.16.58-.4.75-.02.02-.05.03-.07.04-.13.07-.28.11-.43.11s-.29-.04-.42-.11c-.03-.02-.05-.03-.08-.05-.24-.16-.4-.44-.4-.75,0-.5.4-.9.9-.9s.9.4.9.9Z"/>
        <g>
          <path class="cls-10" d="m17.99,14.38h-1.42c.06-.04.12-.09.17-.15.4-.41.48-1.08.5-1.41h.07c.02.33.11,1,.5,1.41.05.05.11.11.18.15Z"/>
          <path class="cls-1" d="m19.38,12.14c0-.61-.49-1.1-1.1-1.1-.04,0-.07,0-.11,0,.13-.18.2-.4.2-.63,0-.61-.49-1.1-1.1-1.1s-1.1.49-1.1,1.1c0,.23.07.45.2.63-.04,0-.07,0-.11,0-.61,0-1.1.49-1.1,1.1s.49,1.1,1.1,1.1c.29,0,.56-.12.76-.31-.05.51-.25,1.45-1.14,1.45v.19h2.77v-.19c-.9,0-1.1-.95-1.15-1.45.2.19.47.31.76.31.6,0,1.1-.49,1.1-1.1Zm-3-1.73c0-.5.4-.9.9-.9s.9.4.9.9c0,.31-.16.58-.4.75-.02.02-.05.03-.07.04-.13.07-.28.11-.43.11s-.29-.04-.42-.11c-.03-.02-.05-.03-.08-.05-.24-.16-.4-.44-.4-.75Zm.19,3.97c.06-.04.12-.09.17-.15.4-.41.48-1.08.5-1.41h.07c.02.33.11,1,.5,1.41.05.05.11.11.18.15h-1.42Zm-.29-1.34c-.5,0-.9-.4-.9-.9s.41-.9.9-.9c.16,0,.3.04.43.11.02,0,.03.02.05.03.25.16.42.45.42.77,0,.5-.4.9-.9.9Zm1.1-.9c0-.32.17-.61.43-.77.02,0,.03-.02.05-.03.13-.07.28-.11.43-.11.5,0,.9.41.9.9s-.4.9-.9.9-.9-.4-.9-.9Z"/>
        </g>
      </g>
      <g>
        <path class="cls-39" d="m21.48,17c0-.5.4-.9.9-.9s.9.4.9.9-.41.9-.9.9c-.16,0-.3-.04-.43-.11-.02,0-.03-.02-.05-.03-.25-.16-.42-.45-.42-.77Z"/>
        <path class="cls-40" d="m19.48,17c0-.5.4-.9.9-.9s.9.4.9.9c0,.32-.17.61-.43.77-.02,0-.03.02-.05.03-.13.07-.28.11-.43.11-.5,0-.9-.41-.9-.9Z"/>
        <path class="cls-32" d="m20.48,18.73c0-.31.16-.58.4-.75.02-.02.05-.03.07-.04.13-.07.28-.11.43-.11s.29.04.42.11c.03.02.05.03.08.05.24.16.4.44.4.75,0,.5-.4.9-.9.9s-.9-.4-.9-.9Z"/>
        <g>
          <path class="cls-19" d="m20.67,14.77h1.42c-.06.04-.12.09-.17.15-.4.41-.48,1.08-.5,1.41h-.07c-.02-.33-.11-1-.5-1.41-.05-.05-.11-.11-.18-.15Z"/>
          <path class="cls-1" d="m19.28,17c0,.61.49,1.1,1.1,1.1.04,0,.07,0,.11,0-.13.18-.2.4-.2.63,0,.61.49,1.1,1.1,1.1s1.1-.49,1.1-1.1c0-.23-.07-.45-.2-.63.04,0,.07,0,.11,0,.61,0,1.1-.49,1.1-1.1s-.49-1.1-1.1-1.1c-.29,0-.56.12-.76.31.05-.51.25-1.45,1.14-1.45v-.19h-2.77v.19c.9,0,1.1.95,1.15,1.45-.2-.19-.47-.31-.76-.31-.6,0-1.1.49-1.1,1.1Zm3,1.73c0,.5-.4.9-.9.9s-.9-.4-.9-.9c0-.31.16-.58.4-.75.02-.02.05-.03.07-.04.13-.07.28-.11.43-.11s.29.04.42.11c.03.02.05.03.08.05.24.16.4.44.4.75Zm-.19-3.97c-.06.04-.12.09-.17.15-.4.41-.48,1.08-.5,1.41h-.07c-.02-.33-.11-1-.5-1.41-.05-.05-.11-.11-.18-.15h1.42Zm.29,1.34c.5,0,.9.4.9.9s-.41.9-.9.9c-.16,0-.3-.04-.43-.11-.02,0-.03-.02-.05-.03-.25-.16-.42-.45-.42-.77,0-.5.4-.9.9-.9Zm-1.1.9c0,.32-.17.61-.43.77-.02,0-.03.02-.05.03-.13.07-.28.11-.43.11-.5,0-.9-.41-.9-.9s.4-.9.9-.9.9.4.9.9Z"/>
        </g>
      </g>
      <g>
        <path d="m2.39,7.25l.41-.08c.27-.05.31-.11.31-.66v-2.76c0-.19-.11-.31-.27-.25l-.69.2-.05-.23,1.61-.54.08.04v3.53c0,.54.04.6.3.66l.41.08v.1h-2.11v-.1Z"/>
        <path d="m5.12,5.3c0-1.38.59-2.38,1.52-2.38.86,0,1.4.81,1.4,2.16s-.59,2.36-1.51,2.36c-.86,0-1.41-.8-1.41-2.15Zm2.24.22c0-.94-.21-2.38-.87-2.38-.53,0-.69.76-.69,1.68s.21,2.41.85,2.41c.56,0,.71-.82.71-1.71Z"/>
      </g>
      <g>
        <path d="m28.01,32.26l-.41.08c-.27.05-.31.11-.31.66v2.76c0,.19.11.31.27.25l.69-.2.05.23-1.61.54-.08-.04v-3.53c0-.54-.04-.6-.3-.66l-.41-.08v-.1h2.11v.1Z"/>
        <path d="m25.28,34.21c0,1.38-.59,2.38-1.52,2.38-.86,0-1.4-.81-1.4-2.16s.59-2.36,1.51-2.36c.86,0,1.41.8,1.41,2.15Zm-2.24-.22c0,.94.21,2.38.87,2.38.53,0,.69-.76.69-1.68s-.21-2.41-.85-2.41c-.56,0-.71.82-.71,1.71Z"/>
      </g>
    </g>
  </g>
</svg>