<?xml version="1.0" encoding="UTF-8"?>
<svg id="Laag_2" data-name="Laag 2" xmlns="http://www.w3.org/2000/svg" xmlns:xlink="http://www.w3.org/1999/xlink" viewBox="0 0 30.36 39.67">
  <defs>
    <style>
      .cls-1 {
        fill: #ff3e48;
      }

      .cls-2 {
        fill: url(#Naamloos_verloop_87-6);
      }

      .cls-3 {
        fill: url(#Naamloos_verloop_87-7);
      }

      .cls-4 {
        fill: url(#Naamloos_verloop_87-8);
      }

      .cls-5 {
        fill: url(#Naamloos_verloop_87-9);
      }

      .cls-6 {
        fill: url(#Naamloos_verloop_87-5);
      }

      .cls-7 {
        fill: url(#Naamloos_verloop_87-2);
      }

      .cls-8 {
        fill: url(#Naamloos_verloop_87-3);
      }

      .cls-9 {
        fill: url(#Naamloos_verloop_87-4);
      }

      .cls-10 {
        fill: url(#Naamloos_verloop_257);
        stroke: #fff;
        stroke-miterlimit: 10;
      }

      .cls-11 {
        fill: url(#Naamloos_verloop_87-10);
      }

      .cls-12 {
        fill: url(#Naamloos_verloop_87);
      }
    </style>
    <linearGradient id="Naamloos_verloop_257" data-name="Naamloos verloop 257" x1="15.18" y1="39.17" x2="15.18" y2=".5" gradientUnits="userSpaceOnUse">
      <stop offset="0" stop-color="#f0f0f0"/>
      <stop offset="1" stop-color="#fcfcfc"/>
    </linearGradient>
    <linearGradient id="Naamloos_verloop_87" data-name="Naamloos verloop 87" x1="21.41" y1="13.47" x2="21.41" y2="18.96" gradientUnits="userSpaceOnUse">
      <stop offset="0" stop-color="#ff7078"/>
      <stop offset="1" stop-color="#ff3e48"/>
    </linearGradient>
    <linearGradient id="Naamloos_verloop_87-2" data-name="Naamloos verloop 87" y1="4.13" y2="9.61" xlink:href="#Naamloos_verloop_87"/>
    <linearGradient id="Naamloos_verloop_87-3" data-name="Naamloos verloop 87" x1="17.43" y1="8.58" x2="17.43" y2="14.06" xlink:href="#Naamloos_verloop_87"/>
    <linearGradient id="Naamloos_verloop_87-4" data-name="Naamloos verloop 87" x1="13.27" y1="23.65" x2="13.27" y2="29.13" xlink:href="#Naamloos_verloop_87"/>
    <linearGradient id="Naamloos_verloop_87-5" data-name="Naamloos verloop 87" x1="13.45" x2="13.45" xlink:href="#Naamloos_verloop_87"/>
    <linearGradient id="Naamloos_verloop_87-6" data-name="Naamloos verloop 87" x1="9.29" y1="19.14" x2="9.29" y2="24.62" xlink:href="#Naamloos_verloop_87"/>
    <linearGradient id="Naamloos_verloop_87-7" data-name="Naamloos verloop 87" x1="17.25" y1="19.14" x2="17.25" y2="24.62" xlink:href="#Naamloos_verloop_87"/>
    <linearGradient id="Naamloos_verloop_87-8" data-name="Naamloos verloop 87" x1="9.29" y1="28.49" x2="9.29" y2="33.97" xlink:href="#Naamloos_verloop_87"/>
    <linearGradient id="Naamloos_verloop_87-9" data-name="Naamloos verloop 87" x1="17.25" y1="28.49" x2="17.25" y2="33.97" xlink:href="#Naamloos_verloop_87"/>
    <linearGradient id="Naamloos_verloop_87-10" data-name="Naamloos verloop 87" x1="13.45" y1="4.13" x2="13.45" y2="9.61" xlink:href="#Naamloos_verloop_87"/>
  </defs>
  <g id="Laag_1-2" data-name="Laag 1">
    <g>
      <rect class="cls-10" x=".5" y=".5" width="29.36" height="38.67" rx="2" ry="2"/>
      <g>
        <path class="cls-1" d="m2.39,7.25l.41-.08c.27-.05.31-.11.31-.66v-2.76c0-.19-.11-.31-.27-.25l-.69.2-.05-.23,1.61-.54.08.04v3.53c0,.54.04.6.3.66l.41.08v.1h-2.11v-.1Z"/>
        <path class="cls-1" d="m5.12,5.3c0-1.38.59-2.38,1.52-2.38.86,0,1.4.81,1.4,2.16s-.59,2.36-1.51,2.36c-.86,0-1.41-.8-1.41-2.15Zm2.24.22c0-.94-.21-2.38-.87-2.38-.53,0-.69.76-.69,1.68s.21,2.41.85,2.41c.56,0,.71-.82.71-1.71Z"/>
      </g>
      <g>
        <path class="cls-1" d="m28.01,32.26l-.41.08c-.27.05-.31.11-.31.66v2.76c0,.19.11.31.27.25l.69-.2.05.23-1.61.54-.08-.04v-3.53c0-.54-.04-.6-.3-.66l-.41-.08v-.1h2.11v.1Z"/>
        <path class="cls-1" d="m25.28,34.21c0,1.38-.59,2.38-1.52,2.38-.86,0-1.4-.81-1.4-2.16s.59-2.36,1.51-2.36c.86,0,1.41.8,1.41,2.15Zm-2.24-.22c0,.94.21,2.38.87,2.38.53,0,.69-.76.69-1.68s-.21-2.41-.85-2.41c-.56,0-.71.82-.71,1.71Z"/>
      </g>
      <g>
        <path class="cls-12" d="m21.11,18.8l-1.54-2.38c-.08-.12-.08-.27,0-.39l1.54-2.38c.14-.22.46-.22.6,0l1.54,2.38c.08.12.08.27,0,.39l-1.54,2.38c-.14.22-.46.22-.6,0Z"/>
        <path class="cls-1" d="m21.41,19.05c-.15,0-.29-.08-.38-.21l-1.54-2.38c-.1-.15-.1-.34,0-.49l1.54-2.38c.08-.13.22-.2.38-.2h0c.15,0,.29.08.38.2l1.54,2.38c.1.15.1.34,0,.49l-1.54,2.38c-.08.13-.22.2-.38.21h0Zm-.23-.3c.05.08.13.12.23.12h0c.09,0,.18-.05.23-.12l1.54-2.38c.06-.09.06-.2,0-.29l-1.54-2.38c-.05-.08-.13-.12-.23-.12h0c-.09,0-.18.04-.23.12l-1.54,2.38c-.06.09-.06.2,0,.29l1.54,2.38Z"/>
      </g>
      <g>
        <path class="cls-7" d="m21.11,9.45l-1.54-2.38c-.08-.12-.08-.27,0-.39l1.54-2.38c.14-.22.46-.22.6,0l1.54,2.38c.08.12.08.27,0,.39l-1.54,2.38c-.14.22-.46.22-.6,0Z"/>
        <path class="cls-1" d="m21.41,9.7c-.15,0-.29-.08-.38-.21l-1.54-2.38c-.1-.15-.1-.34,0-.49l1.54-2.38c.08-.13.22-.2.38-.2h0c.15,0,.29.08.38.2l1.54,2.38c.1.15.1.34,0,.49l-1.54,2.38c-.08.13-.22.2-.38.21h0Zm-.23-.3c.05.08.13.12.23.12h0c.09,0,.18-.05.23-.12l1.54-2.38c.06-.09.06-.2,0-.29l-1.54-2.38c-.05-.08-.13-.12-.23-.12h0c-.09,0-.18.04-.23.12l-1.54,2.38c-.06.09-.06.2,0,.29l1.54,2.38Z"/>
      </g>
      <g>
        <path class="cls-8" d="m17.13,13.9l-1.54-2.38c-.08-.12-.08-.27,0-.39l1.54-2.38c.14-.22.46-.22.6,0l1.54,2.38c.08.12.08.27,0,.39l-1.54,2.38c-.14.22-.46.22-.6,0Z"/>
        <path class="cls-1" d="m17.43,14.15c-.15,0-.29-.08-.38-.21l-1.54-2.38c-.1-.15-.1-.34,0-.49l1.54-2.38c.08-.13.22-.2.38-.2h0c.15,0,.29.08.38.2l1.54,2.38c.1.15.1.34,0,.49l-1.54,2.38c-.08.13-.22.2-.38.21h0Zm-.23-.3c.05.08.13.12.23.12h0c.09,0,.18-.05.23-.12l1.54-2.38c.06-.09.06-.2,0-.29l-1.54-2.38c-.05-.08-.13-.12-.23-.12h0c-.09,0-.18.04-.23.12l-1.54,2.38c-.06.09-.06.2,0,.29l1.54,2.38Z"/>
      </g>
      <g>
        <path class="cls-9" d="m12.97,28.97l-1.54-2.38c-.08-.12-.08-.27,0-.39l1.54-2.38c.14-.22.46-.22.6,0l1.54,2.38c.08.12.08.27,0,.39l-1.54,2.38c-.14.22-.46.22-.6,0Z"/>
        <path class="cls-1" d="m13.27,29.22c-.15,0-.29-.08-.38-.21l-1.54-2.38c-.1-.15-.1-.34,0-.49l1.54-2.38c.08-.13.22-.2.38-.2h0c.15,0,.29.08.38.2l1.54,2.38c.1.15.1.34,0,.49l-1.54,2.38c-.08.13-.22.2-.38.21h0Zm-.23-.3c.05.08.13.12.23.12h0c.09,0,.18-.05.23-.12l1.54-2.38c.06-.09.06-.2,0-.29l-1.54-2.38c-.05-.08-.13-.12-.23-.12h0c-.09,0-.18.04-.23.12l-1.54,2.38c-.06.09-.06.2,0,.29l1.54,2.38Z"/>
      </g>
      <g>
        <path class="cls-6" d="m13.15,18.8l-1.54-2.38c-.08-.12-.08-.27,0-.39l1.54-2.38c.14-.22.46-.22.6,0l1.54,2.38c.08.12.08.27,0,.39l-1.54,2.38c-.14.22-.46.22-.6,0Z"/>
        <path class="cls-1" d="m13.45,19.05c-.15,0-.29-.08-.38-.21l-1.54-2.38c-.1-.15-.1-.34,0-.49l1.54-2.38c.08-.13.22-.2.38-.2h0c.15,0,.29.08.38.2l1.54,2.38c.1.15.1.34,0,.49l-1.54,2.38c-.08.13-.22.2-.38.21h0Zm-.23-.3c.05.08.13.12.23.12h0c.09,0,.18-.05.23-.12l1.54-2.38c.06-.09.06-.2,0-.29l-1.54-2.38c-.05-.08-.13-.12-.23-.12h0c-.09,0-.18.04-.23.12l-1.54,2.38c-.06.09-.06.2,0,.29l1.54,2.38Z"/>
      </g>
      <g>
        <path class="cls-2" d="m8.99,24.46l-1.54-2.38c-.08-.12-.08-.27,0-.39l1.54-2.38c.14-.22.46-.22.6,0l1.54,2.38c.08.12.08.27,0,.39l-1.54,2.38c-.14.22-.46.22-.6,0Z"/>
        <path class="cls-1" d="m9.29,24.71c-.15,0-.29-.08-.38-.21l-1.54-2.38c-.1-.15-.1-.34,0-.49l1.54-2.38c.08-.13.22-.2.38-.2h0c.15,0,.29.08.38.2l1.54,2.38c.1.15.1.34,0,.49l-1.54,2.38c-.08.13-.22.2-.38.21h0Zm-.23-.3c.05.08.13.12.23.12h0c.09,0,.18-.05.23-.12l1.54-2.38c.06-.09.06-.2,0-.29l-1.54-2.38c-.05-.08-.13-.12-.23-.12h0c-.09,0-.18.04-.23.12l-1.54,2.38c-.06.09-.06.2,0,.29l1.54,2.38Z"/>
      </g>
      <g>
        <path class="cls-3" d="m16.95,24.46l-1.54-2.38c-.08-.12-.08-.27,0-.39l1.54-2.38c.14-.22.46-.22.6,0l1.54,2.38c.08.12.08.27,0,.39l-1.54,2.38c-.14.22-.46.22-.6,0Z"/>
        <path class="cls-1" d="m17.25,24.71c-.15,0-.29-.08-.38-.21l-1.54-2.38c-.1-.15-.1-.34,0-.49l1.54-2.38c.08-.13.22-.2.38-.2h0c.15,0,.29.08.38.2l1.54,2.38c.1.15.1.34,0,.49l-1.54,2.38c-.08.13-.22.2-.38.21h0Zm-.23-.3c.05.08.13.12.23.12h0c.09,0,.18-.05.23-.12l1.54-2.38c.06-.09.06-.2,0-.29l-1.54-2.38c-.05-.08-.13-.12-.23-.12h0c-.09,0-.18.04-.23.12l-1.54,2.38c-.06.09-.06.2,0,.29l1.54,2.38Z"/>
      </g>
      <g>
        <path class="cls-4" d="m8.99,33.81l-1.54-2.38c-.08-.12-.08-.27,0-.39l1.54-2.38c.14-.22.46-.22.6,0l1.54,2.38c.08.12.08.27,0,.39l-1.54,2.38c-.14.22-.46.22-.6,0Z"/>
        <path class="cls-1" d="m9.29,34.06c-.15,0-.29-.08-.38-.21l-1.54-2.38c-.1-.15-.1-.34,0-.49l1.54-2.38c.08-.13.22-.2.38-.2h0c.15,0,.29.08.38.2l1.54,2.38c.1.15.1.34,0,.49l-1.54,2.38c-.08.13-.22.2-.38.21h0Zm-.23-.3c.05.08.13.12.23.12h0c.09,0,.18-.05.23-.12l1.54-2.38c.06-.09.06-.2,0-.29l-1.54-2.38c-.05-.08-.13-.12-.23-.12h0c-.09,0-.18.04-.23.12l-1.54,2.38c-.06.09-.06.2,0,.29l1.54,2.38Z"/>
      </g>
      <g>
        <path class="cls-5" d="m16.95,33.81l-1.54-2.38c-.08-.12-.08-.27,0-.39l1.54-2.38c.14-.22.46-.22.6,0l1.54,2.38c.08.12.08.27,0,.39l-1.54,2.38c-.14.22-.46.22-.6,0Z"/>
        <path class="cls-1" d="m17.25,34.06c-.15,0-.29-.08-.38-.21l-1.54-2.38c-.1-.15-.1-.34,0-.49l1.54-2.38c.08-.13.22-.2.38-.2h0c.15,0,.29.08.38.2l1.54,2.38c.1.15.1.34,0,.49l-1.54,2.38c-.08.13-.22.2-.38.21h0Zm-.23-.3c.05.08.13.12.23.12h0c.09,0,.18-.05.23-.12l1.54-2.38c.06-.09.06-.2,0-.29l-1.54-2.38c-.05-.08-.13-.12-.23-.12h0c-.09,0-.18.04-.23.12l-1.54,2.38c-.06.09-.06.2,0,.29l1.54,2.38Z"/>
      </g>
      <g>
        <path class="cls-11" d="m13.15,9.45l-1.54-2.38c-.08-.12-.08-.27,0-.39l1.54-2.38c.14-.22.46-.22.6,0l1.54,2.38c.08.12.08.27,0,.39l-1.54,2.38c-.14.22-.46.22-.6,0Z"/>
        <path class="cls-1" d="m13.45,9.7c-.15,0-.29-.08-.38-.21l-1.54-2.38c-.1-.15-.1-.34,0-.49l1.54-2.38c.08-.13.22-.2.38-.2h0c.15,0,.29.08.38.2l1.54,2.38c.1.15.1.34,0,.49l-1.54,2.38c-.08.13-.22.2-.38.21h0Zm-.23-.3c.05.08.13.12.23.12h0c.09,0,.18-.05.23-.12l1.54-2.38c.06-.09.06-.2,0-.29l-1.54-2.38c-.05-.08-.13-.12-.23-.12h0c-.09,0-.18.04-.23.12l-1.54,2.38c-.06.09-.06.2,0,.29l1.54,2.38Z"/>
      </g>
    </g>
  </g>
</svg>