<?xml version="1.0" encoding="UTF-8"?>
<svg id="Laag_2" data-name="Laag 2" xmlns="http://www.w3.org/2000/svg" xmlns:xlink="http://www.w3.org/1999/xlink" viewBox="0 0 30.36 39.67">
  <defs>
    <style>
      .cls-1 {
        fill: #1a1a1a;
      }

      .cls-2 {
        fill: url(#Naamloos_verloop_81-6);
      }

      .cls-3 {
        fill: url(#Naamloos_verloop_81-7);
      }

      .cls-4 {
        fill: url(#Naamloos_verloop_81-5);
      }

      .cls-5 {
        fill: url(#Naamloos_verloop_81-3);
      }

      .cls-6 {
        fill: url(#Naamloos_verloop_81-4);
      }

      .cls-7 {
        fill: url(#Naamloos_verloop_81-2);
      }

      .cls-8 {
        fill: url(#Naamloos_verloop_81-9);
      }

      .cls-9 {
        fill: url(#Naamloos_verloop_81-8);
      }

      .cls-10 {
        fill: url(#Naamloos_verloop_85-9);
      }

      .cls-11 {
        fill: url(#Naamloos_verloop_85-8);
      }

      .cls-12 {
        fill: url(#Naamloos_verloop_85-7);
      }

      .cls-13 {
        fill: url(#Naamloos_verloop_85-5);
      }

      .cls-14 {
        fill: url(#Naamloos_verloop_85-2);
      }

      .cls-15 {
        fill: url(#Naamloos_verloop_85-4);
      }

      .cls-16 {
        fill: url(#Naamloos_verloop_85-6);
      }

      .cls-17 {
        fill: url(#Naamloos_verloop_85-3);
      }

      .cls-18 {
        fill: url(#Naamloos_verloop_257);
        stroke: #fff;
        stroke-miterlimit: 10;
      }

      .cls-19 {
        fill: url(#Naamloos_verloop_85-10);
      }

      .cls-20 {
        fill: url(#Naamloos_verloop_81-10);
      }

      .cls-21 {
        fill: url(#Naamloos_verloop_85);
      }

      .cls-22 {
        fill: url(#Naamloos_verloop_81);
      }
    </style>
    <linearGradient id="Naamloos_verloop_257" data-name="Naamloos verloop 257" x1="15.18" y1="39.17" x2="15.18" y2=".5" gradientUnits="userSpaceOnUse">
      <stop offset="0" stop-color="#f0f0f0"/>
      <stop offset="1" stop-color="#fcfcfc"/>
    </linearGradient>
    <linearGradient id="Naamloos_verloop_81" data-name="Naamloos verloop 81" x1="8.51" y1="19.97" x2="8.51" y2="23.4" gradientUnits="userSpaceOnUse">
      <stop offset="0" stop-color="#333"/>
      <stop offset="1" stop-color="#1a1a1a"/>
    </linearGradient>
    <linearGradient id="Naamloos_verloop_85" data-name="Naamloos verloop 85" x1="8.51" y1="24.76" x2="8.51" y2="23.2" gradientUnits="userSpaceOnUse">
      <stop offset="0" stop-color="#333"/>
      <stop offset="1" stop-color="#1a1a1a"/>
    </linearGradient>
    <linearGradient id="Naamloos_verloop_81-2" data-name="Naamloos verloop 81" x1="12.96" y1="25.24" x2="12.96" y2="28.66" xlink:href="#Naamloos_verloop_81"/>
    <linearGradient id="Naamloos_verloop_85-2" data-name="Naamloos verloop 85" x1="12.96" y1="30.02" x2="12.96" y2="28.46" xlink:href="#Naamloos_verloop_85"/>
    <linearGradient id="Naamloos_verloop_81-3" data-name="Naamloos verloop 81" x1="-634.69" y1="16.52" x2="-634.69" y2="19.95" gradientTransform="translate(-626.18 51.73) rotate(-180)" xlink:href="#Naamloos_verloop_81"/>
    <linearGradient id="Naamloos_verloop_85-3" data-name="Naamloos verloop 85" x1="-634.69" y1="21.31" x2="-634.69" y2="19.75" gradientTransform="translate(-626.18 51.73) rotate(-180)" xlink:href="#Naamloos_verloop_85"/>
    <linearGradient id="Naamloos_verloop_81-4" data-name="Naamloos verloop 81" x1="17.41" x2="17.41" xlink:href="#Naamloos_verloop_81"/>
    <linearGradient id="Naamloos_verloop_85-4" data-name="Naamloos verloop 85" x1="17.41" x2="17.41" xlink:href="#Naamloos_verloop_85"/>
    <linearGradient id="Naamloos_verloop_81-5" data-name="Naamloos verloop 81" x1="-643.58" y1="16.52" x2="-643.58" y2="19.95" gradientTransform="translate(-626.18 51.73) rotate(-180)" xlink:href="#Naamloos_verloop_81"/>
    <linearGradient id="Naamloos_verloop_85-5" data-name="Naamloos verloop 85" x1="-643.58" y1="21.31" x2="-643.58" y2="19.75" gradientTransform="translate(-626.18 51.73) rotate(-180)" xlink:href="#Naamloos_verloop_85"/>
    <linearGradient id="Naamloos_verloop_81-6" data-name="Naamloos verloop 81" x1="12.96" y1="4.47" x2="12.96" y2="7.89" xlink:href="#Naamloos_verloop_81"/>
    <linearGradient id="Naamloos_verloop_85-6" data-name="Naamloos verloop 85" x1="12.96" y1="9.25" x2="12.96" y2="7.69" xlink:href="#Naamloos_verloop_85"/>
    <linearGradient id="Naamloos_verloop_81-7" data-name="Naamloos verloop 81" x1="17.41" y1="9.73" x2="17.41" y2="13.15" xlink:href="#Naamloos_verloop_81"/>
    <linearGradient id="Naamloos_verloop_85-7" data-name="Naamloos verloop 85" x1="17.41" y1="14.52" x2="17.41" y2="12.96" xlink:href="#Naamloos_verloop_85"/>
    <linearGradient id="Naamloos_verloop_81-8" data-name="Naamloos verloop 81" x1="-639.13" y1="32.03" x2="-639.13" y2="35.45" gradientTransform="translate(-626.18 51.73) rotate(-180)" xlink:href="#Naamloos_verloop_81"/>
    <linearGradient id="Naamloos_verloop_85-8" data-name="Naamloos verloop 85" x1="-639.13" y1="36.82" x2="-639.13" y2="35.26" gradientTransform="translate(-626.18 51.73) rotate(-180)" xlink:href="#Naamloos_verloop_85"/>
    <linearGradient id="Naamloos_verloop_81-9" data-name="Naamloos verloop 81" x1="21.86" y1="4.47" x2="21.86" y2="7.89" xlink:href="#Naamloos_verloop_81"/>
    <linearGradient id="Naamloos_verloop_85-9" data-name="Naamloos verloop 85" x1="21.86" y1="9.25" x2="21.86" y2="7.69" xlink:href="#Naamloos_verloop_85"/>
    <linearGradient id="Naamloos_verloop_81-10" data-name="Naamloos verloop 81" x1="-648.03" y1="32.03" x2="-648.03" y2="35.45" gradientTransform="translate(-626.18 51.73) rotate(-180)" xlink:href="#Naamloos_verloop_81"/>
    <linearGradient id="Naamloos_verloop_85-10" data-name="Naamloos verloop 85" x1="-648.03" y1="36.82" x2="-648.03" y2="35.26" gradientTransform="translate(-626.18 51.73) rotate(-180)" xlink:href="#Naamloos_verloop_85"/>
  </defs>
  <g id="Laag_1-2" data-name="Laag 1">
    <g>
      <rect class="cls-18" x=".5" y=".5" width="29.36" height="38.67" rx="2" ry="2"/>
      <g>
        <path class="cls-22" d="m10.25,23.11c-.18.19-.43.29-.7.29s-.51-.1-.69-.29l-.35-.35-.34.35c-.19.19-.43.29-.7.29s-.51-.1-.7-.29c-.38-.38-.38-1.01,0-1.39,0,0,.02-.02.04-.04l1.7-1.7,1.74,1.74c.38.38.38,1.01,0,1.39Z"/>
        <g>
          <path class="cls-21" d="m9.22,24.76h-1.43c.06-.04.12-.09.18-.15.4-.41.48-1.08.5-1.41h.07c.02.33.11,1,.5,1.41.05.05.11.11.18.15Z"/>
          <path class="cls-1" d="m10.39,23.25c.46-.46.46-1.21,0-1.67l-1.88-1.88-1.83,1.83s-.04.03-.05.05c-.23.23-.35.53-.35.83s.12.61.35.83c.22.22.52.35.83.35s.58-.11.8-.32c-.04.49-.23,1.49-1.15,1.49v.19h2.77v-.19c-.92,0-1.11-1-1.15-1.49.22.2.51.32.81.32.32,0,.62-.13.83-.35Zm-2.59,1.52c.06-.04.12-.09.18-.15.4-.41.48-1.08.5-1.41h.07c.02.33.11,1,.5,1.41.05.05.11.11.18.15h-1.43Zm.71-2l-.34.35c-.19.19-.43.29-.7.29s-.51-.1-.7-.29c-.38-.38-.38-1.01,0-1.39,0,0,.02-.02.04-.04l1.7-1.7,1.74,1.74c.38.38.38,1.01,0,1.39-.18.19-.43.29-.7.29s-.51-.1-.69-.29l-.35-.35Z"/>
        </g>
      </g>
      <g>
        <path class="cls-7" d="m14.7,28.37c-.18.19-.43.29-.7.29s-.51-.1-.69-.29l-.35-.35-.34.35c-.19.19-.43.29-.7.29s-.51-.1-.7-.29c-.38-.38-.38-1.01,0-1.39,0,0,.02-.02.04-.04l1.7-1.7,1.74,1.74c.38.38.38,1.01,0,1.39Z"/>
        <g>
          <path class="cls-14" d="m13.67,30.02h-1.43c.06-.04.12-.09.18-.15.4-.41.48-1.08.5-1.41h.07c.02.33.11,1,.5,1.41.05.05.11.11.18.15Z"/>
          <path class="cls-1" d="m14.84,28.51c.46-.46.46-1.21,0-1.67l-1.88-1.88-1.83,1.83s-.04.03-.05.05c-.23.23-.35.53-.35.83s.12.61.35.83c.22.22.52.35.83.35s.58-.11.8-.32c-.04.49-.23,1.49-1.15,1.49v.19h2.77v-.19c-.92,0-1.11-1-1.15-1.49.22.2.51.32.81.32.32,0,.62-.13.83-.35Zm-2.59,1.52c.06-.04.12-.09.18-.15.4-.41.48-1.08.5-1.41h.07c.02.33.11,1,.5,1.41.05.05.11.11.18.15h-1.43Zm.71-2l-.34.35c-.19.19-.43.29-.7.29s-.51-.1-.7-.29c-.38-.38-.38-1.01,0-1.39,0,0,.02-.02.04-.04l1.7-1.7,1.74,1.74c.38.38.38,1.01,0,1.39-.18.19-.43.29-.7.29s-.51-.1-.69-.29l-.35-.35Z"/>
        </g>
      </g>
      <g>
        <path class="cls-5" d="m6.77,32.07c.18-.19.43-.29.7-.29s.51.1.69.29l.35.35.34-.35c.19-.19.43-.29.7-.29s.51.1.7.29c.38.38.38,1.01,0,1.39,0,0-.02.02-.04.04l-1.7,1.7-1.74-1.74c-.38-.38-.38-1.01,0-1.39Z"/>
        <g>
          <path class="cls-17" d="m7.79,30.42h1.43c-.06.04-.12.09-.18.15-.4.41-.48,1.08-.5,1.41h-.07c-.02-.33-.11-1-.5-1.41-.05-.05-.11-.11-.18-.15Z"/>
          <path class="cls-1" d="m6.63,31.93c-.46.46-.46,1.21,0,1.67l1.88,1.88,1.83-1.83s.04-.03.05-.05c.23-.23.35-.53.35-.83s-.12-.61-.35-.83c-.22-.22-.52-.35-.83-.35s-.58.11-.8.32c.04-.49.23-1.49,1.15-1.49v-.19h-2.77v.19c.92,0,1.11,1,1.15,1.49-.22-.2-.51-.32-.81-.32-.32,0-.62.13-.83.35Zm2.59-1.52c-.06.04-.12.09-.18.15-.4.41-.48,1.08-.5,1.41h-.07c-.02-.33-.11-1-.5-1.41-.05-.05-.11-.11-.18-.15h1.43Zm-.71,2l.34-.35c.19-.19.43-.29.7-.29s.51.1.7.29c.38.38.38,1.01,0,1.39,0,0-.02.02-.04.04l-1.7,1.7-1.74-1.74c-.38-.38-.38-1.01,0-1.39.18-.19.43-.29.7-.29s.51.1.69.29l.35.35Z"/>
        </g>
      </g>
      <g>
        <path class="cls-6" d="m19.15,23.11c-.18.19-.43.29-.7.29s-.51-.1-.69-.29l-.35-.35-.34.35c-.19.19-.43.29-.7.29s-.51-.1-.7-.29c-.38-.38-.38-1.01,0-1.39,0,0,.02-.02.04-.04l1.7-1.7,1.74,1.74c.38.38.38,1.01,0,1.39Z"/>
        <g>
          <path class="cls-15" d="m18.12,24.76h-1.43c.06-.04.12-.09.18-.15.4-.41.48-1.08.5-1.41h.07c.02.33.11,1,.5,1.41.05.05.11.11.18.15Z"/>
          <path class="cls-1" d="m19.28,23.25c.46-.46.46-1.21,0-1.67l-1.88-1.88-1.83,1.83s-.04.03-.05.05c-.23.23-.35.53-.35.83s.12.61.35.83c.22.22.52.35.83.35s.58-.11.8-.32c-.04.49-.23,1.49-1.15,1.49v.19h2.77v-.19c-.92,0-1.11-1-1.15-1.49.22.2.51.32.81.32.32,0,.62-.13.83-.35Zm-2.59,1.52c.06-.04.12-.09.18-.15.4-.41.48-1.08.5-1.41h.07c.02.33.11,1,.5,1.41.05.05.11.11.18.15h-1.43Zm.71-2l-.34.35c-.19.19-.43.29-.7.29s-.51-.1-.7-.29c-.38-.38-.38-1.01,0-1.39,0,0,.02-.02.04-.04l1.7-1.7,1.74,1.74c.38.38.38,1.01,0,1.39-.18.19-.43.29-.7.29s-.51-.1-.69-.29l-.35-.35Z"/>
        </g>
      </g>
      <g>
        <path class="cls-4" d="m15.67,32.07c.18-.19.43-.29.7-.29s.51.1.69.29l.35.35.34-.35c.19-.19.43-.29.7-.29s.51.1.7.29c.38.38.38,1.01,0,1.39,0,0-.02.02-.04.04l-1.7,1.7-1.74-1.74c-.38-.38-.38-1.01,0-1.39Z"/>
        <g>
          <path class="cls-13" d="m16.69,30.42h1.43c-.06.04-.12.09-.18.15-.4.41-.48,1.08-.5,1.41h-.07c-.02-.33-.11-1-.5-1.41-.05-.05-.11-.11-.18-.15Z"/>
          <path class="cls-1" d="m15.53,31.93c-.46.46-.46,1.21,0,1.67l1.88,1.88,1.83-1.83s.04-.03.05-.05c.23-.23.35-.53.35-.83s-.12-.61-.35-.83c-.22-.22-.52-.35-.83-.35s-.58.11-.8.32c.04-.49.23-1.49,1.15-1.49v-.19h-2.77v.19c.92,0,1.11,1,1.15,1.49-.22-.2-.51-.32-.81-.32-.32,0-.62.13-.83.35Zm2.59-1.52c-.06.04-.12.09-.18.15-.4.41-.48,1.08-.5,1.41h-.07c-.02-.33-.11-1-.5-1.41-.05-.05-.11-.11-.18-.15h1.43Zm-.71,2l.34-.35c.19-.19.43-.29.7-.29s.51.1.7.29c.38.38.38,1.01,0,1.39,0,0-.02.02-.04.04l-1.7,1.7-1.74-1.74c-.38-.38-.38-1.01,0-1.39.18-.19.43-.29.7-.29s.51.1.69.29l.35.35Z"/>
        </g>
      </g>
      <g>
        <path class="cls-2" d="m14.7,7.6c-.18.19-.43.29-.7.29s-.51-.1-.69-.29l-.35-.35-.34.35c-.19.19-.43.29-.7.29s-.51-.1-.7-.29c-.38-.38-.38-1.01,0-1.39,0,0,.02-.02.04-.04l1.7-1.7,1.74,1.74c.38.38.38,1.01,0,1.39Z"/>
        <g>
          <path class="cls-16" d="m13.67,9.25h-1.43c.06-.04.12-.09.18-.15.4-.41.48-1.08.5-1.41h.07c.02.33.11,1,.5,1.41.05.05.11.11.18.15Z"/>
          <path class="cls-1" d="m14.83,7.74c.46-.46.46-1.21,0-1.67l-1.88-1.88-1.83,1.83s-.04.03-.05.05c-.23.23-.35.53-.35.83s.12.61.35.83c.22.22.52.35.83.35s.58-.11.8-.32c-.04.49-.23,1.49-1.15,1.49v.19h2.77v-.19c-.92,0-1.11-1-1.15-1.49.22.2.51.32.81.32.32,0,.62-.13.83-.35Zm-2.59,1.52c.06-.04.12-.09.18-.15.4-.41.48-1.08.5-1.41h.07c.02.33.11,1,.5,1.41.05.05.11.11.18.15h-1.43Zm.71-2l-.34.35c-.19.19-.43.29-.7.29s-.51-.1-.7-.29c-.38-.38-.38-1.01,0-1.39,0,0,.02-.02.04-.04l1.7-1.7,1.74,1.74c.38.38.38,1.01,0,1.39-.18.19-.43.29-.7.29s-.51-.1-.69-.29l-.35-.35Z"/>
        </g>
      </g>
      <g>
        <path class="cls-3" d="m19.15,12.86c-.18.19-.43.29-.7.29s-.51-.1-.69-.29l-.35-.35-.34.35c-.19.19-.43.29-.7.29s-.51-.1-.7-.29c-.38-.38-.38-1.01,0-1.39,0,0,.02-.02.04-.04l1.7-1.7,1.74,1.74c.38.38.38,1.01,0,1.39Z"/>
        <g>
          <path class="cls-12" d="m18.12,14.52h-1.43c.06-.04.12-.09.18-.15.4-.41.48-1.08.5-1.41h.07c.02.33.11,1,.5,1.41.05.05.11.11.18.15Z"/>
          <path class="cls-1" d="m19.28,13c.46-.46.46-1.21,0-1.67l-1.88-1.88-1.83,1.83s-.04.03-.05.05c-.23.23-.35.53-.35.83s.12.61.35.83c.22.22.52.35.83.35s.58-.11.8-.32c-.04.49-.23,1.49-1.15,1.49v.19h2.77v-.19c-.92,0-1.11-1-1.15-1.49.22.2.51.32.81.32.32,0,.62-.13.83-.35Zm-2.59,1.52c.06-.04.12-.09.18-.15.4-.41.48-1.08.5-1.41h.07c.02.33.11,1,.5,1.41.05.05.11.11.18.15h-1.43Zm.71-2l-.34.35c-.19.19-.43.29-.7.29s-.51-.1-.7-.29c-.38-.38-.38-1.01,0-1.39,0,0,.02-.02.04-.04l1.7-1.7,1.74,1.74c.38.38.38,1.01,0,1.39-.18.19-.43.29-.7.29s-.51-.1-.69-.29l-.35-.35Z"/>
        </g>
      </g>
      <g>
        <path class="cls-9" d="m11.22,16.56c.18-.19.43-.29.7-.29s.51.1.69.29l.35.35.34-.35c.19-.19.43-.29.7-.29s.51.1.7.29c.38.38.38,1.01,0,1.39,0,0-.02.02-.04.04l-1.7,1.7-1.74-1.74c-.38-.38-.38-1.01,0-1.39Z"/>
        <g>
          <path class="cls-11" d="m12.24,14.91h1.43c-.06.04-.12.09-.18.15-.4.41-.48,1.08-.5,1.41h-.07c-.02-.33-.11-1-.5-1.41-.05-.05-.11-.11-.18-.15Z"/>
          <path class="cls-1" d="m11.08,16.42c-.46.46-.46,1.21,0,1.67l1.88,1.88,1.83-1.83s.04-.03.05-.05c.23-.23.35-.53.35-.83s-.12-.61-.35-.83c-.22-.22-.52-.35-.83-.35s-.58.11-.8.32c.04-.49.23-1.49,1.15-1.49v-.19h-2.77v.19c.92,0,1.11,1,1.15,1.49-.22-.2-.51-.32-.81-.32-.32,0-.62.13-.83.35Zm2.59-1.52c-.06.04-.12.09-.18.15-.4.41-.48,1.08-.5,1.41h-.07c-.02-.33-.11-1-.5-1.41-.05-.05-.11-.11-.18-.15h1.43Zm-.71,2l.34-.35c.19-.19.43-.29.7-.29s.51.1.7.29c.38.38.38,1.01,0,1.39,0,0-.02.02-.04.04l-1.7,1.7-1.74-1.74c-.38-.38-.38-1.01,0-1.39.18-.19.43-.29.7-.29s.51.1.69.29l.35.35Z"/>
        </g>
      </g>
      <g>
        <path class="cls-8" d="m23.6,7.6c-.18.19-.43.29-.7.29s-.51-.1-.69-.29l-.35-.35-.34.35c-.19.19-.43.29-.7.29s-.51-.1-.7-.29c-.38-.38-.38-1.01,0-1.39,0,0,.02-.02.04-.04l1.7-1.7,1.74,1.74c.38.38.38,1.01,0,1.39Z"/>
        <g>
          <path class="cls-10" d="m22.57,9.25h-1.43c.06-.04.12-.09.18-.15.4-.41.48-1.08.5-1.41h.07c.02.33.11,1,.5,1.41.05.05.11.11.18.15Z"/>
          <path class="cls-1" d="m23.73,7.74c.46-.46.46-1.21,0-1.67l-1.88-1.88-1.83,1.83s-.04.03-.05.05c-.23.23-.35.53-.35.83s.12.61.35.83c.22.22.52.35.83.35s.58-.11.8-.32c-.04.49-.23,1.49-1.15,1.49v.19h2.77v-.19c-.92,0-1.11-1-1.15-1.49.22.2.51.32.81.32.32,0,.62-.13.83-.35Zm-2.59,1.52c.06-.04.12-.09.18-.15.4-.41.48-1.08.5-1.41h.07c.02.33.11,1,.5,1.41.05.05.11.11.18.15h-1.43Zm.71-2l-.34.35c-.19.19-.43.29-.7.29s-.51-.1-.7-.29c-.38-.38-.38-1.01,0-1.39,0,0,.02-.02.04-.04l1.7-1.7,1.74,1.74c.38.38.38,1.01,0,1.39-.18.19-.43.29-.7.29s-.51-.1-.69-.29l-.35-.35Z"/>
        </g>
      </g>
      <g>
        <path class="cls-20" d="m20.11,16.56c.18-.19.43-.29.7-.29s.51.1.69.29l.35.35.34-.35c.19-.19.43-.29.7-.29s.51.1.7.29c.38.38.38,1.01,0,1.39,0,0-.02.02-.04.04l-1.7,1.7-1.74-1.74c-.38-.38-.38-1.01,0-1.39Z"/>
        <g>
          <path class="cls-19" d="m21.14,14.91h1.43c-.06.04-.12.09-.18.15-.4.41-.48,1.08-.5,1.41h-.07c-.02-.33-.11-1-.5-1.41-.05-.05-.11-.11-.18-.15Z"/>
          <path class="cls-1" d="m19.98,16.42c-.46.46-.46,1.21,0,1.67l1.88,1.88,1.83-1.83s.04-.03.05-.05c.23-.23.35-.53.35-.83s-.12-.61-.35-.83c-.22-.22-.52-.35-.83-.35s-.58.11-.8.32c.04-.49.23-1.49,1.15-1.49v-.19h-2.77v.19c.92,0,1.11,1,1.15,1.49-.22-.2-.51-.32-.81-.32-.32,0-.62.13-.83.35Zm2.59-1.52c-.06.04-.12.09-.18.15-.4.41-.48,1.08-.5,1.41h-.07c-.02-.33-.11-1-.5-1.41-.05-.05-.11-.11-.18-.15h1.43Zm-.71,2l.34-.35c.19-.19.43-.29.7-.29s.51.1.7.29c.38.38.38,1.01,0,1.39,0,0-.02.02-.04.04l-1.7,1.7-1.74-1.74c-.38-.38-.38-1.01,0-1.39.18-.19.43-.29.7-.29s.51.1.69.29l.35.35Z"/>
        </g>
      </g>
      <g>
        <path d="m2.39,7.25l.41-.08c.27-.05.31-.11.31-.66v-2.76c0-.19-.11-.31-.27-.25l-.69.2-.05-.23,1.61-.54.08.04v3.53c0,.54.04.6.3.66l.41.08v.1h-2.11v-.1Z"/>
        <path d="m5.12,5.3c0-1.38.59-2.38,1.52-2.38.86,0,1.4.81,1.4,2.16s-.59,2.36-1.51,2.36c-.86,0-1.41-.8-1.41-2.15Zm2.24.22c0-.94-.21-2.38-.87-2.38-.53,0-.69.76-.69,1.68s.21,2.41.85,2.41c.56,0,.71-.82.71-1.71Z"/>
      </g>
      <g>
        <path d="m28.01,32.26l-.41.08c-.27.05-.31.11-.31.66v2.76c0,.19.11.31.27.25l.69-.2.05.23-1.61.54-.08-.04v-3.53c0-.54-.04-.6-.3-.66l-.41-.08v-.1h2.11v.1Z"/>
        <path d="m25.28,34.21c0,1.38-.59,2.38-1.52,2.38-.86,0-1.4-.81-1.4-2.16s.59-2.36,1.51-2.36c.86,0,1.41.8,1.41,2.15Zm-2.24-.22c0,.94.21,2.38.87,2.38.53,0,.69-.76.69-1.68s-.21-2.41-.85-2.41c-.56,0-.71.82-.71,1.71Z"/>
      </g>
    </g>
  </g>
</svg>