<?xml version="1.0" encoding="UTF-8"?>
<svg id="Laag_2" data-name="Laag 2" xmlns="http://www.w3.org/2000/svg" xmlns:xlink="http://www.w3.org/1999/xlink" viewBox="0 0 30.36 39.67">
  <defs>
    <style>
      .cls-1 {
        fill: #ff3e48;
      }

      .cls-2 {
        fill: url(#Naamloos_verloop_65-2);
      }

      .cls-3 {
        fill: url(#Naamloos_verloop_257);
        stroke: #fff;
        stroke-miterlimit: 10;
      }

      .cls-4 {
        fill: url(#Naamloos_verloop_65);
      }
    </style>
    <linearGradient id="Naamloos_verloop_257" data-name="Naamloos verloop 257" x1="15.18" y1="39.17" x2="15.18" y2=".5" gradientUnits="userSpaceOnUse">
      <stop offset="0" stop-color="#f0f0f0"/>
      <stop offset="1" stop-color="#fcfcfc"/>
    </linearGradient>
    <linearGradient id="Naamloos_verloop_65" data-name="Naamloos verloop 65" x1="15.18" y1="12.05" x2="15.18" y2="17.05" gradientUnits="userSpaceOnUse">
      <stop offset="0" stop-color="#ff7078"/>
      <stop offset="1" stop-color="#ff3e48"/>
    </linearGradient>
    <linearGradient id="Naamloos_verloop_65-2" data-name="Naamloos verloop 65" x1="14.11" y1="18.92" x2="14.11" y2="23.91" gradientTransform="translate(29.29 46.53) rotate(-180)" xlink:href="#Naamloos_verloop_65"/>
  </defs>
  <g id="Laag_1-2" data-name="Laag 1">
    <g>
      <rect class="cls-3" x=".5" y=".5" width="29.36" height="38.67" rx="2" ry="2"/>
      <g>
        <path class="cls-4" d="m17.65,12.49c-.58-.58-1.52-.58-2.09,0l-.38.38-.38-.38c-.58-.58-1.51-.58-2.09,0-.58.58-.58,1.51,0,2.09l.38.38,2.09,2.09.32-.32.03-.03,1.74-1.74.33-.33s.04-.03.06-.05c.58-.58.58-1.52,0-2.09Z"/>
        <path class="cls-1" d="m15.18,17.2l-2.55-2.55c-.62-.62-.62-1.63,0-2.25.3-.3.7-.47,1.12-.47h0c.42,0,.82.17,1.12.47l.3.3.3-.3c.3-.3.7-.47,1.12-.47h0c.42,0,.82.17,1.12.47h0c.62.62.62,1.63,0,2.25-.02.02-.04.04-.07.06l-2.48,2.49Zm-1.42-5.04h0c-.37,0-.71.14-.97.4-.53.53-.53,1.4,0,1.94l2.39,2.39,2.34-2.34s.04-.04.06-.05c.53-.54.53-1.41,0-1.94h0c-.26-.26-.6-.4-.97-.4h0c-.37,0-.71.14-.97.4l-.46.46-.46-.46c-.26-.26-.6-.4-.97-.4Z"/>
      </g>
      <g>
        <path class="cls-2" d="m12.71,27.18c.58.58,1.52.58,2.09,0l.38-.38.38.38c.58.58,1.51.58,2.09,0,.58-.58.58-1.51,0-2.09l-.38-.38-2.09-2.09-.32.32-.03.03-1.74,1.74-.33.33s-.04.03-.06.05c-.58.58-.58,1.52,0,2.09Z"/>
        <path class="cls-1" d="m15.18,22.47l2.55,2.55c.62.62.62,1.63,0,2.25-.3.3-.7.47-1.12.47h0c-.42,0-.82-.17-1.12-.47l-.3-.3-.3.3c-.3.3-.7.47-1.12.47h0c-.42,0-.82-.17-1.12-.47h0c-.62-.62-.62-1.63,0-2.25.02-.02.04-.04.07-.06l2.48-2.49Zm1.42,5.04h0c.37,0,.71-.14.97-.4.53-.53.53-1.4,0-1.94l-2.39-2.39-2.34,2.34s-.04.04-.06.05c-.53.54-.53,1.41,0,1.94h0c.26.26.6.4.97.4h0c.37,0,.71-.14.97-.4l.46-.46.46.46c.26.26.6.4.97.4Z"/>
      </g>
      <path class="cls-1" d="m3.67,8.36v-.43c.34-.26,1.03-.9,1.4-1.3.46-.5,1-1.09,1-1.97,0-.68-.48-1.19-1.16-1.19-.46,0-.8.18-1.09.5l-.15-.14c.44-.64.95-.99,1.66-.99.84,0,1.59.64,1.59,1.58,0,.86-.7,1.58-1.11,1.99-.35.36-1.14,1.11-1.42,1.35h1.61c.82,0,1.08-.12,1.22-.46l.1-.22.14.04-.27,1.25h-3.53Z"/>
      <path class="cls-1" d="m26.37,31.03v.43c-.34.26-1.03.9-1.4,1.3-.46.5-1,1.09-1,1.97,0,.68.48,1.19,1.16,1.19.46,0,.8-.18,1.09-.5l.15.14c-.44.64-.95.99-1.66.99-.84,0-1.59-.64-1.59-1.58,0-.86.7-1.58,1.11-1.99.35-.36,1.14-1.11,1.42-1.35h-1.61c-.82,0-1.08.12-1.22.46l-.1.22-.14-.04.27-1.25h3.53Z"/>
    </g>
  </g>
</svg>