<?xml version="1.0" encoding="UTF-8"?>
<svg id="Laag_2" data-name="Laag 2" xmlns="http://www.w3.org/2000/svg" xmlns:xlink="http://www.w3.org/1999/xlink" viewBox="0 0 30.36 39.67">
  <defs>
    <style>
      .cls-1 {
        fill: #1a1a1a;
      }

      .cls-2 {
        fill: url(#Naamloos_verloop_81-6);
      }

      .cls-3 {
        fill: url(#Naamloos_verloop_81-5);
      }

      .cls-4 {
        fill: url(#Naamloos_verloop_81-3);
      }

      .cls-5 {
        fill: url(#Naamloos_verloop_81-4);
      }

      .cls-6 {
        fill: url(#Naamloos_verloop_81-2);
      }

      .cls-7 {
        fill: url(#Naamloos_verloop_85-2);
      }

      .cls-8 {
        fill: url(#Naamloos_verloop_257);
        stroke: #fff;
        stroke-miterlimit: 10;
      }

      .cls-9 {
        fill: url(#Naamloos_verloop_85);
      }

      .cls-10 {
        fill: url(#Naamloos_verloop_81);
      }
    </style>
    <linearGradient id="Naamloos_verloop_257" data-name="Naamloos verloop 257" x1="15.18" y1="39.17" x2="15.18" y2=".5" gradientUnits="userSpaceOnUse">
      <stop offset="0" stop-color="#f0f0f0"/>
      <stop offset="1" stop-color="#fcfcfc"/>
    </linearGradient>
    <linearGradient id="Naamloos_verloop_81" data-name="Naamloos verloop 81" x1="14.18" y1="15.67" x2="14.18" y2="13.87" gradientUnits="userSpaceOnUse">
      <stop offset="0" stop-color="#333"/>
      <stop offset="1" stop-color="#1a1a1a"/>
    </linearGradient>
    <linearGradient id="Naamloos_verloop_81-2" data-name="Naamloos verloop 81" x1="16.18" x2="16.18" xlink:href="#Naamloos_verloop_81"/>
    <linearGradient id="Naamloos_verloop_81-3" data-name="Naamloos verloop 81" x1="15.18" y1="13.94" x2="15.18" y2="12.14" xlink:href="#Naamloos_verloop_81"/>
    <linearGradient id="Naamloos_verloop_85" data-name="Naamloos verloop 85" x1="15.18" y1="17.01" x2="15.18" y2="15.45" gradientUnits="userSpaceOnUse">
      <stop offset="0" stop-color="#333"/>
      <stop offset="1" stop-color="#1a1a1a"/>
    </linearGradient>
    <linearGradient id="Naamloos_verloop_81-4" data-name="Naamloos verloop 81" x1="13.11" y1="31.75" x2="13.11" y2="29.94" gradientTransform="translate(29.29 55.74) rotate(-180)" xlink:href="#Naamloos_verloop_81"/>
    <linearGradient id="Naamloos_verloop_81-5" data-name="Naamloos verloop 81" x1="15.11" y1="31.75" x2="15.11" y2="29.94" gradientTransform="translate(29.29 55.74) rotate(-180)" xlink:href="#Naamloos_verloop_81"/>
    <linearGradient id="Naamloos_verloop_81-6" data-name="Naamloos verloop 81" x1="14.11" y1="30.01" x2="14.11" y2="28.21" gradientTransform="translate(29.29 55.74) rotate(-180)" xlink:href="#Naamloos_verloop_81"/>
    <linearGradient id="Naamloos_verloop_85-2" data-name="Naamloos verloop 85" x1="14.11" y1="33.08" x2="14.11" y2="31.52" gradientTransform="translate(29.29 55.74) rotate(-180)" xlink:href="#Naamloos_verloop_85"/>
  </defs>
  <g id="Laag_1-2" data-name="Laag 1">
    <g>
      <rect class="cls-8" x=".5" y=".5" width="29.36" height="38.67" rx="2" ry="2"/>
      <g>
        <path class="cls-10" d="m15.08,14.77c0,.5-.4.9-.9.9s-.9-.4-.9-.9.41-.9.9-.9c.16,0,.3.04.43.11.02,0,.03.02.05.03.25.16.42.45.42.77Z"/>
        <path class="cls-6" d="m17.08,14.77c0,.5-.4.9-.9.9s-.9-.4-.9-.9c0-.32.17-.61.43-.77.02,0,.03-.02.05-.03.13-.07.28-.11.43-.11.5,0,.9.41.9.9Z"/>
        <path class="cls-4" d="m16.09,13.04c0,.31-.16.58-.4.75-.02.02-.05.03-.07.04-.13.07-.28.11-.43.11s-.29-.04-.42-.11c-.03-.02-.05-.03-.08-.05-.24-.16-.4-.44-.4-.75,0-.5.4-.9.9-.9s.9.4.9.9Z"/>
        <g>
          <path class="cls-9" d="m15.89,17.01h-1.42c.06-.04.12-.09.17-.15.4-.41.48-1.08.5-1.41h.07c.02.33.11,1,.5,1.41.05.05.11.11.18.15Z"/>
          <path class="cls-1" d="m17.28,14.77c0-.61-.49-1.1-1.1-1.1-.04,0-.07,0-.11,0,.13-.18.2-.4.2-.63,0-.61-.49-1.1-1.1-1.1s-1.1.49-1.1,1.1c0,.23.07.45.2.63-.04,0-.07,0-.11,0-.61,0-1.1.49-1.1,1.1s.49,1.1,1.1,1.1c.29,0,.56-.12.76-.31-.05.51-.25,1.45-1.14,1.45v.19h2.77v-.19c-.9,0-1.1-.95-1.15-1.45.2.19.47.31.76.31.6,0,1.1-.49,1.1-1.1Zm-3-1.73c0-.5.4-.9.9-.9s.9.4.9.9c0,.31-.16.58-.4.75-.02.02-.05.03-.07.04-.13.07-.28.11-.43.11s-.29-.04-.42-.11c-.03-.02-.05-.03-.08-.05-.24-.16-.4-.44-.4-.75Zm.19,3.97c.06-.04.12-.09.17-.15.4-.41.48-1.08.5-1.41h.07c.02.33.11,1,.5,1.41.05.05.11.11.18.15h-1.42Zm-.29-1.34c-.5,0-.9-.4-.9-.9s.41-.9.9-.9c.16,0,.3.04.43.11.02,0,.03.02.05.03.25.16.42.45.42.77,0,.5-.4.9-.9.9Zm1.1-.9c0-.32.17-.61.43-.77.02,0,.03-.02.05-.03.13-.07.28-.11.43-.11.5,0,.9.41.9.9s-.4.9-.9.9-.9-.4-.9-.9Z"/>
        </g>
      </g>
      <g>
        <path class="cls-5" d="m15.28,24.9c0-.5.4-.9.9-.9s.9.4.9.9-.41.9-.9.9c-.16,0-.3-.04-.43-.11-.02,0-.03-.02-.05-.03-.25-.16-.42-.45-.42-.77Z"/>
        <path class="cls-3" d="m13.28,24.9c0-.5.4-.9.9-.9s.9.4.9.9c0,.32-.17.61-.43.77-.02,0-.03.02-.05.03-.13.07-.28.11-.43.11-.5,0-.9-.41-.9-.9Z"/>
        <path class="cls-2" d="m14.28,26.63c0-.31.16-.58.4-.75.02-.02.05-.03.07-.04.13-.07.28-.11.43-.11s.29.04.42.11c.03.02.05.03.08.05.24.16.4.44.4.75,0,.5-.4.9-.9.9s-.9-.4-.9-.9Z"/>
        <g>
          <path class="cls-7" d="m14.47,22.66h1.42c-.06.04-.12.09-.17.15-.4.41-.48,1.08-.5,1.41h-.07c-.02-.33-.11-1-.5-1.41-.05-.05-.11-.11-.18-.15Z"/>
          <path class="cls-1" d="m13.08,24.9c0,.61.49,1.1,1.1,1.1.04,0,.07,0,.11,0-.13.18-.2.4-.2.63,0,.61.49,1.1,1.1,1.1s1.1-.49,1.1-1.1c0-.23-.07-.45-.2-.63.04,0,.07,0,.11,0,.61,0,1.1-.49,1.1-1.1s-.49-1.1-1.1-1.1c-.29,0-.56.12-.76.31.05-.51.25-1.45,1.14-1.45v-.19h-2.77v.19c.9,0,1.1.95,1.15,1.45-.2-.19-.47-.31-.76-.31-.6,0-1.1.49-1.1,1.1Zm3,1.73c0,.5-.4.9-.9.9s-.9-.4-.9-.9c0-.31.16-.58.4-.75.02-.02.05-.03.07-.04.13-.07.28-.11.43-.11s.29.04.42.11c.03.02.05.03.08.05.24.16.4.44.4.75Zm-.19-3.97c-.06.04-.12.09-.17.15-.4.41-.48,1.08-.5,1.41h-.07c-.02-.33-.11-1-.5-1.41-.05-.05-.11-.11-.18-.15h1.42Zm.29,1.34c.5,0,.9.4.9.9s-.41.9-.9.9c-.16,0-.3-.04-.43-.11-.02,0-.03-.02-.05-.03-.25-.16-.42-.45-.42-.77,0-.5.4-.9.9-.9Zm-1.1.9c0,.32-.17.61-.43.77-.02,0-.03.02-.05.03-.13.07-.28.11-.43.11-.5,0-.9-.41-.9-.9s.4-.9.9-.9.9.4.9.9Z"/>
        </g>
      </g>
      <path class="cls-1" d="m3.67,8.36v-.43c.34-.26,1.03-.9,1.4-1.3.46-.5,1-1.09,1-1.97,0-.68-.48-1.19-1.16-1.19-.46,0-.8.18-1.09.5l-.15-.14c.44-.64.95-.99,1.66-.99.84,0,1.59.64,1.59,1.58,0,.86-.7,1.58-1.11,1.99-.35.36-1.14,1.11-1.42,1.35h1.61c.82,0,1.08-.12,1.22-.46l.1-.22.14.04-.27,1.25h-3.53Z"/>
      <path class="cls-1" d="m26.37,31.03v.43c-.34.26-1.03.9-1.4,1.3-.46.5-1,1.09-1,1.97,0,.68.48,1.19,1.16,1.19.46,0,.8-.18,1.09-.5l.15.14c-.44.64-.95.99-1.66.99-.84,0-1.59-.64-1.59-1.58,0-.86.7-1.58,1.11-1.99.35-.36,1.14-1.11,1.42-1.35h-1.61c-.82,0-1.08.12-1.22.46l-.1.22-.14-.04.27-1.25h3.53Z"/>
    </g>
  </g>
</svg>