<?xml version="1.0" encoding="UTF-8"?>
<svg id="Laag_2" data-name="Laag 2" xmlns="http://www.w3.org/2000/svg" xmlns:xlink="http://www.w3.org/1999/xlink" viewBox="0 0 30.36 39.67">
  <defs>
    <style>
      .cls-1 {
        fill: #ff3e48;
      }

      .cls-2 {
        fill: url(#Naamloos_verloop_65-3);
      }

      .cls-3 {
        fill: url(#Naamloos_verloop_65-2);
      }

      .cls-4 {
        fill: url(#Naamloos_verloop_257);
        stroke: #fff;
        stroke-miterlimit: 10;
      }

      .cls-5 {
        fill: url(#Naamloos_verloop_65);
      }
    </style>
    <linearGradient id="Naamloos_verloop_257" data-name="Naamloos verloop 257" x1="15.18" y1="39.17" x2="15.18" y2=".5" gradientUnits="userSpaceOnUse">
      <stop offset="0" stop-color="#f0f0f0"/>
      <stop offset="1" stop-color="#fcfcfc"/>
    </linearGradient>
    <linearGradient id="Naamloos_verloop_65" data-name="Naamloos verloop 65" x1="-67.82" y1="15.65" x2="-67.82" y2="20.65" gradientTransform="translate(-52.64 46.53) rotate(-180)" gradientUnits="userSpaceOnUse">
      <stop offset="0" stop-color="#ff7078"/>
      <stop offset="1" stop-color="#ff3e48"/>
    </linearGradient>
    <linearGradient id="Naamloos_verloop_65-2" data-name="Naamloos verloop 65" x1="15.18" y1="17.31" x2="15.18" y2="22.31" gradientTransform="matrix(1,0,0,1,0,0)" xlink:href="#Naamloos_verloop_65"/>
    <linearGradient id="Naamloos_verloop_65-3" data-name="Naamloos verloop 65" x1="15.18" y1="8.79" x2="15.18" y2="13.79" gradientTransform="matrix(1,0,0,1,0,0)" xlink:href="#Naamloos_verloop_65"/>
  </defs>
  <g id="Laag_1-2" data-name="Laag 1">
    <g>
      <rect class="cls-4" x=".5" y=".5" width="29.36" height="38.67" rx="2" ry="2"/>
      <path class="cls-1" d="m4,7.96c0-.27.24-.45.5-.42l.04.02c.09.39.43.65.82.65.58,0,1.06-.51,1.06-1.22,0-.92-.79-1.16-1.58-1.16h-.44v-.2c1.02-.14,1.72-.61,1.72-1.29,0-.55-.42-.9-.94-.9s-.82.21-1.08.48l-.14-.12c.44-.6.92-.9,1.54-.9.84,0,1.37.54,1.37,1.14s-.4,1.03-1,1.28v.02c.74.05,1.29.57,1.29,1.29,0,1.13-1.12,1.93-2.13,1.93-.39,0-1.03-.16-1.03-.61Z"/>
      <path class="cls-1" d="m26.04,31.71c0,.27-.24.45-.5.42l-.04-.02c-.09-.39-.43-.65-.82-.65-.58,0-1.06.51-1.06,1.22,0,.92.79,1.16,1.58,1.16h.44v.2c-1.02.14-1.72.61-1.72,1.29,0,.55.42.9.94.9s.82-.21,1.08-.48l.14.12c-.44.6-.92.9-1.54.9-.84,0-1.37-.54-1.37-1.14s.4-1.03,1-1.28v-.02c-.74-.05-1.29-.57-1.29-1.29,0-1.13,1.12-1.93,2.13-1.93.39,0,1.03.16,1.03.61Z"/>
      <g>
        <g>
          <path class="cls-5" d="m12.71,30.45c.58.58,1.52.58,2.09,0l.38-.38.38.38c.58.58,1.51.58,2.09,0,.58-.58.58-1.51,0-2.09l-.38-.38-2.09-2.09-.32.32-.03.03-1.74,1.74-.33.33s-.04.03-.06.05c-.58.58-.58,1.52,0,2.09Z"/>
          <path class="cls-1" d="m15.18,25.73l2.55,2.55c.62.62.62,1.63,0,2.25-.3.3-.7.47-1.12.47h0c-.42,0-.82-.17-1.12-.47l-.3-.3-.3.3c-.3.3-.7.47-1.12.47h0c-.42,0-.82-.17-1.12-.47h0c-.62-.62-.62-1.63,0-2.25.02-.02.04-.04.07-.06l2.48-2.49Zm1.42,5.04h0c.37,0,.71-.14.97-.4.53-.53.53-1.4,0-1.94l-2.39-2.39-2.34,2.34s-.04.04-.06.05c-.53.54-.53,1.41,0,1.94h0c.26.26.6.4.97.4h0c.37,0,.71-.14.97-.4l.46-.46.46.46c.26.26.6.4.97.4Z"/>
        </g>
        <g>
          <path class="cls-3" d="m17.65,17.75c-.58-.58-1.52-.58-2.09,0l-.38.38-.38-.38c-.58-.58-1.51-.58-2.09,0-.58.58-.58,1.51,0,2.09l.38.38,2.09,2.09.32-.32.03-.03,1.74-1.74.33-.33s.04-.03.06-.05c.58-.58.58-1.52,0-2.09Z"/>
          <path class="cls-1" d="m15.18,22.47l-2.55-2.55c-.62-.62-.62-1.63,0-2.25.3-.3.7-.47,1.12-.47h0c.42,0,.82.17,1.12.47l.3.3.3-.3c.3-.3.7-.47,1.12-.47h0c.42,0,.82.17,1.12.47h0c.62.62.62,1.63,0,2.25-.02.02-.04.04-.07.06l-2.48,2.49Zm-1.42-5.04h0c-.37,0-.71.14-.97.4-.53.53-.53,1.4,0,1.94l2.39,2.39,2.34-2.34s.04-.04.06-.05c.53-.54.53-1.41,0-1.94h0c-.26-.26-.6-.4-.97-.4h0c-.37,0-.71.14-.97.4l-.46.46-.46-.46c-.26-.26-.6-.4-.97-.4Z"/>
        </g>
        <g>
          <path class="cls-2" d="m17.65,9.22c-.58-.58-1.52-.58-2.09,0l-.38.38-.38-.38c-.58-.58-1.51-.58-2.09,0-.58.58-.58,1.51,0,2.09l.38.38,2.09,2.09.32-.32.03-.03,1.74-1.74.33-.33s.04-.03.06-.05c.58-.58.58-1.52,0-2.09Z"/>
          <path class="cls-1" d="m15.18,13.94l-2.55-2.55c-.62-.62-.62-1.63,0-2.25.3-.3.7-.47,1.12-.47h0c.42,0,.82.17,1.12.47l.3.3.3-.3c.3-.3.7-.47,1.12-.47h0c.42,0,.82.17,1.12.47h0c.62.62.62,1.63,0,2.25-.02.02-.04.04-.07.06l-2.48,2.49Zm-1.42-5.04h0c-.37,0-.71.14-.97.4-.53.53-.53,1.4,0,1.94l2.39,2.39,2.34-2.34s.04-.04.06-.05c.53-.54.53-1.41,0-1.94h0c-.26-.26-.6-.4-.97-.4h0c-.37,0-.71.14-.97.4l-.46.46-.46-.46c-.26-.26-.6-.4-.97-.4Z"/>
        </g>
      </g>
    </g>
  </g>
</svg>