<?xml version="1.0" encoding="UTF-8"?>
<svg id="Laag_2" data-name="Laag 2" xmlns="http://www.w3.org/2000/svg" xmlns:xlink="http://www.w3.org/1999/xlink" viewBox="0 0 30.36 39.67">
  <defs>
    <style>
      .cls-1 {
        fill: #1a1a1a;
      }

      .cls-2 {
        fill: url(#Naamloos_verloop_81-6);
      }

      .cls-3 {
        fill: url(#Naamloos_verloop_81-7);
      }

      .cls-4 {
        fill: url(#Naamloos_verloop_81-5);
      }

      .cls-5 {
        fill: url(#Naamloos_verloop_81-3);
      }

      .cls-6 {
        fill: url(#Naamloos_verloop_81-4);
      }

      .cls-7 {
        fill: url(#Naamloos_verloop_81-2);
      }

      .cls-8 {
        fill: url(#Naamloos_verloop_81-9);
      }

      .cls-9 {
        fill: url(#Naamloos_verloop_81-8);
      }

      .cls-10 {
        fill: url(#Naamloos_verloop_85-2);
      }

      .cls-11 {
        fill: url(#Naamloos_verloop_85-3);
      }

      .cls-12 {
        fill: url(#Naamloos_verloop_257);
        stroke: #fff;
        stroke-miterlimit: 10;
      }

      .cls-13 {
        fill: url(#Naamloos_verloop_85);
      }

      .cls-14 {
        fill: url(#Naamloos_verloop_81);
      }
    </style>
    <linearGradient id="Naamloos_verloop_257" data-name="Naamloos verloop 257" x1="15.18" y1="39.17" x2="15.18" y2=".5" gradientUnits="userSpaceOnUse">
      <stop offset="0" stop-color="#f0f0f0"/>
      <stop offset="1" stop-color="#fcfcfc"/>
    </linearGradient>
    <linearGradient id="Naamloos_verloop_81" data-name="Naamloos verloop 81" x1="14.18" y1="12.41" x2="14.18" y2="10.61" gradientUnits="userSpaceOnUse">
      <stop offset="0" stop-color="#333"/>
      <stop offset="1" stop-color="#1a1a1a"/>
    </linearGradient>
    <linearGradient id="Naamloos_verloop_81-2" data-name="Naamloos verloop 81" x1="16.18" x2="16.18" xlink:href="#Naamloos_verloop_81"/>
    <linearGradient id="Naamloos_verloop_81-3" data-name="Naamloos verloop 81" x1="15.18" y1="10.68" x2="15.18" y2="8.87" xlink:href="#Naamloos_verloop_81"/>
    <linearGradient id="Naamloos_verloop_85" data-name="Naamloos verloop 85" x1="15.18" y1="13.75" x2="15.18" y2="12.19" gradientUnits="userSpaceOnUse">
      <stop offset="0" stop-color="#333"/>
      <stop offset="1" stop-color="#1a1a1a"/>
    </linearGradient>
    <linearGradient id="Naamloos_verloop_81-4" data-name="Naamloos verloop 81" x1="-68.82" y1="37.01" x2="-68.82" y2="35.2" gradientTransform="translate(-52.64 55.74) rotate(-180)" xlink:href="#Naamloos_verloop_81"/>
    <linearGradient id="Naamloos_verloop_81-5" data-name="Naamloos verloop 81" x1="-66.82" y1="37.01" x2="-66.82" y2="35.2" gradientTransform="translate(-52.64 55.74) rotate(-180)" xlink:href="#Naamloos_verloop_81"/>
    <linearGradient id="Naamloos_verloop_81-6" data-name="Naamloos verloop 81" x1="-67.82" y1="35.28" x2="-67.82" y2="33.47" gradientTransform="translate(-52.64 55.74) rotate(-180)" xlink:href="#Naamloos_verloop_81"/>
    <linearGradient id="Naamloos_verloop_85-2" data-name="Naamloos verloop 85" x1="-67.82" y1="38.34" x2="-67.82" y2="36.78" gradientTransform="translate(-52.64 55.74) rotate(-180)" xlink:href="#Naamloos_verloop_85"/>
    <linearGradient id="Naamloos_verloop_81-7" data-name="Naamloos verloop 81" x1="-68.82" y1="28.48" x2="-68.82" y2="26.68" gradientTransform="translate(-52.64 55.74) rotate(-180)" xlink:href="#Naamloos_verloop_81"/>
    <linearGradient id="Naamloos_verloop_81-8" data-name="Naamloos verloop 81" x1="-66.82" y1="28.48" x2="-66.82" y2="26.68" gradientTransform="translate(-52.64 55.74) rotate(-180)" xlink:href="#Naamloos_verloop_81"/>
    <linearGradient id="Naamloos_verloop_81-9" data-name="Naamloos verloop 81" x1="-67.82" y1="26.75" x2="-67.82" y2="24.95" gradientTransform="translate(-52.64 55.74) rotate(-180)" xlink:href="#Naamloos_verloop_81"/>
    <linearGradient id="Naamloos_verloop_85-3" data-name="Naamloos verloop 85" x1="-67.82" y1="29.82" x2="-67.82" y2="28.26" gradientTransform="translate(-52.64 55.74) rotate(-180)" xlink:href="#Naamloos_verloop_85"/>
  </defs>
  <g id="Laag_1-2" data-name="Laag 1">
    <g>
      <rect class="cls-12" x=".5" y=".5" width="29.36" height="38.67" rx="2" ry="2"/>
      <g>
        <path class="cls-14" d="m15.08,11.51c0,.5-.4.9-.9.9s-.9-.4-.9-.9.41-.9.9-.9c.16,0,.3.04.43.11.02,0,.03.02.05.03.25.16.42.45.42.77Z"/>
        <path class="cls-7" d="m17.08,11.51c0,.5-.4.9-.9.9s-.9-.4-.9-.9c0-.32.17-.61.43-.77.02,0,.03-.02.05-.03.13-.07.28-.11.43-.11.5,0,.9.41.9.9Z"/>
        <path class="cls-5" d="m16.09,9.78c0,.31-.16.58-.4.75-.02.02-.05.03-.07.04-.13.07-.28.11-.43.11s-.29-.04-.42-.11c-.03-.02-.05-.03-.08-.05-.24-.16-.4-.44-.4-.75,0-.5.4-.9.9-.9s.9.4.9.9Z"/>
        <g>
          <path class="cls-13" d="m15.89,13.75h-1.42c.06-.04.12-.09.17-.15.4-.41.48-1.08.5-1.41h.07c.02.33.11,1,.5,1.41.05.05.11.11.18.15Z"/>
          <path class="cls-1" d="m17.28,11.51c0-.61-.49-1.1-1.1-1.1-.04,0-.07,0-.11,0,.13-.18.2-.4.2-.63,0-.61-.49-1.1-1.1-1.1s-1.1.49-1.1,1.1c0,.23.07.45.2.63-.04,0-.07,0-.11,0-.61,0-1.1.49-1.1,1.1s.49,1.1,1.1,1.1c.29,0,.56-.12.76-.31-.05.51-.25,1.45-1.14,1.45v.19h2.77v-.19c-.9,0-1.1-.95-1.15-1.45.2.19.47.31.76.31.6,0,1.1-.49,1.1-1.1Zm-3-1.73c0-.5.4-.9.9-.9s.9.4.9.9c0,.31-.16.58-.4.75-.02.02-.05.03-.07.04-.13.07-.28.11-.43.11s-.29-.04-.42-.11c-.03-.02-.05-.03-.08-.05-.24-.16-.4-.44-.4-.75Zm.19,3.97c.06-.04.12-.09.17-.15.4-.41.48-1.08.5-1.41h.07c.02.33.11,1,.5,1.41.05.05.11.11.18.15h-1.42Zm-.29-1.34c-.5,0-.9-.4-.9-.9s.41-.9.9-.9c.16,0,.3.04.43.11.02,0,.03.02.05.03.25.16.42.45.42.77,0,.5-.4.9-.9.9Zm1.1-.9c0-.32.17-.61.43-.77.02,0,.03-.02.05-.03.13-.07.28-.11.43-.11.5,0,.9.41.9.9s-.4.9-.9.9-.9-.4-.9-.9Z"/>
        </g>
      </g>
      <g>
        <path class="cls-6" d="m15.28,19.63c0-.5.4-.9.9-.9s.9.4.9.9-.41.9-.9.9c-.16,0-.3-.04-.43-.11-.02,0-.03-.02-.05-.03-.25-.16-.42-.45-.42-.77Z"/>
        <path class="cls-4" d="m13.28,19.63c0-.5.4-.9.9-.9s.9.4.9.9c0,.32-.17.61-.43.77-.02,0-.03.02-.05.03-.13.07-.28.11-.43.11-.5,0-.9-.41-.9-.9Z"/>
        <path class="cls-2" d="m14.28,21.37c0-.31.16-.58.4-.75.02-.02.05-.03.07-.04.13-.07.28-.11.43-.11s.29.04.42.11c.03.02.05.03.08.05.24.16.4.44.4.75,0,.5-.4.9-.9.9s-.9-.4-.9-.9Z"/>
        <g>
          <path class="cls-10" d="m14.47,17.4h1.42c-.06.04-.12.09-.17.15-.4.41-.48,1.08-.5,1.41h-.07c-.02-.33-.11-1-.5-1.41-.05-.05-.11-.11-.18-.15Z"/>
          <path class="cls-1" d="m13.08,19.63c0,.61.49,1.1,1.1,1.1.04,0,.07,0,.11,0-.13.18-.2.4-.2.63,0,.61.49,1.1,1.1,1.1s1.1-.49,1.1-1.1c0-.23-.07-.45-.2-.63.04,0,.07,0,.11,0,.61,0,1.1-.49,1.1-1.1s-.49-1.1-1.1-1.1c-.29,0-.56.12-.76.31.05-.51.25-1.45,1.14-1.45v-.19h-2.77v.19c.9,0,1.1.95,1.15,1.45-.2-.19-.47-.31-.76-.31-.6,0-1.1.49-1.1,1.1Zm3,1.73c0,.5-.4.9-.9.9s-.9-.4-.9-.9c0-.31.16-.58.4-.75.02-.02.05-.03.07-.04.13-.07.28-.11.43-.11s.29.04.42.11c.03.02.05.03.08.05.24.16.4.44.4.75Zm-.19-3.97c-.06.04-.12.09-.17.15-.4.41-.48,1.08-.5,1.41h-.07c-.02-.33-.11-1-.5-1.41-.05-.05-.11-.11-.18-.15h1.42Zm.29,1.34c.5,0,.9.4.9.9s-.41.9-.9.9c-.16,0-.3-.04-.43-.11-.02,0-.03-.02-.05-.03-.25-.16-.42-.45-.42-.77,0-.5.4-.9.9-.9Zm-1.1.9c0,.32-.17.61-.43.77-.02,0-.03.02-.05.03-.13.07-.28.11-.43.11-.5,0-.9-.41-.9-.9s.4-.9.9-.9.9.4.9.9Z"/>
        </g>
      </g>
      <g>
        <path class="cls-3" d="m15.28,28.16c0-.5.4-.9.9-.9s.9.4.9.9-.41.9-.9.9c-.16,0-.3-.04-.43-.11-.02,0-.03-.02-.05-.03-.25-.16-.42-.45-.42-.77Z"/>
        <path class="cls-9" d="m13.28,28.16c0-.5.4-.9.9-.9s.9.4.9.9c0,.32-.17.61-.43.77-.02,0-.03.02-.05.03-.13.07-.28.11-.43.11-.5,0-.9-.41-.9-.9Z"/>
        <path class="cls-8" d="m14.28,29.89c0-.31.16-.58.4-.75.02-.02.05-.03.07-.04.13-.07.28-.11.43-.11s.29.04.42.11c.03.02.05.03.08.05.24.16.4.44.4.75,0,.5-.4.9-.9.9s-.9-.4-.9-.9Z"/>
        <g>
          <path class="cls-11" d="m14.47,25.92h1.42c-.06.04-.12.09-.17.15-.4.41-.48,1.08-.5,1.41h-.07c-.02-.33-.11-1-.5-1.41-.05-.05-.11-.11-.18-.15Z"/>
          <path class="cls-1" d="m13.08,28.16c0,.61.49,1.1,1.1,1.1.04,0,.07,0,.11,0-.13.18-.2.4-.2.63,0,.61.49,1.1,1.1,1.1s1.1-.49,1.1-1.1c0-.23-.07-.45-.2-.63.04,0,.07,0,.11,0,.61,0,1.1-.49,1.1-1.1s-.49-1.1-1.1-1.1c-.29,0-.56.12-.76.31.05-.51.25-1.45,1.14-1.45v-.19h-2.77v.19c.9,0,1.1.95,1.15,1.45-.2-.19-.47-.31-.76-.31-.6,0-1.1.49-1.1,1.1Zm3,1.73c0,.5-.4.9-.9.9s-.9-.4-.9-.9c0-.31.16-.58.4-.75.02-.02.05-.03.07-.04.13-.07.28-.11.43-.11s.29.04.42.11c.03.02.05.03.08.05.24.16.4.44.4.75Zm-.19-3.97c-.06.04-.12.09-.17.15-.4.41-.48,1.08-.5,1.41h-.07c-.02-.33-.11-1-.5-1.41-.05-.05-.11-.11-.18-.15h1.42Zm.29,1.34c.5,0,.9.4.9.9s-.41.9-.9.9c-.16,0-.3-.04-.43-.11-.02,0-.03-.02-.05-.03-.25-.16-.42-.45-.42-.77,0-.5.4-.9.9-.9Zm-1.1.9c0,.32-.17.61-.43.77-.02,0-.03.02-.05.03-.13.07-.28.11-.43.11-.5,0-.9-.41-.9-.9s.4-.9.9-.9.9.4.9.9Z"/>
        </g>
      </g>
      <path class="cls-1" d="m4.16,7.96c0-.27.24-.45.5-.42l.04.02c.09.39.43.65.82.65.58,0,1.06-.51,1.06-1.22,0-.92-.79-1.16-1.58-1.16h-.44v-.2c1.02-.14,1.72-.61,1.72-1.29,0-.55-.42-.9-.94-.9s-.82.21-1.08.48l-.14-.12c.44-.6.92-.9,1.54-.9.84,0,1.37.54,1.37,1.14s-.4,1.03-1,1.28v.02c.74.05,1.29.57,1.29,1.29,0,1.13-1.12,1.93-2.13,1.93-.39,0-1.03-.16-1.03-.61Z"/>
      <path class="cls-1" d="m26.2,31.71c0,.27-.24.45-.5.42l-.04-.02c-.09-.39-.43-.65-.82-.65-.58,0-1.06.51-1.06,1.22,0,.92.79,1.16,1.58,1.16h.44v.2c-1.02.14-1.72.61-1.72,1.29,0,.55.42.9.94.9s.82-.21,1.08-.48l.14.12c-.44.6-.92.9-1.54.9-.84,0-1.37-.54-1.37-1.14s.4-1.03,1-1.28v-.02c-.74-.05-1.29-.57-1.29-1.29,0-1.13,1.12-1.93,2.13-1.93.39,0,1.03.16,1.03.61Z"/>
    </g>
  </g>
</svg>