<?xml version="1.0" encoding="UTF-8"?>
<svg id="Laag_2" data-name="Laag 2" xmlns="http://www.w3.org/2000/svg" xmlns:xlink="http://www.w3.org/1999/xlink" viewBox="0 0 30.36 39.67">
  <defs>
    <style>
      .cls-1 {
        fill: #ff3e48;
      }

      .cls-2 {
        fill: url(#Naamloos_verloop_87-2);
      }

      .cls-3 {
        fill: url(#Naamloos_verloop_87-3);
      }

      .cls-4 {
        fill: url(#Naamloos_verloop_257);
        stroke: #fff;
        stroke-miterlimit: 10;
      }

      .cls-5 {
        fill: url(#Naamloos_verloop_87);
      }
    </style>
    <linearGradient id="Naamloos_verloop_257" data-name="Naamloos verloop 257" x1="15.18" y1="39.17" x2="15.18" y2=".5" gradientUnits="userSpaceOnUse">
      <stop offset="0" stop-color="#f0f0f0"/>
      <stop offset="1" stop-color="#fcfcfc"/>
    </linearGradient>
    <linearGradient id="Naamloos_verloop_87" data-name="Naamloos verloop 87" x1="15.18" y1="17.1" x2="15.18" y2="22.59" gradientUnits="userSpaceOnUse">
      <stop offset="0" stop-color="#ff7078"/>
      <stop offset="1" stop-color="#ff3e48"/>
    </linearGradient>
    <linearGradient id="Naamloos_verloop_87-2" data-name="Naamloos verloop 87" y1="7.75" y2="13.24" xlink:href="#Naamloos_verloop_87"/>
    <linearGradient id="Naamloos_verloop_87-3" data-name="Naamloos verloop 87" y1="26.07" y2="31.56" xlink:href="#Naamloos_verloop_87"/>
  </defs>
  <g id="Laag_1-2" data-name="Laag 1">
    <g>
      <rect class="cls-4" x=".5" y=".5" width="29.36" height="38.67" rx="2" ry="2"/>
      <g>
        <g>
          <path class="cls-5" d="m14.88,22.42l-1.54-2.38c-.08-.12-.08-.27,0-.39l1.54-2.38c.14-.22.46-.22.6,0l1.54,2.38c.08.12.08.27,0,.39l-1.54,2.38c-.14.22-.46.22-.6,0Z"/>
          <path class="cls-1" d="m15.18,22.68c-.15,0-.29-.08-.38-.21l-1.54-2.38c-.1-.15-.1-.34,0-.49l1.54-2.38c.08-.13.22-.2.38-.2h0c.15,0,.29.08.38.2l1.54,2.38c.1.15.1.34,0,.49l-1.54,2.38c-.08.13-.22.2-.38.21h0Zm-.23-.3c.05.08.13.12.23.12h0c.09,0,.18-.05.23-.12l1.54-2.38c.06-.09.06-.2,0-.29l-1.54-2.38c-.05-.08-.13-.12-.23-.12h0c-.09,0-.18.04-.23.12l-1.54,2.38c-.06.09-.06.2,0,.29l1.54,2.38Z"/>
        </g>
        <g>
          <path class="cls-2" d="m14.88,13.08l-1.54-2.38c-.08-.12-.08-.27,0-.39l1.54-2.38c.14-.22.46-.22.6,0l1.54,2.38c.08.12.08.27,0,.39l-1.54,2.38c-.14.22-.46.22-.6,0Z"/>
          <path class="cls-1" d="m15.18,13.33c-.15,0-.29-.08-.38-.21l-1.54-2.38c-.1-.15-.1-.34,0-.49l1.54-2.38c.08-.13.22-.2.38-.2h0c.15,0,.29.08.38.2l1.54,2.38c.1.15.1.34,0,.49l-1.54,2.38c-.08.13-.22.2-.38.21h0Zm-.23-.3c.05.08.13.12.23.12h0c.09,0,.18-.05.23-.12l1.54-2.38c.06-.09.06-.2,0-.29l-1.54-2.38c-.05-.08-.13-.12-.23-.12h0c-.09,0-.18.04-.23.12l-1.54,2.38c-.06.09-.06.2,0,.29l1.54,2.38Z"/>
        </g>
        <g>
          <path class="cls-3" d="m14.88,31.39l-1.54-2.38c-.08-.12-.08-.27,0-.39l1.54-2.38c.14-.22.46-.22.6,0l1.54,2.38c.08.12.08.27,0,.39l-1.54,2.38c-.14.22-.46.22-.6,0Z"/>
          <path class="cls-1" d="m15.18,31.65c-.15,0-.29-.08-.38-.21l-1.54-2.38c-.1-.15-.1-.34,0-.49l1.54-2.38c.08-.13.22-.2.38-.2h0c.15,0,.29.08.38.2l1.54,2.38c.1.15.1.34,0,.49l-1.54,2.38c-.08.13-.22.2-.38.21h0Zm-.23-.3c.05.08.13.12.23.12h0c.09,0,.18-.05.23-.12l1.54-2.38c.06-.09.06-.2,0-.29l-1.54-2.38c-.05-.08-.13-.12-.23-.12h0c-.09,0-.18.04-.23.12l-1.54,2.38c-.06.09-.06.2,0,.29l1.54,2.38Z"/>
        </g>
      </g>
      <path class="cls-1" d="m4,7.95c0-.27.24-.45.5-.42l.04.02c.09.39.43.65.82.65.58,0,1.06-.51,1.06-1.22,0-.92-.79-1.16-1.58-1.16h-.44v-.2c1.02-.14,1.72-.61,1.72-1.29,0-.55-.42-.9-.94-.9s-.82.21-1.08.48l-.14-.12c.44-.6.92-.9,1.54-.9.84,0,1.37.54,1.37,1.14s-.4,1.03-1,1.28v.02c.74.05,1.29.57,1.29,1.29,0,1.13-1.12,1.93-2.13,1.93-.39,0-1.03-.16-1.03-.61Z"/>
      <path class="cls-1" d="m26.04,31.71c0,.27-.24.45-.5.42l-.04-.02c-.09-.39-.43-.65-.82-.65-.58,0-1.06.51-1.06,1.22,0,.92.79,1.16,1.58,1.16h.44v.2c-1.02.14-1.72.61-1.72,1.29,0,.55.42.9.94.9s.82-.21,1.08-.48l.14.12c-.44.6-.92.9-1.54.9-.84,0-1.37-.54-1.37-1.14s.4-1.03,1-1.28v-.02c-.74-.05-1.29-.57-1.29-1.29,0-1.13,1.12-1.93,2.13-1.93.39,0,1.03.16,1.03.61Z"/>
    </g>
  </g>
</svg>