<?xml version="1.0" encoding="UTF-8"?>
<svg id="Laag_2" data-name="Laag 2" xmlns="http://www.w3.org/2000/svg" xmlns:xlink="http://www.w3.org/1999/xlink" viewBox="0 0 30.36 39.67">
  <defs>
    <style>
      .cls-1 {
        fill: #1a1a1a;
      }

      .cls-2 {
        fill: url(#Naamloos_verloop_81-3);
      }

      .cls-3 {
        fill: url(#Naamloos_verloop_81-2);
      }

      .cls-4 {
        fill: url(#Naamloos_verloop_85-2);
      }

      .cls-5 {
        fill: url(#Naamloos_verloop_85-3);
      }

      .cls-6 {
        fill: url(#Naamloos_verloop_257);
        stroke: #fff;
        stroke-miterlimit: 10;
      }

      .cls-7 {
        fill: url(#Naamloos_verloop_85);
      }

      .cls-8 {
        fill: url(#Naamloos_verloop_81);
      }
    </style>
    <linearGradient id="Naamloos_verloop_257" data-name="Naamloos verloop 257" x1="15.18" y1="39.17" x2="15.18" y2=".5" gradientUnits="userSpaceOnUse">
      <stop offset="0" stop-color="#f0f0f0"/>
      <stop offset="1" stop-color="#fcfcfc"/>
    </linearGradient>
    <linearGradient id="Naamloos_verloop_81" data-name="Naamloos verloop 81" x1="15.18" y1="17.48" x2="15.18" y2="20.91" gradientUnits="userSpaceOnUse">
      <stop offset="0" stop-color="#333"/>
      <stop offset="1" stop-color="#1a1a1a"/>
    </linearGradient>
    <linearGradient id="Naamloos_verloop_85" data-name="Naamloos verloop 85" x1="15.18" y1="22.27" x2="15.18" y2="20.71" gradientUnits="userSpaceOnUse">
      <stop offset="0" stop-color="#333"/>
      <stop offset="1" stop-color="#1a1a1a"/>
    </linearGradient>
    <linearGradient id="Naamloos_verloop_81-2" data-name="Naamloos verloop 81" y1="8.96" y2="12.38" xlink:href="#Naamloos_verloop_81"/>
    <linearGradient id="Naamloos_verloop_85-2" data-name="Naamloos verloop 85" y1="13.75" y2="12.19" xlink:href="#Naamloos_verloop_85"/>
    <linearGradient id="Naamloos_verloop_81-3" data-name="Naamloos verloop 81" x1="-67.82" y1="21.01" x2="-67.82" y2="24.44" gradientTransform="translate(-52.64 51.73) rotate(-180)" xlink:href="#Naamloos_verloop_81"/>
    <linearGradient id="Naamloos_verloop_85-3" data-name="Naamloos verloop 85" x1="-67.82" y1="25.8" x2="-67.82" y2="24.24" gradientTransform="translate(-52.64 51.73) rotate(-180)" xlink:href="#Naamloos_verloop_85"/>
  </defs>
  <g id="Laag_1-2" data-name="Laag 1">
    <g>
      <rect class="cls-6" x=".5" y=".5" width="29.36" height="38.67" rx="2" ry="2"/>
      <g>
        <path class="cls-8" d="m16.92,20.62c-.18.19-.43.29-.7.29s-.51-.1-.69-.29l-.35-.35-.34.35c-.19.19-.43.29-.7.29s-.51-.1-.7-.29c-.38-.38-.38-1.01,0-1.39,0,0,.02-.02.04-.04l1.7-1.7,1.74,1.74c.38.38.38,1.01,0,1.39Z"/>
        <g>
          <path class="cls-7" d="m15.9,22.27h-1.43c.06-.04.12-.09.18-.15.4-.41.48-1.08.5-1.41h.07c.02.33.11,1,.5,1.41.05.05.11.11.18.15Z"/>
          <path class="cls-1" d="m17.06,20.75c.46-.46.46-1.21,0-1.67l-1.88-1.88-1.83,1.83s-.04.03-.05.05c-.23.23-.35.53-.35.83s.12.61.35.83c.22.22.52.35.83.35s.58-.11.8-.32c-.04.49-.23,1.49-1.15,1.49v.19h2.77v-.19c-.92,0-1.11-1-1.15-1.49.22.2.51.32.81.32.32,0,.62-.13.83-.35Zm-2.59,1.52c.06-.04.12-.09.18-.15.4-.41.48-1.08.5-1.41h.07c.02.33.11,1,.5,1.41.05.05.11.11.18.15h-1.43Zm.71-2l-.34.35c-.19.19-.43.29-.7.29s-.51-.1-.7-.29c-.38-.38-.38-1.01,0-1.39,0,0,.02-.02.04-.04l1.7-1.7,1.74,1.74c.38.38.38,1.01,0,1.39-.18.19-.43.29-.7.29s-.51-.1-.69-.29l-.35-.35Z"/>
        </g>
      </g>
      <g>
        <path class="cls-3" d="m16.92,12.09c-.18.19-.43.29-.7.29s-.51-.1-.69-.29l-.35-.35-.34.35c-.19.19-.43.29-.7.29s-.51-.1-.7-.29c-.38-.38-.38-1.01,0-1.39,0,0,.02-.02.04-.04l1.7-1.7,1.74,1.74c.38.38.38,1.01,0,1.39Z"/>
        <g>
          <path class="cls-4" d="m15.9,13.75h-1.43c.06-.04.12-.09.18-.15.4-.41.48-1.08.5-1.41h.07c.02.33.11,1,.5,1.41.05.05.11.11.18.15Z"/>
          <path class="cls-1" d="m17.06,12.23c.46-.46.46-1.21,0-1.67l-1.88-1.88-1.83,1.83s-.04.03-.05.05c-.23.23-.35.53-.35.83s.12.61.35.83c.22.22.52.35.83.35s.58-.11.8-.32c-.04.49-.23,1.49-1.15,1.49v.19h2.77v-.19c-.92,0-1.11-1-1.15-1.49.22.2.51.32.81.32.32,0,.62-.13.83-.35Zm-2.59,1.52c.06-.04.12-.09.18-.15.4-.41.48-1.08.5-1.41h.07c.02.33.11,1,.5,1.41.05.05.11.11.18.15h-1.43Zm.71-2l-.34.35c-.19.19-.43.29-.7.29s-.51-.1-.7-.29c-.38-.38-.38-1.01,0-1.39,0,0,.02-.02.04-.04l1.7-1.7,1.74,1.74c.38.38.38,1.01,0,1.39-.18.19-.43.29-.7.29s-.51-.1-.69-.29l-.35-.35Z"/>
        </g>
      </g>
      <g>
        <path class="cls-2" d="m13.44,27.58c.18-.19.43-.29.7-.29s.51.1.69.29l.35.35.34-.35c.19-.19.43-.29.7-.29s.51.1.7.29c.38.38.38,1.01,0,1.39,0,0-.02.02-.04.04l-1.7,1.7-1.74-1.74c-.38-.38-.38-1.01,0-1.39Z"/>
        <g>
          <path class="cls-5" d="m14.47,25.92h1.43c-.06.04-.12.09-.18.15-.4.41-.48,1.08-.5,1.41h-.07c-.02-.33-.11-1-.5-1.41-.05-.05-.11-.11-.18-.15Z"/>
          <path class="cls-1" d="m13.3,27.44c-.46.46-.46,1.21,0,1.67l1.88,1.88,1.83-1.83s.04-.03.05-.05c.23-.23.35-.53.35-.83s-.12-.61-.35-.83c-.22-.22-.52-.35-.83-.35s-.58.11-.8.32c.04-.49.23-1.49,1.15-1.49v-.19h-2.77v.19c.92,0,1.11,1,1.15,1.49-.22-.2-.51-.32-.81-.32-.32,0-.62.13-.83.35Zm2.59-1.52c-.06.04-.12.09-.18.15-.4.41-.48,1.08-.5,1.41h-.07c-.02-.33-.11-1-.5-1.41-.05-.05-.11-.11-.18-.15h1.43Zm-.71,2l.34-.35c.19-.19.43-.29.7-.29s.51.1.7.29c.38.38.38,1.01,0,1.39,0,0-.02.02-.04.04l-1.7,1.7-1.74-1.74c-.38-.38-.38-1.01,0-1.39.18-.19.43-.29.7-.29s.51.1.69.29l.35.35Z"/>
        </g>
      </g>
      <path class="cls-1" d="m4.17,7.96c0-.27.24-.45.5-.42l.04.02c.09.39.43.65.82.65.58,0,1.06-.51,1.06-1.22,0-.92-.79-1.16-1.58-1.16h-.44v-.2c1.02-.14,1.72-.61,1.72-1.29,0-.55-.42-.9-.94-.9s-.82.21-1.08.48l-.14-.12c.44-.6.92-.9,1.54-.9.84,0,1.37.54,1.37,1.14s-.4,1.03-1,1.28v.02c.74.05,1.29.57,1.29,1.29,0,1.13-1.12,1.93-2.13,1.93-.39,0-1.03-.16-1.03-.61Z"/>
      <path class="cls-1" d="m26.2,31.71c0,.27-.24.45-.5.42l-.04-.02c-.09-.39-.43-.65-.82-.65-.58,0-1.06.51-1.06,1.22,0,.92.79,1.16,1.58,1.16h.44v.2c-1.02.14-1.72.61-1.72,1.29,0,.55.42.9.94.9s.82-.21,1.08-.48l.14.12c-.44.6-.92.9-1.54.9-.84,0-1.37-.54-1.37-1.14s.4-1.03,1-1.28v-.02c-.74-.05-1.29-.57-1.29-1.29,0-1.13,1.12-1.93,2.13-1.93.39,0,1.03.16,1.03.61Z"/>
    </g>
  </g>
</svg>