<?xml version="1.0" encoding="UTF-8"?>
<svg id="Laag_2" data-name="Laag 2" xmlns="http://www.w3.org/2000/svg" xmlns:xlink="http://www.w3.org/1999/xlink" viewBox="0 0 30.36 39.67">
  <defs>
    <style>
      .cls-1 {
        fill: #ff3e48;
      }

      .cls-2 {
        fill: url(#Naamloos_verloop_65-3);
      }

      .cls-3 {
        fill: url(#Naamloos_verloop_65-2);
      }

      .cls-4 {
        fill: url(#Naamloos_verloop_65-5);
      }

      .cls-5 {
        fill: url(#Naamloos_verloop_65-4);
      }

      .cls-6 {
        fill: url(#Naamloos_verloop_257);
        stroke: #fff;
        stroke-miterlimit: 10;
      }

      .cls-7 {
        fill: url(#Naamloos_verloop_65);
      }
    </style>
    <linearGradient id="Naamloos_verloop_257" data-name="Naamloos verloop 257" x1="15.18" y1="39.17" x2="15.18" y2=".5" gradientUnits="userSpaceOnUse">
      <stop offset="0" stop-color="#f0f0f0"/>
      <stop offset="1" stop-color="#fcfcfc"/>
    </linearGradient>
    <linearGradient id="Naamloos_verloop_65" data-name="Naamloos verloop 65" x1="9.16" y1="12.05" x2="9.16" y2="17.05" gradientUnits="userSpaceOnUse">
      <stop offset="0" stop-color="#ff7078"/>
      <stop offset="1" stop-color="#ff3e48"/>
    </linearGradient>
    <linearGradient id="Naamloos_verloop_65-2" data-name="Naamloos verloop 65" x1="15.18" y1="17.31" x2="15.18" y2="22.31" xlink:href="#Naamloos_verloop_65"/>
    <linearGradient id="Naamloos_verloop_65-3" data-name="Naamloos verloop 65" x1="-225.67" y1="19.19" x2="-225.67" y2="24.19" gradientTransform="translate(-216.51 46.81) rotate(-180)" xlink:href="#Naamloos_verloop_65"/>
    <linearGradient id="Naamloos_verloop_65-4" data-name="Naamloos verloop 65" x1="21.21" x2="21.21" xlink:href="#Naamloos_verloop_65"/>
    <linearGradient id="Naamloos_verloop_65-5" data-name="Naamloos verloop 65" x1="-237.72" y1="19.19" x2="-237.72" y2="24.19" gradientTransform="translate(-216.51 46.81) rotate(-180)" xlink:href="#Naamloos_verloop_65"/>
  </defs>
  <g id="Laag_1-2" data-name="Laag 1">
    <g>
      <rect class="cls-6" x=".5" y=".5" width="29.36" height="38.67" rx="2" ry="2"/>
      <path class="cls-1" d="m3.53,8.35c-.39,0-1.03-.16-1.03-.61,0-.27.24-.45.51-.42l.04.02c.09.38.42.65.79.65.59,0,1.09-.53,1.09-1.25,0-1.01-.78-1.37-1.56-1.37-.2,0-.4.02-.54.04l.41-2.58h1.25c.6,0,.77-.03.85-.21l.07-.18.14.03-.21.98h-1.84l-.2,1.24c.09,0,.16,0,.28,0,.98,0,2.06.48,2.06,1.7s-1.1,1.96-2.12,1.96Z"/>
      <path class="cls-1" d="m26.33,30.78c.39,0,1.03.16,1.03.61,0,.27-.24.45-.51.42l-.04-.02c-.09-.38-.42-.65-.79-.65-.59,0-1.09.53-1.09,1.25,0,1.01.78,1.37,1.56,1.37.2,0,.4-.02.54-.04l-.41,2.58h-1.25c-.6,0-.77.03-.85.21l-.07.18-.14-.03.21-.98h1.84l.2-1.24c-.09,0-.16,0-.28,0-.98,0-2.06-.48-2.06-1.7s1.1-1.96,2.12-1.96Z"/>
      <g>
        <path class="cls-7" d="m11.63,12.49c-.58-.58-1.52-.58-2.09,0l-.38.38-.38-.38c-.58-.58-1.51-.58-2.09,0-.58.58-.58,1.51,0,2.09l.38.38,2.09,2.09.32-.32.03-.03,1.74-1.74.33-.33s.04-.03.06-.05c.58-.58.58-1.52,0-2.09Z"/>
        <path class="cls-1" d="m9.16,17.2l-2.55-2.55c-.62-.62-.62-1.63,0-2.25.3-.3.7-.47,1.12-.47h0c.42,0,.82.17,1.12.47l.3.3.3-.3c.3-.3.7-.47,1.12-.47h0c.42,0,.82.17,1.12.47h0c.62.62.62,1.63,0,2.25-.02.02-.04.04-.07.06l-2.48,2.49Zm-1.42-5.04h0c-.37,0-.71.14-.97.4-.53.53-.53,1.4,0,1.94l2.39,2.39,2.34-2.34s.04-.04.06-.05c.53-.54.53-1.41,0-1.94h0c-.26-.26-.6-.4-.97-.4h0c-.37,0-.71.14-.97.4l-.46.46-.46-.46c-.26-.26-.6-.4-.97-.4Z"/>
        <path class="cls-3" d="m17.65,17.75c-.58-.58-1.52-.58-2.09,0l-.38.38-.38-.38c-.58-.58-1.51-.58-2.09,0-.58.58-.58,1.51,0,2.09l.38.38,2.09,2.09.32-.32.03-.03,1.74-1.74.33-.33s.04-.03.06-.05c.58-.58.58-1.52,0-2.09Z"/>
        <path class="cls-1" d="m15.18,22.47l-2.55-2.55c-.62-.62-.62-1.63,0-2.25.3-.3.7-.47,1.12-.47h0c.42,0,.82.17,1.12.47l.3.3.3-.3c.3-.3.7-.47,1.12-.47h0c.42,0,.82.17,1.12.47h0c.62.62.62,1.63,0,2.25-.02.02-.04.04-.07.06l-2.48,2.49Zm-1.42-5.04h0c-.37,0-.71.14-.97.4-.53.53-.53,1.4,0,1.94l2.39,2.39,2.34-2.34s.04-.04.06-.05c.53-.54.53-1.41,0-1.94h0c-.26-.26-.6-.4-.97-.4h0c-.37,0-.71.14-.97.4l-.46.46-.46-.46c-.26-.26-.6-.4-.97-.4Z"/>
        <path class="cls-2" d="m6.69,27.18c.58.58,1.52.58,2.09,0l.38-.38.38.38c.58.58,1.51.58,2.09,0,.58-.58.58-1.51,0-2.09l-.38-.38-2.09-2.09-.32.32-.03.03-1.74,1.74-.33.33s-.04.03-.06.05c-.58.58-.58,1.52,0,2.09Z"/>
        <path class="cls-1" d="m9.16,22.47l2.55,2.55c.62.62.62,1.63,0,2.25-.3.3-.7.47-1.12.47h0c-.42,0-.82-.17-1.12-.47l-.3-.3-.3.3c-.3.3-.7.47-1.12.47h0c-.42,0-.82-.17-1.12-.47h0c-.62-.62-.62-1.63,0-2.25.02-.02.04-.04.07-.06l2.48-2.49Zm1.42,5.04h0c.37,0,.71-.14.97-.4.53-.53.53-1.4,0-1.94l-2.39-2.39-2.34,2.34s-.04.04-.06.05c-.53.54-.53,1.41,0,1.94h0c.26.26.6.4.97.4h0c.37,0,.71-.14.97-.4l.46-.46.46.46c.26.26.6.4.97.4Z"/>
        <path class="cls-5" d="m23.68,12.49c-.58-.58-1.52-.58-2.09,0l-.38.38-.38-.38c-.58-.58-1.51-.58-2.09,0-.58.58-.58,1.51,0,2.09l.38.38,2.09,2.09.32-.32.03-.03,1.74-1.74.33-.33s.04-.03.06-.05c.58-.58.58-1.52,0-2.09Z"/>
        <path class="cls-1" d="m21.2,17.2l-2.55-2.55c-.62-.62-.62-1.63,0-2.25.3-.3.7-.47,1.12-.47h0c.42,0,.82.17,1.12.47l.3.3.3-.3c.3-.3.7-.47,1.12-.47h0c.42,0,.82.17,1.12.47h0c.62.62.62,1.63,0,2.25-.02.02-.04.04-.07.06l-2.48,2.49Zm-1.42-5.04h0c-.37,0-.71.14-.97.4-.53.53-.53,1.4,0,1.94l2.39,2.39,2.34-2.34s.04-.04.06-.05c.53-.54.53-1.41,0-1.94h0c-.26-.26-.6-.4-.97-.4h0c-.37,0-.71.14-.97.4l-.46.46-.46-.46c-.26-.26-.6-.4-.97-.4Z"/>
        <path class="cls-4" d="m18.73,27.18c.58.58,1.52.58,2.09,0l.38-.38.38.38c.58.58,1.51.58,2.09,0,.58-.58.58-1.51,0-2.09l-.38-.38-2.09-2.09-.32.32-.03.03-1.74,1.74-.33.33s-.04.03-.06.05c-.58.58-.58,1.52,0,2.09Z"/>
        <path class="cls-1" d="m21.21,22.47l2.55,2.55c.62.62.62,1.63,0,2.25-.3.3-.7.47-1.12.47h0c-.42,0-.82-.17-1.12-.47l-.3-.3-.3.3c-.3.3-.7.47-1.12.47h0c-.42,0-.82-.17-1.12-.47h0c-.62-.62-.62-1.63,0-2.25.02-.02.04-.04.07-.06l2.48-2.49Zm1.42,5.04h0c.37,0,.71-.14.97-.4.53-.53.53-1.4,0-1.94l-2.39-2.39-2.34,2.34s-.04.04-.06.05c-.53.54-.53,1.41,0,1.94h0c.26.26.6.4.97.4h0c.37,0,.71-.14.97-.4l.46-.46.46.46c.26.26.6.4.97.4Z"/>
      </g>
    </g>
  </g>
</svg>