<?xml version="1.0" encoding="UTF-8"?>
<svg id="Laag_2" data-name="Laag 2" xmlns="http://www.w3.org/2000/svg" xmlns:xlink="http://www.w3.org/1999/xlink" viewBox="0 0 30.36 39.67">
  <defs>
    <style>
      .cls-1 {
        fill: #ff3e48;
      }

      .cls-2 {
        fill: url(#Naamloos_verloop_87-5);
      }

      .cls-3 {
        fill: url(#Naamloos_verloop_87-2);
      }

      .cls-4 {
        fill: url(#Naamloos_verloop_87-3);
      }

      .cls-5 {
        fill: url(#Naamloos_verloop_87-4);
      }

      .cls-6 {
        fill: url(#Naamloos_verloop_257);
        stroke: #fff;
        stroke-miterlimit: 10;
      }

      .cls-7 {
        fill: url(#Naamloos_verloop_87);
      }
    </style>
    <linearGradient id="Naamloos_verloop_257" data-name="Naamloos verloop 257" x1="15.18" y1="39.17" x2="15.18" y2=".5" gradientUnits="userSpaceOnUse">
      <stop offset="0" stop-color="#f0f0f0"/>
      <stop offset="1" stop-color="#fcfcfc"/>
    </linearGradient>
    <linearGradient id="Naamloos_verloop_87" data-name="Naamloos verloop 87" x1="9.21" y1="11.61" x2="9.21" y2="17.09" gradientUnits="userSpaceOnUse">
      <stop offset="0" stop-color="#ff7078"/>
      <stop offset="1" stop-color="#ff3e48"/>
    </linearGradient>
    <linearGradient id="Naamloos_verloop_87-2" data-name="Naamloos verloop 87" y1="22.58" y2="28.06" xlink:href="#Naamloos_verloop_87"/>
    <linearGradient id="Naamloos_verloop_87-3" data-name="Naamloos verloop 87" x1="21.15" x2="21.15" xlink:href="#Naamloos_verloop_87"/>
    <linearGradient id="Naamloos_verloop_87-4" data-name="Naamloos verloop 87" x1="15.18" y1="17.09" x2="15.18" y2="22.58" xlink:href="#Naamloos_verloop_87"/>
    <linearGradient id="Naamloos_verloop_87-5" data-name="Naamloos verloop 87" x1="21.15" y1="22.58" x2="21.15" y2="28.06" xlink:href="#Naamloos_verloop_87"/>
  </defs>
  <g id="Laag_1-2" data-name="Laag 1">
    <g>
      <rect class="cls-6" x=".5" y=".5" width="29.36" height="38.67" rx="2" ry="2"/>
      <g>
        <path class="cls-7" d="m8.91,16.93l-1.54-2.38c-.08-.12-.08-.27,0-.39l1.54-2.38c.14-.22.46-.22.6,0l1.54,2.38c.08.12.08.27,0,.39l-1.54,2.38c-.14.22-.46.22-.6,0Z"/>
        <path class="cls-1" d="m9.21,17.18c-.15,0-.29-.08-.38-.21l-1.54-2.38c-.1-.15-.1-.34,0-.49l1.54-2.38c.08-.13.22-.2.38-.2h0c.15,0,.29.08.38.2l1.54,2.38c.1.15.1.34,0,.49l-1.54,2.38c-.08.13-.22.2-.38.21h0Zm-.23-.3c.05.08.13.12.23.12h0c.09,0,.18-.05.23-.12l1.54-2.38c.06-.09.06-.2,0-.29l-1.54-2.38c-.05-.08-.13-.12-.23-.12h0c-.09,0-.18.04-.23.12l-1.54,2.38c-.06.09-.06.2,0,.29l1.54,2.38Z"/>
      </g>
      <g>
        <path class="cls-3" d="m8.91,27.9l-1.54-2.38c-.08-.12-.08-.27,0-.39l1.54-2.38c.14-.22.46-.22.6,0l1.54,2.38c.08.12.08.27,0,.39l-1.54,2.38c-.14.22-.46.22-.6,0Z"/>
        <path class="cls-1" d="m9.21,28.15c-.15,0-.29-.08-.38-.21l-1.54-2.38c-.1-.15-.1-.34,0-.49l1.54-2.38c.08-.13.22-.2.38-.2h0c.15,0,.29.08.38.2l1.54,2.38c.1.15.1.34,0,.49l-1.54,2.38c-.08.13-.22.2-.38.21h0Zm-.23-.3c.05.08.13.12.23.12h0c.09,0,.18-.05.23-.12l1.54-2.38c.06-.09.06-.2,0-.29l-1.54-2.38c-.05-.08-.13-.12-.23-.12h0c-.09,0-.18.04-.23.12l-1.54,2.38c-.06.09-.06.2,0,.29l1.54,2.38Z"/>
      </g>
      <g>
        <path class="cls-4" d="m20.85,16.93l-1.54-2.38c-.08-.12-.08-.27,0-.39l1.54-2.38c.14-.22.46-.22.6,0l1.54,2.38c.08.12.08.27,0,.39l-1.54,2.38c-.14.22-.46.22-.6,0Z"/>
        <path class="cls-1" d="m21.15,17.18c-.15,0-.29-.08-.38-.21l-1.54-2.38c-.1-.15-.1-.34,0-.49l1.54-2.38c.08-.13.22-.2.38-.2h0c.15,0,.29.08.38.2l1.54,2.38c.1.15.1.34,0,.49l-1.54,2.38c-.08.13-.22.2-.38.21h0Zm-.23-.3c.05.08.13.12.23.12h0c.09,0,.18-.05.23-.12l1.54-2.38c.06-.09.06-.2,0-.29l-1.54-2.38c-.05-.08-.13-.12-.23-.12h0c-.09,0-.18.04-.23.12l-1.54,2.38c-.06.09-.06.2,0,.29l1.54,2.38Z"/>
      </g>
      <g>
        <path class="cls-5" d="m14.88,22.41l-1.54-2.38c-.08-.12-.08-.27,0-.39l1.54-2.38c.14-.22.46-.22.6,0l1.54,2.38c.08.12.08.27,0,.39l-1.54,2.38c-.14.22-.46.22-.6,0Z"/>
        <path class="cls-1" d="m15.18,22.67c-.15,0-.29-.08-.38-.21l-1.54-2.38c-.1-.15-.1-.34,0-.49l1.54-2.38c.08-.13.22-.2.38-.2h0c.15,0,.29.08.38.2l1.54,2.38c.1.15.1.34,0,.49l-1.54,2.38c-.08.13-.22.2-.38.21h0Zm-.23-.3c.05.08.13.12.23.12h0c.09,0,.18-.05.23-.12l1.54-2.38c.06-.09.06-.2,0-.29l-1.54-2.38c-.05-.08-.13-.12-.23-.12h0c-.09,0-.18.04-.23.12l-1.54,2.38c-.06.09-.06.2,0,.29l1.54,2.38Z"/>
      </g>
      <g>
        <path class="cls-2" d="m20.85,27.9l-1.54-2.38c-.08-.12-.08-.27,0-.39l1.54-2.38c.14-.22.46-.22.6,0l1.54,2.38c.08.12.08.27,0,.39l-1.54,2.38c-.14.22-.46.22-.6,0Z"/>
        <path class="cls-1" d="m21.15,28.15c-.15,0-.29-.08-.38-.21l-1.54-2.38c-.1-.15-.1-.34,0-.49l1.54-2.38c.08-.13.22-.2.38-.2h0c.15,0,.29.08.38.2l1.54,2.38c.1.15.1.34,0,.49l-1.54,2.38c-.08.13-.22.2-.38.21h0Zm-.23-.3c.05.08.13.12.23.12h0c.09,0,.18-.05.23-.12l1.54-2.38c.06-.09.06-.2,0-.29l-1.54-2.38c-.05-.08-.13-.12-.23-.12h0c-.09,0-.18.04-.23.12l-1.54,2.38c-.06.09-.06.2,0,.29l1.54,2.38Z"/>
      </g>
      <path class="cls-1" d="m3.53,8.35c-.39,0-1.03-.16-1.03-.61,0-.27.24-.45.51-.42l.04.02c.09.38.42.65.79.65.59,0,1.09-.53,1.09-1.25,0-1.01-.78-1.37-1.56-1.37-.2,0-.4.02-.54.04l.41-2.58h1.25c.6,0,.77-.03.85-.21l.07-.18.14.03-.21.98h-1.84l-.2,1.24c.09,0,.16,0,.28,0,.98,0,2.06.48,2.06,1.7s-1.1,1.96-2.12,1.96Z"/>
      <path class="cls-1" d="m26.33,30.78c.39,0,1.03.16,1.03.61,0,.27-.24.45-.51.42l-.04-.02c-.09-.38-.42-.65-.79-.65-.59,0-1.09.53-1.09,1.25,0,1.01.78,1.37,1.56,1.37.2,0,.4-.02.54-.04l-.41,2.58h-1.25c-.6,0-.77.03-.85.21l-.07.18-.14-.03.21-.98h1.84l.2-1.24c-.09,0-.16,0-.28,0-.98,0-2.06-.48-2.06-1.7s1.1-1.96,2.12-1.96Z"/>
    </g>
  </g>
</svg>