<?xml version="1.0" encoding="UTF-8"?>
<svg id="Laag_2" data-name="Laag 2" xmlns="http://www.w3.org/2000/svg" xmlns:xlink="http://www.w3.org/1999/xlink" viewBox="0 0 30.36 39.67">
  <defs>
    <style>
      .cls-1 {
        fill: #1a1a1a;
      }

      .cls-2 {
        fill: url(#Naamloos_verloop_81-5);
      }

      .cls-3 {
        fill: url(#Naamloos_verloop_81-3);
      }

      .cls-4 {
        fill: url(#Naamloos_verloop_81-4);
      }

      .cls-5 {
        fill: url(#Naamloos_verloop_81-2);
      }

      .cls-6 {
        fill: url(#Naamloos_verloop_85-5);
      }

      .cls-7 {
        fill: url(#Naamloos_verloop_85-2);
      }

      .cls-8 {
        fill: url(#Naamloos_verloop_85-4);
      }

      .cls-9 {
        fill: url(#Naamloos_verloop_85-3);
      }

      .cls-10 {
        fill: url(#Naamloos_verloop_257);
        stroke: #fff;
        stroke-miterlimit: 10;
      }

      .cls-11 {
        fill: url(#Naamloos_verloop_85);
      }

      .cls-12 {
        fill: url(#Naamloos_verloop_81);
      }
    </style>
    <linearGradient id="Naamloos_verloop_257" data-name="Naamloos verloop 257" x1="15.18" y1="39.17" x2="15.18" y2=".5" gradientUnits="userSpaceOnUse">
      <stop offset="0" stop-color="#f0f0f0"/>
      <stop offset="1" stop-color="#fcfcfc"/>
    </linearGradient>
    <linearGradient id="Naamloos_verloop_81" data-name="Naamloos verloop 81" x1="10.73" y1="12.22" x2="10.73" y2="15.64" gradientUnits="userSpaceOnUse">
      <stop offset="0" stop-color="#333"/>
      <stop offset="1" stop-color="#1a1a1a"/>
    </linearGradient>
    <linearGradient id="Naamloos_verloop_85" data-name="Naamloos verloop 85" x1="10.73" y1="17.01" x2="10.73" y2="15.45" gradientUnits="userSpaceOnUse">
      <stop offset="0" stop-color="#333"/>
      <stop offset="1" stop-color="#1a1a1a"/>
    </linearGradient>
    <linearGradient id="Naamloos_verloop_81-2" data-name="Naamloos verloop 81" x1="15.18" y1="17.48" x2="15.18" y2="20.91" xlink:href="#Naamloos_verloop_81"/>
    <linearGradient id="Naamloos_verloop_85-2" data-name="Naamloos verloop 85" x1="15.18" y1="22.27" x2="15.18" y2="20.71" xlink:href="#Naamloos_verloop_85"/>
    <linearGradient id="Naamloos_verloop_81-3" data-name="Naamloos verloop 81" x1="-227.24" y1="24.28" x2="-227.24" y2="27.7" gradientTransform="translate(-216.51 51.73) rotate(-180)" xlink:href="#Naamloos_verloop_81"/>
    <linearGradient id="Naamloos_verloop_85-3" data-name="Naamloos verloop 85" x1="-227.24" y1="29.06" x2="-227.24" y2="27.5" gradientTransform="translate(-216.51 51.73) rotate(-180)" xlink:href="#Naamloos_verloop_85"/>
    <linearGradient id="Naamloos_verloop_81-4" data-name="Naamloos verloop 81" x1="19.63" x2="19.63" xlink:href="#Naamloos_verloop_81"/>
    <linearGradient id="Naamloos_verloop_85-4" data-name="Naamloos verloop 85" x1="19.63" x2="19.63" xlink:href="#Naamloos_verloop_85"/>
    <linearGradient id="Naamloos_verloop_81-5" data-name="Naamloos verloop 81" x1="-236.14" y1="24.28" x2="-236.14" y2="27.7" gradientTransform="translate(-216.51 51.73) rotate(-180)" xlink:href="#Naamloos_verloop_81"/>
    <linearGradient id="Naamloos_verloop_85-5" data-name="Naamloos verloop 85" x1="-236.14" y1="29.06" x2="-236.14" y2="27.5" gradientTransform="translate(-216.51 51.73) rotate(-180)" xlink:href="#Naamloos_verloop_85"/>
  </defs>
  <g id="Laag_1-2" data-name="Laag 1">
    <g>
      <rect class="cls-10" x=".5" y=".5" width="29.36" height="38.67" rx="2" ry="2"/>
      <g>
        <path class="cls-12" d="m12.47,15.35c-.18.19-.43.29-.7.29s-.51-.1-.69-.29l-.35-.35-.34.35c-.19.19-.43.29-.7.29s-.51-.1-.7-.29c-.38-.38-.38-1.01,0-1.39,0,0,.02-.02.04-.04l1.7-1.7,1.74,1.74c.38.38.38,1.01,0,1.39Z"/>
        <g>
          <path class="cls-11" d="m11.45,17.01h-1.43c.06-.04.12-.09.18-.15.4-.41.48-1.08.5-1.41h.07c.02.33.11,1,.5,1.41.05.05.11.11.18.15Z"/>
          <path class="cls-1" d="m12.61,15.49c.46-.46.46-1.21,0-1.67l-1.88-1.88-1.83,1.83s-.04.03-.05.05c-.23.23-.35.53-.35.83s.12.61.35.83c.22.22.52.35.83.35s.58-.11.8-.32c-.04.49-.23,1.49-1.15,1.49v.19h2.77v-.19c-.92,0-1.11-1-1.15-1.49.22.2.51.32.81.32.32,0,.62-.13.83-.35Zm-2.59,1.52c.06-.04.12-.09.18-.15.4-.41.48-1.08.5-1.41h.07c.02.33.11,1,.5,1.41.05.05.11.11.18.15h-1.43Zm.71-2l-.34.35c-.19.19-.43.29-.7.29s-.51-.1-.7-.29c-.38-.38-.38-1.01,0-1.39,0,0,.02-.02.04-.04l1.7-1.7,1.74,1.74c.38.38.38,1.01,0,1.39-.18.19-.43.29-.7.29s-.51-.1-.69-.29l-.35-.35Z"/>
        </g>
      </g>
      <g>
        <path class="cls-5" d="m16.92,20.62c-.18.19-.43.29-.7.29s-.51-.1-.69-.29l-.35-.35-.34.35c-.19.19-.43.29-.7.29s-.51-.1-.7-.29c-.38-.38-.38-1.01,0-1.39,0,0,.02-.02.04-.04l1.7-1.7,1.74,1.74c.38.38.38,1.01,0,1.39Z"/>
        <g>
          <path class="cls-7" d="m15.9,22.27h-1.43c.06-.04.12-.09.18-.15.4-.41.48-1.08.5-1.41h.07c.02.33.11,1,.5,1.41.05.05.11.11.18.15Z"/>
          <path class="cls-1" d="m17.06,20.75c.46-.46.46-1.21,0-1.67l-1.88-1.88-1.83,1.83s-.04.03-.05.05c-.23.23-.35.53-.35.83s.12.61.35.83c.22.22.52.35.83.35s.58-.11.8-.32c-.04.49-.23,1.49-1.15,1.49v.19h2.77v-.19c-.92,0-1.11-1-1.15-1.49.22.2.51.32.81.32.32,0,.62-.13.83-.35Zm-2.59,1.52c.06-.04.12-.09.18-.15.4-.41.48-1.08.5-1.41h.07c.02.33.11,1,.5,1.41.05.05.11.11.18.15h-1.43Zm.71-2l-.34.35c-.19.19-.43.29-.7.29s-.51-.1-.7-.29c-.38-.38-.38-1.01,0-1.39,0,0,.02-.02.04-.04l1.7-1.7,1.74,1.74c.38.38.38,1.01,0,1.39-.18.19-.43.29-.7.29s-.51-.1-.69-.29l-.35-.35Z"/>
        </g>
      </g>
      <g>
        <path class="cls-3" d="m8.99,24.31c.18-.19.43-.29.7-.29s.51.1.69.29l.35.35.34-.35c.19-.19.43-.29.7-.29s.51.1.7.29c.38.38.38,1.01,0,1.39,0,0-.02.02-.04.04l-1.7,1.7-1.74-1.74c-.38-.38-.38-1.01,0-1.39Z"/>
        <g>
          <path class="cls-9" d="m10.02,22.66h1.43c-.06.04-.12.09-.18.15-.4.41-.48,1.08-.5,1.41h-.07c-.02-.33-.11-1-.5-1.41-.05-.05-.11-.11-.18-.15Z"/>
          <path class="cls-1" d="m8.85,24.18c-.46.46-.46,1.21,0,1.67l1.88,1.88,1.83-1.83s.04-.03.05-.05c.23-.23.35-.53.35-.83s-.12-.61-.35-.83c-.22-.22-.52-.35-.83-.35s-.58.11-.8.32c.04-.49.23-1.49,1.15-1.49v-.19h-2.77v.19c.92,0,1.11,1,1.15,1.49-.22-.2-.51-.32-.81-.32-.32,0-.62.13-.83.35Zm2.59-1.52c-.06.04-.12.09-.18.15-.4.41-.48,1.08-.5,1.41h-.07c-.02-.33-.11-1-.5-1.41-.05-.05-.11-.11-.18-.15h1.43Zm-.71,2l.34-.35c.19-.19.43-.29.7-.29s.51.1.7.29c.38.38.38,1.01,0,1.39,0,0-.02.02-.04.04l-1.7,1.7-1.74-1.74c-.38-.38-.38-1.01,0-1.39.18-.19.43-.29.7-.29s.51.1.69.29l.35.35Z"/>
        </g>
      </g>
      <g>
        <path class="cls-4" d="m21.37,15.35c-.18.19-.43.29-.7.29s-.51-.1-.69-.29l-.35-.35-.34.35c-.19.19-.43.29-.7.29s-.51-.1-.7-.29c-.38-.38-.38-1.01,0-1.39,0,0,.02-.02.04-.04l1.7-1.7,1.74,1.74c.38.38.38,1.01,0,1.39Z"/>
        <g>
          <path class="cls-8" d="m20.35,17.01h-1.43c.06-.04.12-.09.18-.15.4-.41.48-1.08.5-1.41h.07c.02.33.11,1,.5,1.41.05.05.11.11.18.15Z"/>
          <path class="cls-1" d="m21.51,15.49c.46-.46.46-1.21,0-1.67l-1.88-1.88-1.83,1.83s-.04.03-.05.05c-.23.23-.35.53-.35.83s.12.61.35.83c.22.22.52.35.83.35s.58-.11.8-.32c-.04.49-.23,1.49-1.15,1.49v.19h2.77v-.19c-.92,0-1.11-1-1.15-1.49.22.2.51.32.81.32.32,0,.62-.13.83-.35Zm-2.59,1.52c.06-.04.12-.09.18-.15.4-.41.48-1.08.5-1.41h.07c.02.33.11,1,.5,1.41.05.05.11.11.18.15h-1.43Zm.71-2l-.34.35c-.19.19-.43.29-.7.29s-.51-.1-.7-.29c-.38-.38-.38-1.01,0-1.39,0,0,.02-.02.04-.04l1.7-1.7,1.74,1.74c.38.38.38,1.01,0,1.39-.18.19-.43.29-.7.29s-.51-.1-.69-.29l-.35-.35Z"/>
        </g>
      </g>
      <g>
        <path class="cls-2" d="m17.89,24.31c.18-.19.43-.29.7-.29s.51.1.69.29l.35.35.34-.35c.19-.19.43-.29.7-.29s.51.1.7.29c.38.38.38,1.01,0,1.39,0,0-.02.02-.04.04l-1.7,1.7-1.74-1.74c-.38-.38-.38-1.01,0-1.39Z"/>
        <g>
          <path class="cls-6" d="m18.92,22.66h1.43c-.06.04-.12.09-.18.15-.4.41-.48,1.08-.5,1.41h-.07c-.02-.33-.11-1-.5-1.41-.05-.05-.11-.11-.18-.15Z"/>
          <path class="cls-1" d="m17.75,24.18c-.46.46-.46,1.21,0,1.67l1.88,1.88,1.83-1.83s.04-.03.05-.05c.23-.23.35-.53.35-.83s-.12-.61-.35-.83c-.22-.22-.52-.35-.83-.35s-.58.11-.8.32c.04-.49.23-1.49,1.15-1.49v-.19h-2.77v.19c.92,0,1.11,1,1.15,1.49-.22-.2-.51-.32-.81-.32-.32,0-.62.13-.83.35Zm2.59-1.52c-.06.04-.12.09-.18.15-.4.41-.48,1.08-.5,1.41h-.07c-.02-.33-.11-1-.5-1.41-.05-.05-.11-.11-.18-.15h1.43Zm-.71,2l.34-.35c.19-.19.43-.29.7-.29s.51.1.7.29c.38.38.38,1.01,0,1.39,0,0-.02.02-.04.04l-1.7,1.7-1.74-1.74c-.38-.38-.38-1.01,0-1.39.18-.19.43-.29.7-.29s.51.1.69.29l.35.35Z"/>
        </g>
      </g>
      <path class="cls-1" d="m3.53,8.35c-.39,0-1.03-.16-1.03-.61,0-.27.24-.45.51-.42l.04.02c.09.38.42.65.79.65.59,0,1.09-.53,1.09-1.25,0-1.01-.78-1.37-1.56-1.37-.2,0-.4.02-.54.04l.41-2.58h1.25c.6,0,.77-.03.85-.21l.07-.18.14.03-.21.98h-1.84l-.2,1.24c.09,0,.16,0,.28,0,.98,0,2.06.48,2.06,1.7s-1.1,1.96-2.12,1.96Z"/>
      <path class="cls-1" d="m26.33,30.78c.39,0,1.03.16,1.03.61,0,.27-.24.45-.51.42l-.04-.02c-.09-.38-.42-.65-.79-.65-.59,0-1.09.53-1.09,1.25,0,1.01.78,1.37,1.56,1.37.2,0,.4-.02.54-.04l-.41,2.58h-1.25c-.6,0-.77.03-.85.21l-.07.18-.14-.03.21-.98h1.84l.2-1.24c-.09,0-.16,0-.28,0-.98,0-2.06-.48-2.06-1.7s1.1-1.96,2.12-1.96Z"/>
    </g>
  </g>
</svg>