<?xml version="1.0" encoding="UTF-8"?>
<svg id="Laag_2" data-name="Laag 2" xmlns="http://www.w3.org/2000/svg" xmlns:xlink="http://www.w3.org/1999/xlink" viewBox="0 0 30.36 39.67">
  <defs>
    <style>
      .cls-1 {
        fill: #ff3e48;
      }

      .cls-2 {
        fill: url(#Naamloos_verloop_65-3);
      }

      .cls-3 {
        fill: url(#Naamloos_verloop_65-2);
      }

      .cls-4 {
        fill: url(#Naamloos_verloop_65-5);
      }

      .cls-5 {
        fill: url(#Naamloos_verloop_65-4);
      }

      .cls-6 {
        fill: url(#Naamloos_verloop_65-6);
      }

      .cls-7 {
        fill: url(#Naamloos_verloop_257);
        stroke: #fff;
        stroke-miterlimit: 10;
      }

      .cls-8 {
        fill: url(#Naamloos_verloop_65);
      }
    </style>
    <linearGradient id="Naamloos_verloop_257" data-name="Naamloos verloop 257" x1="15.18" y1="39.17" x2="15.18" y2=".5" gradientUnits="userSpaceOnUse">
      <stop offset="0" stop-color="#f0f0f0"/>
      <stop offset="1" stop-color="#fcfcfc"/>
    </linearGradient>
    <linearGradient id="Naamloos_verloop_65" data-name="Naamloos verloop 65" x1="-314.66" y1="16.04" x2="-314.66" y2="21.03" gradientTransform="translate(335.67 -7.27)" gradientUnits="userSpaceOnUse">
      <stop offset="0" stop-color="#ff7078"/>
      <stop offset="1" stop-color="#ff3e48"/>
    </linearGradient>
    <linearGradient id="Naamloos_verloop_65-2" data-name="Naamloos verloop 65" x1="16.22" y1="17.29" x2="16.22" y2="22.29" gradientTransform="translate(37.23 39.63) rotate(-180)" xlink:href="#Naamloos_verloop_65"/>
    <linearGradient id="Naamloos_verloop_65-3" data-name="Naamloos verloop 65" x1="16.22" y1="8.77" x2="16.22" y2="13.77" gradientTransform="translate(37.23 39.63) rotate(-180)" xlink:href="#Naamloos_verloop_65"/>
    <linearGradient id="Naamloos_verloop_65-4" data-name="Naamloos verloop 65" x1="-307.4" y1="16.04" x2="-307.4" y2="21.03" gradientTransform="translate(-298.44 46.9) rotate(-180)" xlink:href="#Naamloos_verloop_65"/>
    <linearGradient id="Naamloos_verloop_65-5" data-name="Naamloos verloop 65" x1="8.96" y1="17.29" x2="8.96" y2="22.29" gradientTransform="matrix(1,0,0,1,0,0)" xlink:href="#Naamloos_verloop_65"/>
    <linearGradient id="Naamloos_verloop_65-6" data-name="Naamloos verloop 65" x1="8.96" y1="8.77" x2="8.96" y2="13.77" gradientTransform="matrix(1,0,0,1,0,0)" xlink:href="#Naamloos_verloop_65"/>
  </defs>
  <g id="Laag_1-2" data-name="Laag 1">
    <g>
      <rect class="cls-7" x=".5" y=".5" width="29.36" height="38.67" rx="2" ry="2"/>
      <path class="cls-1" d="m4.71,8.24c-.98,0-1.65-.78-1.65-1.98,0-1.42,1-3.5,3.81-3.7l.02.23c-2.06.25-3,1.86-3,3.48,0,.97.37,1.67.94,1.67.49,0,.82-.44.82-1.24,0-.64-.38-1.24-1.06-1.24-.18,0-.28.02-.39.07l-.06-.14c.25-.2.53-.36.95-.36.77,0,1.34.58,1.34,1.44,0,1.01-.74,1.76-1.74,1.76Z"/>
      <path class="cls-1" d="m25.64,30.89c.98,0,1.65.78,1.65,1.98,0,1.42-1,3.5-3.81,3.7l-.02-.23c2.06-.25,3-1.86,3-3.48,0-.97-.37-1.67-.94-1.67-.49,0-.82.44-.82,1.24,0,.64.38,1.24,1.06,1.24.18,0,.28-.02.39-.07l.06.14c-.25.2-.53.36-.95.36-.77,0-1.34-.58-1.34-1.44,0-1.01.74-1.76,1.74-1.76Z"/>
      <g>
        <g>
          <path class="cls-8" d="m23.48,9.21c-.58-.58-1.52-.58-2.09,0l-.38.38-.38-.38c-.58-.58-1.51-.58-2.09,0-.58.58-.58,1.51,0,2.09l.38.38,2.09,2.09.32-.32.03-.03,1.74-1.74.33-.33s.04-.03.06-.05c.58-.58.58-1.52,0-2.09Z"/>
          <path class="cls-1" d="m21.01,13.92l-2.55-2.55c-.62-.62-.62-1.63,0-2.25.3-.3.7-.47,1.12-.47h0c.42,0,.82.17,1.12.47l.3.3.3-.3c.3-.3.7-.47,1.12-.47h0c.42,0,.82.17,1.12.47h0c.62.62.62,1.63,0,2.25-.02.02-.04.04-.07.06l-2.48,2.49Zm-1.42-5.04h0c-.37,0-.71.14-.97.4-.53.53-.53,1.4,0,1.94l2.39,2.39,2.34-2.34s.04-.04.06-.05c.53-.54.53-1.41,0-1.94h0c-.26-.26-.6-.4-.97-.4h0c-.37,0-.71.14-.97.4l-.46.46-.46-.46c-.26-.26-.6-.4-.97-.4Z"/>
        </g>
        <g>
          <path class="cls-3" d="m18.54,21.9c.58.58,1.52.58,2.09,0l.38-.38.38.38c.58.58,1.51.58,2.09,0,.58-.58.58-1.51,0-2.09l-.38-.38-2.09-2.09-.32.32-.03.03-1.74,1.74-.33.33s-.04.03-.06.05c-.58.58-.58,1.52,0,2.09Z"/>
          <path class="cls-1" d="m21.01,17.19l2.55,2.55c.62.62.62,1.63,0,2.25-.3.3-.7.47-1.12.47h0c-.42,0-.82-.17-1.12-.47l-.3-.3-.3.3c-.3.3-.7.47-1.12.47h0c-.42,0-.82-.17-1.12-.47h0c-.62-.62-.62-1.63,0-2.25.02-.02.04-.04.07-.06l2.48-2.49Zm1.42,5.04h0c.37,0,.71-.14.97-.4.53-.53.53-1.4,0-1.94l-2.39-2.39-2.34,2.34s-.04.04-.06.05c-.53.54-.53,1.41,0,1.94h0c.26.26.6.4.97.4h0c.37,0,.71-.14.97-.4l.46-.46.46.46c.26.26.6.4.97.4Z"/>
        </g>
        <g>
          <path class="cls-2" d="m18.54,30.43c.58.58,1.52.58,2.09,0l.38-.38.38.38c.58.58,1.51.58,2.09,0,.58-.58.58-1.51,0-2.09l-.38-.38-2.09-2.09-.32.32-.03.03-1.74,1.74-.33.33s-.04.03-.06.05c-.58.58-.58,1.52,0,2.09Z"/>
          <path class="cls-1" d="m21.01,25.71l2.55,2.55c.62.62.62,1.63,0,2.25-.3.3-.7.47-1.12.47h0c-.42,0-.82-.17-1.12-.47l-.3-.3-.3.3c-.3.3-.7.47-1.12.47h0c-.42,0-.82-.17-1.12-.47h0c-.62-.62-.62-1.63,0-2.25.02-.02.04-.04.07-.06l2.48-2.49Zm1.42,5.04h0c.37,0,.71-.14.97-.4.53-.53.53-1.4,0-1.94l-2.39-2.39-2.34,2.34s-.04.04-.06.05c-.53.54-.53,1.41,0,1.94h0c.26.26.6.4.97.4h0c.37,0,.71-.14.97-.4l.46-.46.46.46c.26.26.6.4.97.4Z"/>
        </g>
      </g>
      <g>
        <g>
          <path class="cls-5" d="m6.48,30.43c.58.58,1.52.58,2.09,0l.38-.38.38.38c.58.58,1.51.58,2.09,0,.58-.58.58-1.51,0-2.09l-.38-.38-2.09-2.09-.32.32-.03.03-1.74,1.74-.33.33s-.04.03-.06.05c-.58.58-.58,1.52,0,2.09Z"/>
          <path class="cls-1" d="m8.96,25.71l2.55,2.55c.62.62.62,1.63,0,2.25-.3.3-.7.47-1.12.47h0c-.42,0-.82-.17-1.12-.47l-.3-.3-.3.3c-.3.3-.7.47-1.12.47h0c-.42,0-.82-.17-1.12-.47h0c-.62-.62-.62-1.63,0-2.25.02-.02.04-.04.07-.06l2.48-2.49Zm1.42,5.04h0c.37,0,.71-.14.97-.4.53-.53.53-1.4,0-1.94l-2.39-2.39-2.34,2.34s-.04.04-.06.05c-.53.54-.53,1.41,0,1.94h0c.26.26.6.4.97.4h0c.37,0,.71-.14.97-.4l.46-.46.46.46c.26.26.6.4.97.4Z"/>
        </g>
        <g>
          <path class="cls-4" d="m11.43,17.73c-.58-.58-1.52-.58-2.09,0l-.38.38-.38-.38c-.58-.58-1.51-.58-2.09,0-.58.58-.58,1.51,0,2.09l.38.38,2.09,2.09.32-.32.03-.03,1.74-1.74.33-.33s.04-.03.06-.05c.58-.58.58-1.52,0-2.09Z"/>
          <path class="cls-1" d="m8.96,22.45l-2.55-2.55c-.62-.62-.62-1.63,0-2.25.3-.3.7-.47,1.12-.47h0c.42,0,.82.17,1.12.47l.3.3.3-.3c.3-.3.7-.47,1.12-.47h0c.42,0,.82.17,1.12.47h0c.62.62.62,1.63,0,2.25-.02.02-.04.04-.07.06l-2.48,2.49Zm-1.42-5.04h0c-.37,0-.71.14-.97.4-.53.53-.53,1.4,0,1.94l2.39,2.39,2.34-2.34s.04-.04.06-.05c.53-.54.53-1.41,0-1.94h0c-.26-.26-.6-.4-.97-.4h0c-.37,0-.71.14-.97.4l-.46.46-.46-.46c-.26-.26-.6-.4-.97-.4Z"/>
        </g>
        <g>
          <path class="cls-6" d="m11.43,9.21c-.58-.58-1.52-.58-2.09,0l-.38.38-.38-.38c-.58-.58-1.51-.58-2.09,0-.58.58-.58,1.51,0,2.09l.38.38,2.09,2.09.32-.32.03-.03,1.74-1.74.33-.33s.04-.03.06-.05c.58-.58.58-1.52,0-2.09Z"/>
          <path class="cls-1" d="m8.96,13.92l-2.55-2.55c-.62-.62-.62-1.63,0-2.25.3-.3.7-.47,1.12-.47h0c.42,0,.82.17,1.12.47l.3.3.3-.3c.3-.3.7-.47,1.12-.47h0c.42,0,.82.17,1.12.47h0c.62.62.62,1.63,0,2.25-.02.02-.04.04-.07.06l-2.48,2.49Zm-1.42-5.04h0c-.37,0-.71.14-.97.4-.53.53-.53,1.4,0,1.94l2.39,2.39,2.34-2.34s.04-.04.06-.05c.53-.54.53-1.41,0-1.94h0c-.26-.26-.6-.4-.97-.4h0c-.37,0-.71.14-.97.4l-.46.46-.46-.46c-.26-.26-.6-.4-.97-.4Z"/>
        </g>
      </g>
    </g>
  </g>
</svg>