<?xml version="1.0" encoding="UTF-8"?>
<svg id="Laag_2" data-name="Laag 2" xmlns="http://www.w3.org/2000/svg" xmlns:xlink="http://www.w3.org/1999/xlink" viewBox="0 0 30.36 39.67">
  <defs>
    <style>
      .cls-1 {
        fill: #1a1a1a;
      }

      .cls-2 {
        fill: url(#Naamloos_verloop_81-6);
      }

      .cls-3 {
        fill: url(#Naamloos_verloop_81-7);
      }

      .cls-4 {
        fill: url(#Naamloos_verloop_81-5);
      }

      .cls-5 {
        fill: url(#Naamloos_verloop_81-3);
      }

      .cls-6 {
        fill: url(#Naamloos_verloop_81-4);
      }

      .cls-7 {
        fill: url(#Naamloos_verloop_81-2);
      }

      .cls-8 {
        fill: url(#Naamloos_verloop_81-9);
      }

      .cls-9 {
        fill: url(#Naamloos_verloop_81-8);
      }

      .cls-10 {
        fill: url(#Naamloos_verloop_85-5);
      }

      .cls-11 {
        fill: url(#Naamloos_verloop_85-2);
      }

      .cls-12 {
        fill: url(#Naamloos_verloop_85-4);
      }

      .cls-13 {
        fill: url(#Naamloos_verloop_85-6);
      }

      .cls-14 {
        fill: url(#Naamloos_verloop_85-3);
      }

      .cls-15 {
        fill: url(#Naamloos_verloop_257);
        stroke: #fff;
        stroke-miterlimit: 10;
      }

      .cls-16 {
        fill: url(#Naamloos_verloop_81-17);
      }

      .cls-17 {
        fill: url(#Naamloos_verloop_81-16);
      }

      .cls-18 {
        fill: url(#Naamloos_verloop_81-18);
      }

      .cls-19 {
        fill: url(#Naamloos_verloop_81-11);
      }

      .cls-20 {
        fill: url(#Naamloos_verloop_81-10);
      }

      .cls-21 {
        fill: url(#Naamloos_verloop_81-13);
      }

      .cls-22 {
        fill: url(#Naamloos_verloop_81-12);
      }

      .cls-23 {
        fill: url(#Naamloos_verloop_81-15);
      }

      .cls-24 {
        fill: url(#Naamloos_verloop_81-14);
      }

      .cls-25 {
        fill: url(#Naamloos_verloop_85);
      }

      .cls-26 {
        fill: url(#Naamloos_verloop_81);
      }
    </style>
    <linearGradient id="Naamloos_verloop_257" data-name="Naamloos verloop 257" x1="15.18" y1="39.17" x2="15.18" y2=".5" gradientUnits="userSpaceOnUse">
      <stop offset="0" stop-color="#f0f0f0"/>
      <stop offset="1" stop-color="#fcfcfc"/>
    </linearGradient>
    <linearGradient id="Naamloos_verloop_81" data-name="Naamloos verloop 81" x1="9.99" y1="12.27" x2="9.99" y2="10.47" gradientUnits="userSpaceOnUse">
      <stop offset="0" stop-color="#333"/>
      <stop offset="1" stop-color="#1a1a1a"/>
    </linearGradient>
    <linearGradient id="Naamloos_verloop_81-2" data-name="Naamloos verloop 81" x1="11.99" x2="11.99" xlink:href="#Naamloos_verloop_81"/>
    <linearGradient id="Naamloos_verloop_81-3" data-name="Naamloos verloop 81" x1="10.99" y1="10.54" x2="10.99" y2="8.74" xlink:href="#Naamloos_verloop_81"/>
    <linearGradient id="Naamloos_verloop_85" data-name="Naamloos verloop 85" x1="10.99" y1="13.61" x2="10.99" y2="12.05" gradientUnits="userSpaceOnUse">
      <stop offset="0" stop-color="#333"/>
      <stop offset="1" stop-color="#1a1a1a"/>
    </linearGradient>
    <linearGradient id="Naamloos_verloop_81-4" data-name="Naamloos verloop 81" x1="-310.43" y1="36.87" x2="-310.43" y2="35.07" gradientTransform="translate(-298.44 55.47) rotate(-180)" xlink:href="#Naamloos_verloop_81"/>
    <linearGradient id="Naamloos_verloop_81-5" data-name="Naamloos verloop 81" x1="-308.43" y1="36.87" x2="-308.43" y2="35.07" gradientTransform="translate(-298.44 55.47) rotate(-180)" xlink:href="#Naamloos_verloop_81"/>
    <linearGradient id="Naamloos_verloop_81-6" data-name="Naamloos verloop 81" x1="-309.43" y1="35.14" x2="-309.43" y2="33.34" gradientTransform="translate(-298.44 55.47) rotate(-180)" xlink:href="#Naamloos_verloop_81"/>
    <linearGradient id="Naamloos_verloop_85-2" data-name="Naamloos verloop 85" x1="-309.43" y1="38.21" x2="-309.43" y2="36.65" gradientTransform="translate(-298.44 55.47) rotate(-180)" xlink:href="#Naamloos_verloop_85"/>
    <linearGradient id="Naamloos_verloop_81-7" data-name="Naamloos verloop 81" x1="-310.43" y1="28.35" x2="-310.43" y2="26.54" gradientTransform="translate(-298.44 55.47) rotate(-180)" xlink:href="#Naamloos_verloop_81"/>
    <linearGradient id="Naamloos_verloop_81-8" data-name="Naamloos verloop 81" x1="-308.43" y1="28.35" x2="-308.43" y2="26.54" gradientTransform="translate(-298.44 55.47) rotate(-180)" xlink:href="#Naamloos_verloop_81"/>
    <linearGradient id="Naamloos_verloop_81-9" data-name="Naamloos verloop 81" x1="-309.43" y1="26.62" x2="-309.43" y2="24.81" gradientTransform="translate(-298.44 55.47) rotate(-180)" xlink:href="#Naamloos_verloop_81"/>
    <linearGradient id="Naamloos_verloop_85-3" data-name="Naamloos verloop 85" x1="-309.43" y1="29.68" x2="-309.43" y2="28.12" gradientTransform="translate(-298.44 55.47) rotate(-180)" xlink:href="#Naamloos_verloop_85"/>
    <linearGradient id="Naamloos_verloop_81-10" data-name="Naamloos verloop 81" x1="21.99" y1="12.27" x2="21.99" y2="10.47" gradientTransform="translate(42.37 39.4) rotate(-180)" xlink:href="#Naamloos_verloop_81"/>
    <linearGradient id="Naamloos_verloop_81-11" data-name="Naamloos verloop 81" x1="23.99" y1="12.27" x2="23.99" y2="10.47" gradientTransform="translate(42.37 39.4) rotate(-180)" xlink:href="#Naamloos_verloop_81"/>
    <linearGradient id="Naamloos_verloop_81-12" data-name="Naamloos verloop 81" x1="22.99" y1="10.54" x2="22.99" y2="8.74" gradientTransform="translate(42.37 39.4) rotate(-180)" xlink:href="#Naamloos_verloop_81"/>
    <linearGradient id="Naamloos_verloop_85-4" data-name="Naamloos verloop 85" x1="22.99" y1="13.61" x2="22.99" y2="12.05" gradientTransform="translate(42.37 39.4) rotate(-180)" xlink:href="#Naamloos_verloop_85"/>
    <linearGradient id="Naamloos_verloop_81-13" data-name="Naamloos verloop 81" x1="-322.43" y1="36.87" x2="-322.43" y2="35.07" gradientTransform="translate(340.81 -16.07)" xlink:href="#Naamloos_verloop_81"/>
    <linearGradient id="Naamloos_verloop_81-14" data-name="Naamloos verloop 81" x1="-320.43" y1="36.87" x2="-320.43" y2="35.07" gradientTransform="translate(340.81 -16.07)" xlink:href="#Naamloos_verloop_81"/>
    <linearGradient id="Naamloos_verloop_81-15" data-name="Naamloos verloop 81" x1="-321.43" y1="35.14" x2="-321.43" y2="33.34" gradientTransform="translate(340.81 -16.07)" xlink:href="#Naamloos_verloop_81"/>
    <linearGradient id="Naamloos_verloop_85-5" data-name="Naamloos verloop 85" x1="-321.43" y1="38.21" x2="-321.43" y2="36.65" gradientTransform="translate(340.81 -16.07)" xlink:href="#Naamloos_verloop_85"/>
    <linearGradient id="Naamloos_verloop_81-16" data-name="Naamloos verloop 81" x1="-322.43" y1="28.35" x2="-322.43" y2="26.54" gradientTransform="translate(340.81 -16.07)" xlink:href="#Naamloos_verloop_81"/>
    <linearGradient id="Naamloos_verloop_81-17" data-name="Naamloos verloop 81" x1="-320.43" y1="28.35" x2="-320.43" y2="26.54" gradientTransform="translate(340.81 -16.07)" xlink:href="#Naamloos_verloop_81"/>
    <linearGradient id="Naamloos_verloop_81-18" data-name="Naamloos verloop 81" x1="-321.43" y1="26.62" x2="-321.43" y2="24.81" gradientTransform="translate(340.81 -16.07)" xlink:href="#Naamloos_verloop_81"/>
    <linearGradient id="Naamloos_verloop_85-6" data-name="Naamloos verloop 85" x1="-321.43" y1="29.68" x2="-321.43" y2="28.12" gradientTransform="translate(340.81 -16.07)" xlink:href="#Naamloos_verloop_85"/>
  </defs>
  <g id="Laag_1-2" data-name="Laag 1">
    <g>
      <rect class="cls-15" x=".5" y=".5" width="29.36" height="38.67" rx="2" ry="2"/>
      <path class="cls-1" d="m4.71,8.51c-.98,0-1.65-.78-1.65-1.98,0-1.42,1-3.5,3.81-3.7l.02.23c-2.06.25-3,1.86-3,3.48,0,.97.37,1.67.94,1.67.49,0,.82-.44.82-1.24,0-.64-.38-1.24-1.06-1.24-.18,0-.28.02-.39.07l-.06-.14c.25-.2.53-.36.95-.36.77,0,1.34.58,1.34,1.44,0,1.01-.74,1.76-1.74,1.76Z"/>
      <path class="cls-1" d="m25.64,31.16c.98,0,1.65.78,1.65,1.98,0,1.42-1,3.5-3.81,3.7l-.02-.23c2.06-.25,3-1.86,3-3.48,0-.97-.37-1.67-.94-1.67-.49,0-.82.44-.82,1.24,0,.64.38,1.24,1.06,1.24.18,0,.28-.02.39-.07l.06.14c-.25.2-.53.36-.95.36-.77,0-1.34-.58-1.34-1.44,0-1.01.74-1.76,1.74-1.76Z"/>
      <g>
        <path class="cls-26" d="m10.89,11.37c0,.5-.4.9-.9.9s-.9-.4-.9-.9.41-.9.9-.9c.16,0,.3.04.43.11.02,0,.03.02.05.03.25.16.42.45.42.77Z"/>
        <path class="cls-7" d="m12.89,11.37c0,.5-.4.9-.9.9s-.9-.4-.9-.9c0-.32.17-.61.43-.77.02,0,.03-.02.05-.03.13-.07.28-.11.43-.11.5,0,.9.41.9.9Z"/>
        <path class="cls-5" d="m11.89,9.64c0,.31-.16.58-.4.75-.02.02-.05.03-.07.04-.13.07-.28.11-.43.11s-.29-.04-.42-.11c-.03-.02-.05-.03-.08-.05-.24-.16-.4-.44-.4-.75,0-.5.4-.9.9-.9s.9.4.9.9Z"/>
        <g>
          <path class="cls-25" d="m11.7,13.61h-1.42c.06-.04.12-.09.17-.15.4-.41.48-1.08.5-1.41h.07c.02.33.11,1,.5,1.41.05.05.11.11.18.15Z"/>
          <path class="cls-1" d="m13.09,11.37c0-.61-.49-1.1-1.1-1.1-.04,0-.07,0-.11,0,.13-.18.2-.4.2-.63,0-.61-.49-1.1-1.1-1.1s-1.1.49-1.1,1.1c0,.23.07.45.2.63-.04,0-.07,0-.11,0-.61,0-1.1.49-1.1,1.1s.49,1.1,1.1,1.1c.29,0,.56-.12.76-.31-.05.51-.25,1.45-1.14,1.45v.19h2.77v-.19c-.9,0-1.1-.95-1.15-1.45.2.19.47.31.76.31.6,0,1.1-.49,1.1-1.1Zm-3-1.73c0-.5.4-.9.9-.9s.9.4.9.9c0,.31-.16.58-.4.75-.02.02-.05.03-.07.04-.13.07-.28.11-.43.11s-.29-.04-.42-.11c-.03-.02-.05-.03-.08-.05-.24-.16-.4-.44-.4-.75Zm.19,3.97c.06-.04.12-.09.17-.15.4-.41.48-1.08.5-1.41h.07c.02.33.11,1,.5,1.41.05.05.11.11.18.15h-1.42Zm-.29-1.34c-.5,0-.9-.4-.9-.9s.41-.9.9-.9c.16,0,.3.04.43.11.02,0,.03.02.05.03.25.16.42.45.42.77,0,.5-.4.9-.9.9Zm1.1-.9c0-.32.17-.61.43-.77.02,0,.03-.02.05-.03.13-.07.28-.11.43-.11.5,0,.9.41.9.9s-.4.9-.9.9-.9-.4-.9-.9Z"/>
        </g>
      </g>
      <g>
        <path class="cls-6" d="m11.08,19.5c0-.5.4-.9.9-.9s.9.4.9.9-.41.9-.9.9c-.16,0-.3-.04-.43-.11-.02,0-.03-.02-.05-.03-.25-.16-.42-.45-.42-.77Z"/>
        <path class="cls-4" d="m9.08,19.5c0-.5.4-.9.9-.9s.9.4.9.9c0,.32-.17.61-.43.77-.02,0-.03.02-.05.03-.13.07-.28.11-.43.11-.5,0-.9-.41-.9-.9Z"/>
        <path class="cls-2" d="m10.08,21.23c0-.31.16-.58.4-.75.02-.02.05-.03.07-.04.13-.07.28-.11.43-.11s.29.04.42.11c.03.02.05.03.08.05.24.16.4.44.4.75,0,.5-.4.9-.9.9s-.9-.4-.9-.9Z"/>
        <g>
          <path class="cls-11" d="m10.27,17.26h1.42c-.06.04-.12.09-.17.15-.4.41-.48,1.08-.5,1.41h-.07c-.02-.33-.11-1-.5-1.41-.05-.05-.11-.11-.18-.15Z"/>
          <path class="cls-1" d="m8.89,19.5c0,.61.49,1.1,1.1,1.1.04,0,.07,0,.11,0-.13.18-.2.4-.2.63,0,.61.49,1.1,1.1,1.1s1.1-.49,1.1-1.1c0-.23-.07-.45-.2-.63.04,0,.07,0,.11,0,.61,0,1.1-.49,1.1-1.1s-.49-1.1-1.1-1.1c-.29,0-.56.12-.76.31.05-.51.25-1.45,1.14-1.45v-.19h-2.77v.19c.9,0,1.1.95,1.15,1.45-.2-.19-.47-.31-.76-.31-.6,0-1.1.49-1.1,1.1Zm3,1.73c0,.5-.4.9-.9.9s-.9-.4-.9-.9c0-.31.16-.58.4-.75.02-.02.05-.03.07-.04.13-.07.28-.11.43-.11s.29.04.42.11c.03.02.05.03.08.05.24.16.4.44.4.75Zm-.19-3.97c-.06.04-.12.09-.17.15-.4.41-.48,1.08-.5,1.41h-.07c-.02-.33-.11-1-.5-1.41-.05-.05-.11-.11-.18-.15h1.42Zm.29,1.34c.5,0,.9.4.9.9s-.41.9-.9.9c-.16,0-.3-.04-.43-.11-.02,0-.03-.02-.05-.03-.25-.16-.42-.45-.42-.77,0-.5.4-.9.9-.9Zm-1.1.9c0,.32-.17.61-.43.77-.02,0-.03.02-.05.03-.13.07-.28.11-.43.11-.5,0-.9-.41-.9-.9s.4-.9.9-.9.9.4.9.9Z"/>
        </g>
      </g>
      <g>
        <path class="cls-3" d="m11.08,28.02c0-.5.4-.9.9-.9s.9.4.9.9-.41.9-.9.9c-.16,0-.3-.04-.43-.11-.02,0-.03-.02-.05-.03-.25-.16-.42-.45-.42-.77Z"/>
        <path class="cls-9" d="m9.08,28.02c0-.5.4-.9.9-.9s.9.4.9.9c0,.32-.17.61-.43.77-.02,0-.03.02-.05.03-.13.07-.28.11-.43.11-.5,0-.9-.41-.9-.9Z"/>
        <path class="cls-8" d="m10.08,29.75c0-.31.16-.58.4-.75.02-.02.05-.03.07-.04.13-.07.28-.11.43-.11s.29.04.42.11c.03.02.05.03.08.05.24.16.4.44.4.75,0,.5-.4.9-.9.9s-.9-.4-.9-.9Z"/>
        <g>
          <path class="cls-14" d="m10.27,25.79h1.42c-.06.04-.12.09-.17.15-.4.41-.48,1.08-.5,1.41h-.07c-.02-.33-.11-1-.5-1.41-.05-.05-.11-.11-.18-.15Z"/>
          <path class="cls-1" d="m8.89,28.02c0,.61.49,1.1,1.1,1.1.04,0,.07,0,.11,0-.13.18-.2.4-.2.63,0,.61.49,1.1,1.1,1.1s1.1-.49,1.1-1.1c0-.23-.07-.45-.2-.63.04,0,.07,0,.11,0,.61,0,1.1-.49,1.1-1.1s-.49-1.1-1.1-1.1c-.29,0-.56.12-.76.31.05-.51.25-1.45,1.14-1.45v-.19h-2.77v.19c.9,0,1.1.95,1.15,1.45-.2-.19-.47-.31-.76-.31-.6,0-1.1.49-1.1,1.1Zm3,1.73c0,.5-.4.9-.9.9s-.9-.4-.9-.9c0-.31.16-.58.4-.75.02-.02.05-.03.07-.04.13-.07.28-.11.43-.11s.29.04.42.11c.03.02.05.03.08.05.24.16.4.44.4.75Zm-.19-3.97c-.06.04-.12.09-.17.15-.4.41-.48,1.08-.5,1.41h-.07c-.02-.33-.11-1-.5-1.41-.05-.05-.11-.11-.18-.15h1.42Zm.29,1.34c.5,0,.9.4.9.9s-.41.9-.9.9c-.16,0-.3-.04-.43-.11-.02,0-.03-.02-.05-.03-.25-.16-.42-.45-.42-.77,0-.5.4-.9.9-.9Zm-1.1.9c0,.32-.17.61-.43.77-.02,0-.03.02-.05.03-.13.07-.28.11-.43.11-.5,0-.9-.41-.9-.9s.4-.9.9-.9.9.4.9.9Z"/>
        </g>
      </g>
      <g>
        <path class="cls-20" d="m19.48,28.02c0-.5.4-.9.9-.9s.9.4.9.9-.41.9-.9.9c-.16,0-.3-.04-.43-.11-.02,0-.03-.02-.05-.03-.25-.16-.42-.45-.42-.77Z"/>
        <path class="cls-19" d="m17.48,28.02c0-.5.4-.9.9-.9s.9.4.9.9c0,.32-.17.61-.43.77-.02,0-.03.02-.05.03-.13.07-.28.11-.43.11-.5,0-.9-.41-.9-.9Z"/>
        <path class="cls-22" d="m18.48,29.75c0-.31.16-.58.4-.75.02-.02.05-.03.07-.04.13-.07.28-.11.43-.11s.29.04.42.11c.03.02.05.03.08.05.24.16.4.44.4.75,0,.5-.4.9-.9.9s-.9-.4-.9-.9Z"/>
        <g>
          <path class="cls-12" d="m18.67,25.79h1.42c-.06.04-.12.09-.17.15-.4.41-.48,1.08-.5,1.41h-.07c-.02-.33-.11-1-.5-1.41-.05-.05-.11-.11-.18-.15Z"/>
          <path class="cls-1" d="m17.28,28.02c0,.61.49,1.1,1.1,1.1.04,0,.07,0,.11,0-.13.18-.2.4-.2.63,0,.61.49,1.1,1.1,1.1s1.1-.49,1.1-1.1c0-.23-.07-.45-.2-.63.04,0,.07,0,.11,0,.61,0,1.1-.49,1.1-1.1s-.49-1.1-1.1-1.1c-.29,0-.56.12-.76.31.05-.51.25-1.45,1.14-1.45v-.19h-2.77v.19c.9,0,1.1.95,1.15,1.45-.2-.19-.47-.31-.76-.31-.6,0-1.1.49-1.1,1.1Zm3,1.73c0,.5-.4.9-.9.9s-.9-.4-.9-.9c0-.31.16-.58.4-.75.02-.02.05-.03.07-.04.13-.07.28-.11.43-.11s.29.04.42.11c.03.02.05.03.08.05.24.16.4.44.4.75Zm-.19-3.97c-.06.04-.12.09-.17.15-.4.41-.48,1.08-.5,1.41h-.07c-.02-.33-.11-1-.5-1.41-.05-.05-.11-.11-.18-.15h1.42Zm.29,1.34c.5,0,.9.4.9.9s-.41.9-.9.9c-.16,0-.3-.04-.43-.11-.02,0-.03-.02-.05-.03-.25-.16-.42-.45-.42-.77,0-.5.4-.9.9-.9Zm-1.1.9c0,.32-.17.61-.43.77-.02,0-.03.02-.05.03-.13.07-.28.11-.43.11-.5,0-.9-.41-.9-.9s.4-.9.9-.9.9.4.9.9Z"/>
        </g>
      </g>
      <g>
        <path class="cls-21" d="m19.28,19.9c0,.5-.4.9-.9.9s-.9-.4-.9-.9.41-.9.9-.9c.16,0,.3.04.43.11.02,0,.03.02.05.03.25.16.42.45.42.77Z"/>
        <path class="cls-24" d="m21.28,19.9c0,.5-.4.9-.9.9s-.9-.4-.9-.9c0-.32.17-.61.43-.77.02,0,.03-.02.05-.03.13-.07.28-.11.43-.11.5,0,.9.41.9.9Z"/>
        <path class="cls-23" d="m20.29,18.17c0,.31-.16.58-.4.75-.02.02-.05.03-.07.04-.13.07-.28.11-.43.11s-.29-.04-.42-.11c-.03-.02-.05-.03-.08-.05-.24-.16-.4-.44-.4-.75,0-.5.4-.9.9-.9s.9.4.9.9Z"/>
        <g>
          <path class="cls-10" d="m20.09,22.13h-1.42c.06-.04.12-.09.17-.15.4-.41.48-1.08.5-1.41h.07c.02.33.11,1,.5,1.41.05.05.11.11.18.15Z"/>
          <path class="cls-1" d="m21.48,19.9c0-.61-.49-1.1-1.1-1.1-.04,0-.07,0-.11,0,.13-.18.2-.4.2-.63,0-.61-.49-1.1-1.1-1.1s-1.1.49-1.1,1.1c0,.23.07.45.2.63-.04,0-.07,0-.11,0-.61,0-1.1.49-1.1,1.1s.49,1.1,1.1,1.1c.29,0,.56-.12.76-.31-.05.51-.25,1.45-1.14,1.45v.19h2.77v-.19c-.9,0-1.1-.95-1.15-1.45.2.19.47.31.76.31.6,0,1.1-.49,1.1-1.1Zm-3-1.73c0-.5.4-.9.9-.9s.9.4.9.9c0,.31-.16.58-.4.75-.02.02-.05.03-.07.04-.13.07-.28.11-.43.11s-.29-.04-.42-.11c-.03-.02-.05-.03-.08-.05-.24-.16-.4-.44-.4-.75Zm.19,3.97c.06-.04.12-.09.17-.15.4-.41.48-1.08.5-1.41h.07c.02.33.11,1,.5,1.41.05.05.11.11.18.15h-1.42Zm-.29-1.34c-.5,0-.9-.4-.9-.9s.41-.9.9-.9c.16,0,.3.04.43.11.02,0,.03.02.05.03.25.16.42.45.42.77,0,.5-.4.9-.9.9Zm1.1-.9c0-.32.17-.61.43-.77.02,0,.03-.02.05-.03.13-.07.28-.11.43-.11.5,0,.9.41.9.9s-.4.9-.9.9-.9-.4-.9-.9Z"/>
        </g>
      </g>
      <g>
        <path class="cls-17" d="m19.28,11.37c0,.5-.4.9-.9.9s-.9-.4-.9-.9.41-.9.9-.9c.16,0,.3.04.43.11.02,0,.03.02.05.03.25.16.42.45.42.77Z"/>
        <path class="cls-16" d="m21.28,11.37c0,.5-.4.9-.9.9s-.9-.4-.9-.9c0-.32.17-.61.43-.77.02,0,.03-.02.05-.03.13-.07.28-.11.43-.11.5,0,.9.41.9.9Z"/>
        <path class="cls-18" d="m20.29,9.64c0,.31-.16.58-.4.75-.02.02-.05.03-.07.04-.13.07-.28.11-.43.11s-.29-.04-.42-.11c-.03-.02-.05-.03-.08-.05-.24-.16-.4-.44-.4-.75,0-.5.4-.9.9-.9s.9.4.9.9Z"/>
        <g>
          <path class="cls-13" d="m20.09,13.61h-1.42c.06-.04.12-.09.17-.15.4-.41.48-1.08.5-1.41h.07c.02.33.11,1,.5,1.41.05.05.11.11.18.15Z"/>
          <path class="cls-1" d="m21.48,11.37c0-.61-.49-1.1-1.1-1.1-.04,0-.07,0-.11,0,.13-.18.2-.4.2-.63,0-.61-.49-1.1-1.1-1.1s-1.1.49-1.1,1.1c0,.23.07.45.2.63-.04,0-.07,0-.11,0-.61,0-1.1.49-1.1,1.1s.49,1.1,1.1,1.1c.29,0,.56-.12.76-.31-.05.51-.25,1.45-1.14,1.45v.19h2.77v-.19c-.9,0-1.1-.95-1.15-1.45.2.19.47.31.76.31.6,0,1.1-.49,1.1-1.1Zm-3-1.73c0-.5.4-.9.9-.9s.9.4.9.9c0,.31-.16.58-.4.75-.02.02-.05.03-.07.04-.13.07-.28.11-.43.11s-.29-.04-.42-.11c-.03-.02-.05-.03-.08-.05-.24-.16-.4-.44-.4-.75Zm.19,3.97c.06-.04.12-.09.17-.15.4-.41.48-1.08.5-1.41h.07c.02.33.11,1,.5,1.41.05.05.11.11.18.15h-1.42Zm-.29-1.34c-.5,0-.9-.4-.9-.9s.41-.9.9-.9c.16,0,.3.04.43.11.02,0,.03.02.05.03.25.16.42.45.42.77,0,.5-.4.9-.9.9Zm1.1-.9c0-.32.17-.61.43-.77.02,0,.03-.02.05-.03.13-.07.28-.11.43-.11.5,0,.9.41.9.9s-.4.9-.9.9-.9-.4-.9-.9Z"/>
        </g>
      </g>
    </g>
  </g>
</svg>