<?xml version="1.0" encoding="UTF-8"?>
<svg id="Laag_2" data-name="Laag 2" xmlns="http://www.w3.org/2000/svg" xmlns:xlink="http://www.w3.org/1999/xlink" viewBox="0 0 30.36 39.67">
  <defs>
    <style>
      .cls-1 {
        fill: #1a1a1a;
      }

      .cls-2 {
        fill: url(#Naamloos_verloop_81-6);
      }

      .cls-3 {
        fill: url(#Naamloos_verloop_81-7);
      }

      .cls-4 {
        fill: url(#Naamloos_verloop_81-5);
      }

      .cls-5 {
        fill: url(#Naamloos_verloop_81-3);
      }

      .cls-6 {
        fill: url(#Naamloos_verloop_81-4);
      }

      .cls-7 {
        fill: url(#Naamloos_verloop_81-2);
      }

      .cls-8 {
        fill: url(#Naamloos_verloop_85-7);
      }

      .cls-9 {
        fill: url(#Naamloos_verloop_85-5);
      }

      .cls-10 {
        fill: url(#Naamloos_verloop_85-2);
      }

      .cls-11 {
        fill: url(#Naamloos_verloop_85-4);
      }

      .cls-12 {
        fill: url(#Naamloos_verloop_85-6);
      }

      .cls-13 {
        fill: url(#Naamloos_verloop_85-3);
      }

      .cls-14 {
        fill: url(#Naamloos_verloop_257);
        stroke: #fff;
        stroke-miterlimit: 10;
      }

      .cls-15 {
        fill: url(#Naamloos_verloop_85);
      }

      .cls-16 {
        fill: url(#Naamloos_verloop_81);
      }
    </style>
    <linearGradient id="Naamloos_verloop_257" data-name="Naamloos verloop 257" x1="15.18" y1="39.17" x2="15.18" y2=".5" gradientUnits="userSpaceOnUse">
      <stop offset="0" stop-color="#f0f0f0"/>
      <stop offset="1" stop-color="#fcfcfc"/>
    </linearGradient>
    <linearGradient id="Naamloos_verloop_81" data-name="Naamloos verloop 81" x1="15.17" y1="12.23" x2="15.17" y2="15.66" gradientUnits="userSpaceOnUse">
      <stop offset="0" stop-color="#333"/>
      <stop offset="1" stop-color="#1a1a1a"/>
    </linearGradient>
    <linearGradient id="Naamloos_verloop_85" data-name="Naamloos verloop 85" x1="15.17" y1="17.02" x2="15.17" y2="15.46" gradientUnits="userSpaceOnUse">
      <stop offset="0" stop-color="#333"/>
      <stop offset="1" stop-color="#1a1a1a"/>
    </linearGradient>
    <linearGradient id="Naamloos_verloop_81-2" data-name="Naamloos verloop 81" x1="10.73" y1="17.48" x2="10.73" y2="20.91" xlink:href="#Naamloos_verloop_81"/>
    <linearGradient id="Naamloos_verloop_85-2" data-name="Naamloos verloop 85" x1="10.73" y1="22.27" x2="10.73" y2="20.71" xlink:href="#Naamloos_verloop_85"/>
    <linearGradient id="Naamloos_verloop_81-3" data-name="Naamloos verloop 81" x1="10.73" y1="8.96" x2="10.73" y2="12.38" xlink:href="#Naamloos_verloop_81"/>
    <linearGradient id="Naamloos_verloop_85-3" data-name="Naamloos verloop 85" x1="10.73" y1="13.75" x2="10.73" y2="12.19" xlink:href="#Naamloos_verloop_85"/>
    <linearGradient id="Naamloos_verloop_81-4" data-name="Naamloos verloop 81" x1="-391.11" y1="21.01" x2="-391.11" y2="24.44" gradientTransform="translate(-380.38 51.73) rotate(-180)" xlink:href="#Naamloos_verloop_81"/>
    <linearGradient id="Naamloos_verloop_85-4" data-name="Naamloos verloop 85" x1="-391.11" y1="25.8" x2="-391.11" y2="24.24" gradientTransform="translate(-380.38 51.73) rotate(-180)" xlink:href="#Naamloos_verloop_85"/>
    <linearGradient id="Naamloos_verloop_81-5" data-name="Naamloos verloop 81" x1="-58.19" y1="17.48" x2="-58.19" y2="20.91" gradientTransform="translate(-38.56 39.67) rotate(-180)" xlink:href="#Naamloos_verloop_81"/>
    <linearGradient id="Naamloos_verloop_85-5" data-name="Naamloos verloop 85" x1="-58.19" y1="22.27" x2="-58.19" y2="20.71" gradientTransform="translate(-38.56 39.67) rotate(-180)" xlink:href="#Naamloos_verloop_85"/>
    <linearGradient id="Naamloos_verloop_81-6" data-name="Naamloos verloop 81" x1="-58.19" y1="8.96" x2="-58.19" y2="12.38" gradientTransform="translate(-38.56 39.67) rotate(-180)" xlink:href="#Naamloos_verloop_81"/>
    <linearGradient id="Naamloos_verloop_85-6" data-name="Naamloos verloop 85" x1="-58.19" y1="13.75" x2="-58.19" y2="12.19" gradientTransform="translate(-38.56 39.67) rotate(-180)" xlink:href="#Naamloos_verloop_85"/>
    <linearGradient id="Naamloos_verloop_81-7" data-name="Naamloos verloop 81" x1="-322.18" y1="21.01" x2="-322.18" y2="24.44" gradientTransform="translate(341.82 -12.06)" xlink:href="#Naamloos_verloop_81"/>
    <linearGradient id="Naamloos_verloop_85-7" data-name="Naamloos verloop 85" x1="-322.18" y1="25.8" x2="-322.18" y2="24.24" gradientTransform="translate(341.82 -12.06)" xlink:href="#Naamloos_verloop_85"/>
  </defs>
  <g id="Laag_1-2" data-name="Laag 1">
    <g>
      <rect class="cls-14" x=".5" y=".5" width="29.36" height="38.67" rx="2" ry="2"/>
      <g>
        <path class="cls-16" d="m16.91,15.37c-.18.19-.43.29-.7.29s-.51-.1-.69-.29l-.35-.35-.34.35c-.19.19-.43.29-.7.29s-.51-.1-.7-.29c-.38-.38-.38-1.01,0-1.39,0,0,.02-.02.04-.04l1.7-1.7,1.74,1.74c.38.38.38,1.01,0,1.39Z"/>
        <g>
          <path class="cls-15" d="m15.88,17.02h-1.43c.06-.04.12-.09.18-.15.4-.41.48-1.08.5-1.41h.07c.02.33.11,1,.5,1.41.05.05.11.11.18.15Z"/>
          <path class="cls-1" d="m17.05,15.51c.46-.46.46-1.21,0-1.67l-1.88-1.88-1.83,1.83s-.04.03-.05.05c-.23.23-.35.53-.35.83s.12.61.35.83c.22.22.52.35.83.35s.58-.11.8-.32c-.04.49-.23,1.49-1.15,1.49v.19h2.77v-.19c-.92,0-1.11-1-1.15-1.49.22.2.51.32.81.32.32,0,.62-.13.83-.35Zm-2.59,1.52c.06-.04.12-.09.18-.15.4-.41.48-1.08.5-1.41h.07c.02.33.11,1,.5,1.41.05.05.11.11.18.15h-1.43Zm.71-2l-.34.35c-.19.19-.43.29-.7.29s-.51-.1-.7-.29c-.38-.38-.38-1.01,0-1.39,0,0,.02-.02.04-.04l1.7-1.7,1.74,1.74c.38.38.38,1.01,0,1.39-.18.19-.43.29-.7.29s-.51-.1-.69-.29l-.35-.35Z"/>
        </g>
      </g>
      <g>
        <path class="cls-7" d="m12.47,20.62c-.18.19-.43.29-.7.29s-.51-.1-.69-.29l-.35-.35-.34.35c-.19.19-.43.29-.7.29s-.51-.1-.7-.29c-.38-.38-.38-1.01,0-1.39,0,0,.02-.02.04-.04l1.7-1.7,1.74,1.74c.38.38.38,1.01,0,1.39Z"/>
        <g>
          <path class="cls-10" d="m11.45,22.27h-1.43c.06-.04.12-.09.18-.15.4-.41.48-1.08.5-1.41h.07c.02.33.11,1,.5,1.41.05.05.11.11.18.15Z"/>
          <path class="cls-1" d="m12.61,20.75c.46-.46.46-1.21,0-1.67l-1.88-1.88-1.83,1.83s-.04.03-.05.05c-.23.23-.35.53-.35.83s.12.61.35.83c.22.22.52.35.83.35s.58-.11.8-.32c-.04.49-.23,1.49-1.15,1.49v.19h2.77v-.19c-.92,0-1.11-1-1.15-1.49.22.2.51.32.81.32.32,0,.62-.13.83-.35Zm-2.59,1.52c.06-.04.12-.09.18-.15.4-.41.48-1.08.5-1.41h.07c.02.33.11,1,.5,1.41.05.05.11.11.18.15h-1.43Zm.71-2l-.34.35c-.19.19-.43.29-.7.29s-.51-.1-.7-.29c-.38-.38-.38-1.01,0-1.39,0,0,.02-.02.04-.04l1.7-1.7,1.74,1.74c.38.38.38,1.01,0,1.39-.18.19-.43.29-.7.29s-.51-.1-.69-.29l-.35-.35Z"/>
        </g>
      </g>
      <g>
        <path class="cls-5" d="m12.47,12.09c-.18.19-.43.29-.7.29s-.51-.1-.69-.29l-.35-.35-.34.35c-.19.19-.43.29-.7.29s-.51-.1-.7-.29c-.38-.38-.38-1.01,0-1.39,0,0,.02-.02.04-.04l1.7-1.7,1.74,1.74c.38.38.38,1.01,0,1.39Z"/>
        <g>
          <path class="cls-13" d="m11.45,13.75h-1.43c.06-.04.12-.09.18-.15.4-.41.48-1.08.5-1.41h.07c.02.33.11,1,.5,1.41.05.05.11.11.18.15Z"/>
          <path class="cls-1" d="m12.61,12.23c.46-.46.46-1.21,0-1.67l-1.88-1.88-1.83,1.83s-.04.03-.05.05c-.23.23-.35.53-.35.83s.12.61.35.83c.22.22.52.35.83.35s.58-.11.8-.32c-.04.49-.23,1.49-1.15,1.49v.19h2.77v-.19c-.92,0-1.11-1-1.15-1.49.22.2.51.32.81.32.32,0,.62-.13.83-.35Zm-2.59,1.52c.06-.04.12-.09.18-.15.4-.41.48-1.08.5-1.41h.07c.02.33.11,1,.5,1.41.05.05.11.11.18.15h-1.43Zm.71-2l-.34.35c-.19.19-.43.29-.7.29s-.51-.1-.7-.29c-.38-.38-.38-1.01,0-1.39,0,0,.02-.02.04-.04l1.7-1.7,1.74,1.74c.38.38.38,1.01,0,1.39-.18.19-.43.29-.7.29s-.51-.1-.69-.29l-.35-.35Z"/>
        </g>
      </g>
      <g>
        <path class="cls-6" d="m8.99,27.58c.18-.19.43-.29.7-.29s.51.1.69.29l.35.35.34-.35c.19-.19.43-.29.7-.29s.51.1.7.29c.38.38.38,1.01,0,1.39,0,0-.02.02-.04.04l-1.7,1.7-1.74-1.74c-.38-.38-.38-1.01,0-1.39Z"/>
        <g>
          <path class="cls-11" d="m10.02,25.92h1.43c-.06.04-.12.09-.18.15-.4.41-.48,1.08-.5,1.41h-.07c-.02-.33-.11-1-.5-1.41-.05-.05-.11-.11-.18-.15Z"/>
          <path class="cls-1" d="m8.85,27.44c-.46.46-.46,1.21,0,1.67l1.88,1.88,1.83-1.83s.04-.03.05-.05c.23-.23.35-.53.35-.83s-.12-.61-.35-.83c-.22-.22-.52-.35-.83-.35s-.58.11-.8.32c.04-.49.23-1.49,1.15-1.49v-.19h-2.77v.19c.92,0,1.11,1,1.15,1.49-.22-.2-.51-.32-.81-.32-.32,0-.62.13-.83.35Zm2.59-1.52c-.06.04-.12.09-.18.15-.4.41-.48,1.08-.5,1.41h-.07c-.02-.33-.11-1-.5-1.41-.05-.05-.11-.11-.18-.15h1.43Zm-.71,2l.34-.35c.19-.19.43-.29.7-.29s.51.1.7.29c.38.38.38,1.01,0,1.39,0,0-.02.02-.04.04l-1.7,1.7-1.74-1.74c-.38-.38-.38-1.01,0-1.39.18-.19.43-.29.7-.29s.51.1.69.29l.35.35Z"/>
        </g>
      </g>
      <g>
        <path class="cls-4" d="m17.89,19.05c.18-.19.43-.29.7-.29s.51.1.69.29l.35.35.34-.35c.19-.19.43-.29.7-.29s.51.1.7.29c.38.38.38,1.01,0,1.39,0,0-.02.02-.04.04l-1.7,1.7-1.74-1.74c-.38-.38-.38-1.01,0-1.39Z"/>
        <g>
          <path class="cls-9" d="m18.92,17.4h1.43c-.06.04-.12.09-.18.15-.4.41-.48,1.08-.5,1.41h-.07c-.02-.33-.11-1-.5-1.41-.05-.05-.11-.11-.18-.15Z"/>
          <path class="cls-1" d="m17.75,18.92c-.46.46-.46,1.21,0,1.67l1.88,1.88,1.83-1.83s.04-.03.05-.05c.23-.23.35-.53.35-.83s-.12-.61-.35-.83c-.22-.22-.52-.35-.83-.35s-.58.11-.8.32c.04-.49.23-1.49,1.15-1.49v-.19h-2.77v.19c.92,0,1.11,1,1.15,1.49-.22-.2-.51-.32-.81-.32-.32,0-.62.13-.83.35Zm2.59-1.52c-.06.04-.12.09-.18.15-.4.41-.48,1.08-.5,1.41h-.07c-.02-.33-.11-1-.5-1.41-.05-.05-.11-.11-.18-.15h1.43Zm-.71,2l.34-.35c.19-.19.43-.29.7-.29s.51.1.7.29c.38.38.38,1.01,0,1.39,0,0-.02.02-.04.04l-1.7,1.7-1.74-1.74c-.38-.38-.38-1.01,0-1.39.18-.19.43-.29.7-.29s.51.1.69.29l.35.35Z"/>
        </g>
      </g>
      <g>
        <path class="cls-2" d="m17.89,27.58c.18-.19.43-.29.7-.29s.51.1.69.29l.35.35.34-.35c.19-.19.43-.29.7-.29s.51.1.7.29c.38.38.38,1.01,0,1.39,0,0-.02.02-.04.04l-1.7,1.7-1.74-1.74c-.38-.38-.38-1.01,0-1.39Z"/>
        <g>
          <path class="cls-12" d="m18.92,25.92h1.43c-.06.04-.12.09-.18.15-.4.41-.48,1.08-.5,1.41h-.07c-.02-.33-.11-1-.5-1.41-.05-.05-.11-.11-.18-.15Z"/>
          <path class="cls-1" d="m17.75,27.44c-.46.46-.46,1.21,0,1.67l1.88,1.88,1.83-1.83s.04-.03.05-.05c.23-.23.35-.53.35-.83s-.12-.61-.35-.83c-.22-.22-.52-.35-.83-.35s-.58.11-.8.32c.04-.49.23-1.49,1.15-1.49v-.19h-2.77v.19c.92,0,1.11,1,1.15,1.49-.22-.2-.51-.32-.81-.32-.32,0-.62.13-.83.35Zm2.59-1.52c-.06.04-.12.09-.18.15-.4.41-.48,1.08-.5,1.41h-.07c-.02-.33-.11-1-.5-1.41-.05-.05-.11-.11-.18-.15h1.43Zm-.71,2l.34-.35c.19-.19.43-.29.7-.29s.51.1.7.29c.38.38.38,1.01,0,1.39,0,0-.02.02-.04.04l-1.7,1.7-1.74-1.74c-.38-.38-.38-1.01,0-1.39.18-.19.43-.29.7-.29s.51.1.69.29l.35.35Z"/>
        </g>
      </g>
      <g>
        <path class="cls-3" d="m21.37,12.09c-.18.19-.43.29-.7.29s-.51-.1-.69-.29l-.35-.35-.34.35c-.19.19-.43.29-.7.29s-.51-.1-.7-.29c-.38-.38-.38-1.01,0-1.39,0,0,.02-.02.04-.04l1.7-1.7,1.74,1.74c.38.38.38,1.01,0,1.39Z"/>
        <g>
          <path class="cls-8" d="m20.35,13.75h-1.43c.06-.04.12-.09.18-.15.4-.41.48-1.08.5-1.41h.07c.02.33.11,1,.5,1.41.05.05.11.11.18.15Z"/>
          <path class="cls-1" d="m21.51,12.23c.46-.46.46-1.21,0-1.67l-1.88-1.88-1.83,1.83s-.04.03-.05.05c-.23.23-.35.53-.35.83s.12.61.35.83c.22.22.52.35.83.35s.58-.11.8-.32c-.04.49-.23,1.49-1.15,1.49v.19h2.77v-.19c-.92,0-1.11-1-1.15-1.49.22.2.51.32.81.32.32,0,.62-.13.83-.35Zm-2.59,1.52c.06-.04.12-.09.18-.15.4-.41.48-1.08.5-1.41h.07c.02.33.11,1,.5,1.41.05.05.11.11.18.15h-1.43Zm.71-2l-.34.35c-.19.19-.43.29-.7.29s-.51-.1-.7-.29c-.38-.38-.38-1.01,0-1.39,0,0,.02-.02.04-.04l1.7-1.7,1.74,1.74c.38.38.38,1.01,0,1.39-.18.19-.43.29-.7.29s-.51-.1-.69-.29l-.35-.35Z"/>
        </g>
      </g>
      <path class="cls-1" d="m6.28,3.73h-1.49c-.82,0-1.07.11-1.22.44l-.16.36-.15-.02.22-1.54h3.26v.59c-.67,1.29-2.05,3.83-2.22,4.81h-.88l2.65-4.64Z"/>
      <path class="cls-1" d="m24.1,35.94h1.49c.82,0,1.07-.11,1.22-.44l.16-.36.15.02-.22,1.54h-3.26s0-.59,0-.59c.67-1.29,2.05-3.83,2.22-4.81h.88s-2.65,4.64-2.65,4.64Z"/>
    </g>
  </g>
</svg>