<?xml version="1.0" encoding="UTF-8"?>
<svg id="Laag_2" data-name="Laag 2" xmlns="http://www.w3.org/2000/svg" xmlns:xlink="http://www.w3.org/1999/xlink" viewBox="0 0 30.36 39.67">
  <defs>
    <style>
      .cls-1 {
        fill: #ff3e48;
      }

      .cls-2 {
        fill: url(#Naamloos_verloop_65-3);
      }

      .cls-3 {
        fill: url(#Naamloos_verloop_65-2);
      }

      .cls-4 {
        fill: url(#Naamloos_verloop_65-5);
      }

      .cls-5 {
        fill: url(#Naamloos_verloop_65-4);
      }

      .cls-6 {
        fill: url(#Naamloos_verloop_65-7);
      }

      .cls-7 {
        fill: url(#Naamloos_verloop_65-6);
      }

      .cls-8 {
        fill: url(#Naamloos_verloop_65-8);
      }

      .cls-9 {
        fill: url(#Naamloos_verloop_257);
        stroke: #fff;
        stroke-miterlimit: 10;
      }

      .cls-10 {
        fill: url(#Naamloos_verloop_65);
      }
    </style>
    <linearGradient id="Naamloos_verloop_257" data-name="Naamloos verloop 257" x1="15.18" y1="39.17" x2="15.18" y2=".5" gradientUnits="userSpaceOnUse">
      <stop offset="0" stop-color="#f0f0f0"/>
      <stop offset="1" stop-color="#fcfcfc"/>
    </linearGradient>
    <linearGradient id="Naamloos_verloop_65" data-name="Naamloos verloop 65" x1="15.17" y1="12.03" x2="15.17" y2="17.03" gradientUnits="userSpaceOnUse">
      <stop offset="0" stop-color="#ff7078"/>
      <stop offset="1" stop-color="#ff3e48"/>
    </linearGradient>
    <linearGradient id="Naamloos_verloop_65-2" data-name="Naamloos verloop 65" x1="-477.48" y1="19.3" x2="-477.48" y2="24.3" gradientTransform="translate(-462.31 46.9) rotate(-180)" xlink:href="#Naamloos_verloop_65"/>
    <linearGradient id="Naamloos_verloop_65-3" data-name="Naamloos verloop 65" x1="-314.66" y1="16.04" x2="-314.66" y2="21.03" gradientTransform="translate(335.67 -7.27)" xlink:href="#Naamloos_verloop_65"/>
    <linearGradient id="Naamloos_verloop_65-4" data-name="Naamloos verloop 65" x1="-147.65" y1="17.29" x2="-147.65" y2="22.29" gradientTransform="translate(-126.64 39.63) rotate(-180)" xlink:href="#Naamloos_verloop_65"/>
    <linearGradient id="Naamloos_verloop_65-5" data-name="Naamloos verloop 65" x1="-147.65" y1="8.77" x2="-147.65" y2="13.77" gradientTransform="translate(-126.64 39.63) rotate(-180)" xlink:href="#Naamloos_verloop_65"/>
    <linearGradient id="Naamloos_verloop_65-6" data-name="Naamloos verloop 65" x1="-471.27" y1="16.04" x2="-471.27" y2="21.03" gradientTransform="translate(-462.31 46.9) rotate(-180)" xlink:href="#Naamloos_verloop_65"/>
    <linearGradient id="Naamloos_verloop_65-7" data-name="Naamloos verloop 65" x1="8.96" y1="17.29" x2="8.96" y2="22.29" xlink:href="#Naamloos_verloop_65"/>
    <linearGradient id="Naamloos_verloop_65-8" data-name="Naamloos verloop 65" x1="8.96" y1="8.77" x2="8.96" y2="13.77" xlink:href="#Naamloos_verloop_65"/>
  </defs>
  <g id="Laag_1-2" data-name="Laag 1">
    <g>
      <rect class="cls-9" x=".5" y=".5" width="29.36" height="38.67" rx="2" ry="2"/>
      <g>
        <path class="cls-10" d="m17.64,12.47c-.58-.58-1.52-.58-2.09,0l-.38.38-.38-.38c-.58-.58-1.51-.58-2.09,0-.58.58-.58,1.51,0,2.09l.38.38,2.09,2.09.32-.32.03-.03,1.74-1.74.33-.33s.04-.03.06-.05c.58-.58.58-1.52,0-2.09Z"/>
        <path class="cls-1" d="m15.17,17.19l-2.55-2.55c-.62-.62-.62-1.63,0-2.25.3-.3.7-.47,1.12-.47h0c.42,0,.82.17,1.12.47l.3.3.3-.3c.3-.3.7-.47,1.12-.47h0c.42,0,.82.17,1.12.47h0c.62.62.62,1.63,0,2.25-.02.02-.04.04-.07.06l-2.48,2.49Zm-1.42-5.04h0c-.37,0-.71.14-.97.4-.53.53-.53,1.4,0,1.94l2.39,2.39,2.34-2.34s.04-.04.06-.05c.53-.54.53-1.41,0-1.94h0c-.26-.26-.6-.4-.97-.4h0c-.37,0-.71.14-.97.4l-.46.46-.46-.46c-.26-.26-.6-.4-.97-.4Z"/>
      </g>
      <g>
        <path class="cls-3" d="m12.7,27.17c.58.58,1.52.58,2.09,0l.38-.38.38.38c.58.58,1.51.58,2.09,0,.58-.58.58-1.51,0-2.09l-.38-.38-2.09-2.09-.32.32-.03.03-1.74,1.74-.33.33s-.04.03-.06.05c-.58.58-.58,1.52,0,2.09Z"/>
        <path class="cls-1" d="m15.17,22.45l2.55,2.55c.62.62.62,1.63,0,2.25-.3.3-.7.47-1.12.47h0c-.42,0-.82-.17-1.12-.47l-.3-.3-.3.3c-.3.3-.7.47-1.12.47h0c-.42,0-.82-.17-1.12-.47h0c-.62-.62-.62-1.63,0-2.25.02-.02.04-.04.07-.06l2.48-2.49Zm1.42,5.04h0c.37,0,.71-.14.97-.4.53-.53.53-1.4,0-1.94l-2.39-2.39-2.34,2.34s-.04.04-.06.05c-.53.54-.53,1.41,0,1.94h0c.26.26.6.4.97.4h0c.37,0,.71-.14.97-.4l.46-.46.46.46c.26.26.6.4.97.4Z"/>
      </g>
      <g>
        <g>
          <path class="cls-2" d="m23.48,9.21c-.58-.58-1.52-.58-2.09,0l-.38.38-.38-.38c-.58-.58-1.51-.58-2.09,0-.58.58-.58,1.51,0,2.09l.38.38,2.09,2.09.32-.32.03-.03,1.74-1.74.33-.33s.04-.03.06-.05c.58-.58.58-1.52,0-2.09Z"/>
          <path class="cls-1" d="m21.01,13.92l-2.55-2.55c-.62-.62-.62-1.63,0-2.25.3-.3.7-.47,1.12-.47h0c.42,0,.82.17,1.12.47l.3.3.3-.3c.3-.3.7-.47,1.12-.47h0c.42,0,.82.17,1.12.47h0c.62.62.62,1.63,0,2.25-.02.02-.04.04-.07.06l-2.48,2.49Zm-1.42-5.04h0c-.37,0-.71.14-.97.4-.53.53-.53,1.4,0,1.94l2.39,2.39,2.34-2.34s.04-.04.06-.05c.53-.54.53-1.41,0-1.94h0c-.26-.26-.6-.4-.97-.4h0c-.37,0-.71.14-.97.4l-.46.46-.46-.46c-.26-.26-.6-.4-.97-.4Z"/>
        </g>
        <g>
          <path class="cls-5" d="m18.54,21.9c.58.58,1.52.58,2.09,0l.38-.38.38.38c.58.58,1.51.58,2.09,0,.58-.58.58-1.51,0-2.09l-.38-.38-2.09-2.09-.32.32-.03.03-1.74,1.74-.33.33s-.04.03-.06.05c-.58.58-.58,1.52,0,2.09Z"/>
          <path class="cls-1" d="m21.01,17.19l2.55,2.55c.62.62.62,1.63,0,2.25-.3.3-.7.47-1.12.47h0c-.42,0-.82-.17-1.12-.47l-.3-.3-.3.3c-.3.3-.7.47-1.12.47h0c-.42,0-.82-.17-1.12-.47h0c-.62-.62-.62-1.63,0-2.25.02-.02.04-.04.07-.06l2.48-2.49Zm1.42,5.04h0c.37,0,.71-.14.97-.4.53-.53.53-1.4,0-1.94l-2.39-2.39-2.34,2.34s-.04.04-.06.05c-.53.54-.53,1.41,0,1.94h0c.26.26.6.4.97.4h0c.37,0,.71-.14.97-.4l.46-.46.46.46c.26.26.6.4.97.4Z"/>
        </g>
        <g>
          <path class="cls-4" d="m18.54,30.43c.58.58,1.52.58,2.09,0l.38-.38.38.38c.58.58,1.51.58,2.09,0,.58-.58.58-1.51,0-2.09l-.38-.38-2.09-2.09-.32.32-.03.03-1.74,1.74-.33.33s-.04.03-.06.05c-.58.58-.58,1.52,0,2.09Z"/>
          <path class="cls-1" d="m21.01,25.71l2.55,2.55c.62.62.62,1.63,0,2.25-.3.3-.7.47-1.12.47h0c-.42,0-.82-.17-1.12-.47l-.3-.3-.3.3c-.3.3-.7.47-1.12.47h0c-.42,0-.82-.17-1.12-.47h0c-.62-.62-.62-1.63,0-2.25.02-.02.04-.04.07-.06l2.48-2.49Zm1.42,5.04h0c.37,0,.71-.14.97-.4.53-.53.53-1.4,0-1.94l-2.39-2.39-2.34,2.34s-.04.04-.06.05c-.53.54-.53,1.41,0,1.94h0c.26.26.6.4.97.4h0c.37,0,.71-.14.97-.4l.46-.46.46.46c.26.26.6.4.97.4Z"/>
        </g>
      </g>
      <g>
        <g>
          <path class="cls-7" d="m6.48,30.43c.58.58,1.52.58,2.09,0l.38-.38.38.38c.58.58,1.51.58,2.09,0,.58-.58.58-1.51,0-2.09l-.38-.38-2.09-2.09-.32.32-.03.03-1.74,1.74-.33.33s-.04.03-.06.05c-.58.58-.58,1.52,0,2.09Z"/>
          <path class="cls-1" d="m8.96,25.71l2.55,2.55c.62.62.62,1.63,0,2.25-.3.3-.7.47-1.12.47h0c-.42,0-.82-.17-1.12-.47l-.3-.3-.3.3c-.3.3-.7.47-1.12.47h0c-.42,0-.82-.17-1.12-.47h0c-.62-.62-.62-1.63,0-2.25.02-.02.04-.04.07-.06l2.48-2.49Zm1.42,5.04h0c.37,0,.71-.14.97-.4.53-.53.53-1.4,0-1.94l-2.39-2.39-2.34,2.34s-.04.04-.06.05c-.53.54-.53,1.41,0,1.94h0c.26.26.6.4.97.4h0c.37,0,.71-.14.97-.4l.46-.46.46.46c.26.26.6.4.97.4Z"/>
        </g>
        <g>
          <path class="cls-6" d="m11.43,17.73c-.58-.58-1.52-.58-2.09,0l-.38.38-.38-.38c-.58-.58-1.51-.58-2.09,0-.58.58-.58,1.51,0,2.09l.38.38,2.09,2.09.32-.32.03-.03,1.74-1.74.33-.33s.04-.03.06-.05c.58-.58.58-1.52,0-2.09Z"/>
          <path class="cls-1" d="m8.96,22.45l-2.55-2.55c-.62-.62-.62-1.63,0-2.25.3-.3.7-.47,1.12-.47h0c.42,0,.82.17,1.12.47l.3.3.3-.3c.3-.3.7-.47,1.12-.47h0c.42,0,.82.17,1.12.47h0c.62.62.62,1.63,0,2.25-.02.02-.04.04-.07.06l-2.48,2.49Zm-1.42-5.04h0c-.37,0-.71.14-.97.4-.53.53-.53,1.4,0,1.94l2.39,2.39,2.34-2.34s.04-.04.06-.05c.53-.54.53-1.41,0-1.94h0c-.26-.26-.6-.4-.97-.4h0c-.37,0-.71.14-.97.4l-.46.46-.46-.46c-.26-.26-.6-.4-.97-.4Z"/>
        </g>
        <g>
          <path class="cls-8" d="m11.43,9.21c-.58-.58-1.52-.58-2.09,0l-.38.38-.38-.38c-.58-.58-1.51-.58-2.09,0-.58.58-.58,1.51,0,2.09l.38.38,2.09,2.09.32-.32.03-.03,1.74-1.74.33-.33s.04-.03.06-.05c.58-.58.58-1.52,0-2.09Z"/>
          <path class="cls-1" d="m8.96,13.92l-2.55-2.55c-.62-.62-.62-1.63,0-2.25.3-.3.7-.47,1.12-.47h0c.42,0,.82.17,1.12.47l.3.3.3-.3c.3-.3.7-.47,1.12-.47h0c.42,0,.82.17,1.12.47h0c.62.62.62,1.63,0,2.25-.02.02-.04.04-.07.06l-2.48,2.49Zm-1.42-5.04h0c-.37,0-.71.14-.97.4-.53.53-.53,1.4,0,1.94l2.39,2.39,2.34-2.34s.04-.04.06-.05c.53-.54.53-1.41,0-1.94h0c-.26-.26-.6-.4-.97-.4h0c-.37,0-.71.14-.97.4l-.46.46-.46-.46c-.26-.26-.6-.4-.97-.4Z"/>
        </g>
      </g>
      <path class="cls-1" d="m3.31,7.06c0-.83.66-1.2,1.22-1.57-.62-.4-.92-.82-.92-1.33,0-.81.7-1.34,1.58-1.34.78,0,1.38.44,1.38,1.11s-.58,1.01-1.08,1.31c.58.37,1.27.78,1.27,1.64,0,.93-.84,1.61-1.85,1.61-.9,0-1.6-.54-1.6-1.43Zm2.69.06c0-.76-.7-1.14-1.21-1.49-.46.32-.79.72-.79,1.42,0,.66.4,1.16.98,1.16s1.02-.46,1.02-1.09Zm-.07-3.18c0-.51-.33-.86-.8-.86s-.78.34-.78.78c0,.66.43.93.88,1.24.35-.29.7-.59.7-1.17Z"/>
      <path class="cls-1" d="m27.14,32.58c0,.83-.66,1.2-1.22,1.57.62.4.92.82.92,1.33,0,.81-.7,1.34-1.58,1.34-.78,0-1.38-.44-1.38-1.11s.58-1.01,1.08-1.31c-.58-.37-1.27-.78-1.27-1.64,0-.93.84-1.61,1.85-1.61.9,0,1.6.54,1.6,1.43Zm-2.69-.06c0,.76.7,1.14,1.21,1.49.46-.32.79-.72.79-1.42,0-.66-.4-1.16-.98-1.16s-1.02.46-1.02,1.09Zm.07,3.18c0,.51.33.86.8.86s.78-.34.78-.78c0-.66-.43-.93-.88-1.24-.35.29-.7.59-.7,1.17Z"/>
    </g>
  </g>
</svg>