<?xml version="1.0" encoding="UTF-8"?>
<svg id="Laag_2" data-name="Laag 2" xmlns="http://www.w3.org/2000/svg" xmlns:xlink="http://www.w3.org/1999/xlink" viewBox="0 0 30.36 39.67">
  <defs>
    <style>
      .cls-1 {
        fill: #ff3e48;
      }

      .cls-2 {
        fill: url(#Naamloos_verloop_87-6);
      }

      .cls-3 {
        fill: url(#Naamloos_verloop_87-7);
      }

      .cls-4 {
        fill: url(#Naamloos_verloop_87-8);
      }

      .cls-5 {
        fill: url(#Naamloos_verloop_87-5);
      }

      .cls-6 {
        fill: url(#Naamloos_verloop_87-2);
      }

      .cls-7 {
        fill: url(#Naamloos_verloop_87-3);
      }

      .cls-8 {
        fill: url(#Naamloos_verloop_87-4);
      }

      .cls-9 {
        fill: url(#Naamloos_verloop_257);
        stroke: #fff;
        stroke-miterlimit: 10;
      }

      .cls-10 {
        fill: url(#Naamloos_verloop_87);
      }
    </style>
    <linearGradient id="Naamloos_verloop_257" data-name="Naamloos verloop 257" x1="15.18" y1="39.17" x2="15.18" y2=".5" gradientUnits="userSpaceOnUse">
      <stop offset="0" stop-color="#f0f0f0"/>
      <stop offset="1" stop-color="#fcfcfc"/>
    </linearGradient>
    <linearGradient id="Naamloos_verloop_87" data-name="Naamloos verloop 87" x1="15.17" y1="11.61" x2="15.17" y2="17.09" gradientUnits="userSpaceOnUse">
      <stop offset="0" stop-color="#ff7078"/>
      <stop offset="1" stop-color="#ff3e48"/>
    </linearGradient>
    <linearGradient id="Naamloos_verloop_87-2" data-name="Naamloos verloop 87" y1="22.58" y2="28.06" xlink:href="#Naamloos_verloop_87"/>
    <linearGradient id="Naamloos_verloop_87-3" data-name="Naamloos verloop 87" x1="19.16" y1="17.1" x2="19.16" y2="22.59" xlink:href="#Naamloos_verloop_87"/>
    <linearGradient id="Naamloos_verloop_87-4" data-name="Naamloos verloop 87" x1="19.16" y1="7.75" x2="19.16" y2="13.24" xlink:href="#Naamloos_verloop_87"/>
    <linearGradient id="Naamloos_verloop_87-5" data-name="Naamloos verloop 87" x1="19.16" y1="26.07" x2="19.16" y2="31.56" xlink:href="#Naamloos_verloop_87"/>
    <linearGradient id="Naamloos_verloop_87-6" data-name="Naamloos verloop 87" x1="11.2" y1="17.1" x2="11.2" y2="22.59" xlink:href="#Naamloos_verloop_87"/>
    <linearGradient id="Naamloos_verloop_87-7" data-name="Naamloos verloop 87" x1="11.2" y1="7.75" x2="11.2" y2="13.24" xlink:href="#Naamloos_verloop_87"/>
    <linearGradient id="Naamloos_verloop_87-8" data-name="Naamloos verloop 87" x1="11.2" y1="26.07" x2="11.2" y2="31.56" xlink:href="#Naamloos_verloop_87"/>
  </defs>
  <g id="Laag_1-2" data-name="Laag 1">
    <g>
      <rect class="cls-9" x=".5" y=".5" width="29.36" height="38.67" rx="2" ry="2"/>
      <g>
        <path class="cls-10" d="m14.87,16.93l-1.54-2.38c-.08-.12-.08-.27,0-.39l1.54-2.38c.14-.22.46-.22.6,0l1.54,2.38c.08.12.08.27,0,.39l-1.54,2.38c-.14.22-.46.22-.6,0Z"/>
        <path class="cls-1" d="m15.17,17.18c-.15,0-.29-.08-.38-.21l-1.54-2.38c-.1-.15-.1-.34,0-.49l1.54-2.38c.08-.13.22-.2.38-.2h0c.15,0,.29.08.38.2l1.54,2.38c.1.15.1.34,0,.49l-1.54,2.38c-.08.13-.22.2-.38.21h0Zm-.23-.3c.05.08.13.12.23.12h0c.09,0,.18-.05.23-.12l1.54-2.38c.06-.09.06-.2,0-.29l-1.54-2.38c-.05-.08-.13-.12-.23-.12h0c-.09,0-.18.04-.23.12l-1.54,2.38c-.06.09-.06.2,0,.29l1.54,2.38Z"/>
      </g>
      <g>
        <path class="cls-6" d="m14.87,27.9l-1.54-2.38c-.08-.12-.08-.27,0-.39l1.54-2.38c.14-.22.46-.22.6,0l1.54,2.38c.08.12.08.27,0,.39l-1.54,2.38c-.14.22-.46.22-.6,0Z"/>
        <path class="cls-1" d="m15.17,28.15c-.15,0-.29-.08-.38-.21l-1.54-2.38c-.1-.15-.1-.34,0-.49l1.54-2.38c.08-.13.22-.2.38-.2h0c.15,0,.29.08.38.2l1.54,2.38c.1.15.1.34,0,.49l-1.54,2.38c-.08.13-.22.2-.38.21h0Zm-.23-.3c.05.08.13.12.23.12h0c.09,0,.18-.05.23-.12l1.54-2.38c.06-.09.06-.2,0-.29l-1.54-2.38c-.05-.08-.13-.12-.23-.12h0c-.09,0-.18.04-.23.12l-1.54,2.38c-.06.09-.06.2,0,.29l1.54,2.38Z"/>
      </g>
      <g>
        <g>
          <path class="cls-7" d="m18.86,22.42l-1.54-2.38c-.08-.12-.08-.27,0-.39l1.54-2.38c.14-.22.46-.22.6,0l1.54,2.38c.08.12.08.27,0,.39l-1.54,2.38c-.14.22-.46.22-.6,0Z"/>
          <path class="cls-1" d="m19.16,22.68c-.15,0-.29-.08-.38-.21l-1.54-2.38c-.1-.15-.1-.34,0-.49l1.54-2.38c.08-.13.22-.2.38-.2h0c.15,0,.29.08.38.2l1.54,2.38c.1.15.1.34,0,.49l-1.54,2.38c-.08.13-.22.2-.38.21h0Zm-.23-.3c.05.08.13.12.23.12h0c.09,0,.18-.05.23-.12l1.54-2.38c.06-.09.06-.2,0-.29l-1.54-2.38c-.05-.08-.13-.12-.23-.12h0c-.09,0-.18.04-.23.12l-1.54,2.38c-.06.09-.06.2,0,.29l1.54,2.38Z"/>
        </g>
        <g>
          <path class="cls-8" d="m18.86,13.08l-1.54-2.38c-.08-.12-.08-.27,0-.39l1.54-2.38c.14-.22.46-.22.6,0l1.54,2.38c.08.12.08.27,0,.39l-1.54,2.38c-.14.22-.46.22-.6,0Z"/>
          <path class="cls-1" d="m19.16,13.33c-.15,0-.29-.08-.38-.21l-1.54-2.38c-.1-.15-.1-.34,0-.49l1.54-2.38c.08-.13.22-.2.38-.2h0c.15,0,.29.08.38.2l1.54,2.38c.1.15.1.34,0,.49l-1.54,2.38c-.08.13-.22.2-.38.21h0Zm-.23-.3c.05.08.13.12.23.12h0c.09,0,.18-.05.23-.12l1.54-2.38c.06-.09.06-.2,0-.29l-1.54-2.38c-.05-.08-.13-.12-.23-.12h0c-.09,0-.18.04-.23.12l-1.54,2.38c-.06.09-.06.2,0,.29l1.54,2.38Z"/>
        </g>
        <g>
          <path class="cls-5" d="m18.86,31.39l-1.54-2.38c-.08-.12-.08-.27,0-.39l1.54-2.38c.14-.22.46-.22.6,0l1.54,2.38c.08.12.08.27,0,.39l-1.54,2.38c-.14.22-.46.22-.6,0Z"/>
          <path class="cls-1" d="m19.16,31.65c-.15,0-.29-.08-.38-.21l-1.54-2.38c-.1-.15-.1-.34,0-.49l1.54-2.38c.08-.13.22-.2.38-.2h0c.15,0,.29.08.38.2l1.54,2.38c.1.15.1.34,0,.49l-1.54,2.38c-.08.13-.22.2-.38.21h0Zm-.23-.3c.05.08.13.12.23.12h0c.09,0,.18-.05.23-.12l1.54-2.38c.06-.09.06-.2,0-.29l-1.54-2.38c-.05-.08-.13-.12-.23-.12h0c-.09,0-.18.04-.23.12l-1.54,2.38c-.06.09-.06.2,0,.29l1.54,2.38Z"/>
        </g>
      </g>
      <g>
        <g>
          <path class="cls-2" d="m10.9,22.42l-1.54-2.38c-.08-.12-.08-.27,0-.39l1.54-2.38c.14-.22.46-.22.6,0l1.54,2.38c.08.12.08.27,0,.39l-1.54,2.38c-.14.22-.46.22-.6,0Z"/>
          <path class="cls-1" d="m11.2,22.68c-.15,0-.29-.08-.38-.21l-1.54-2.38c-.1-.15-.1-.34,0-.49l1.54-2.38c.08-.13.22-.2.38-.2h0c.15,0,.29.08.38.2l1.54,2.38c.1.15.1.34,0,.49l-1.54,2.38c-.08.13-.22.2-.38.21h0Zm-.23-.3c.05.08.13.12.23.12h0c.09,0,.18-.05.23-.12l1.54-2.38c.06-.09.06-.2,0-.29l-1.54-2.38c-.05-.08-.13-.12-.23-.12h0c-.09,0-.18.04-.23.12l-1.54,2.38c-.06.09-.06.2,0,.29l1.54,2.38Z"/>
        </g>
        <g>
          <path class="cls-3" d="m10.9,13.08l-1.54-2.38c-.08-.12-.08-.27,0-.39l1.54-2.38c.14-.22.46-.22.6,0l1.54,2.38c.08.12.08.27,0,.39l-1.54,2.38c-.14.22-.46.22-.6,0Z"/>
          <path class="cls-1" d="m11.2,13.33c-.15,0-.29-.08-.38-.21l-1.54-2.38c-.1-.15-.1-.34,0-.49l1.54-2.38c.08-.13.22-.2.38-.2h0c.15,0,.29.08.38.2l1.54,2.38c.1.15.1.34,0,.49l-1.54,2.38c-.08.13-.22.2-.38.21h0Zm-.23-.3c.05.08.13.12.23.12h0c.09,0,.18-.05.23-.12l1.54-2.38c.06-.09.06-.2,0-.29l-1.54-2.38c-.05-.08-.13-.12-.23-.12h0c-.09,0-.18.04-.23.12l-1.54,2.38c-.06.09-.06.2,0,.29l1.54,2.38Z"/>
        </g>
        <g>
          <path class="cls-4" d="m10.9,31.39l-1.54-2.38c-.08-.12-.08-.27,0-.39l1.54-2.38c.14-.22.46-.22.6,0l1.54,2.38c.08.12.08.27,0,.39l-1.54,2.38c-.14.22-.46.22-.6,0Z"/>
          <path class="cls-1" d="m11.2,31.65c-.15,0-.29-.08-.38-.21l-1.54-2.38c-.1-.15-.1-.34,0-.49l1.54-2.38c.08-.13.22-.2.38-.2h0c.15,0,.29.08.38.2l1.54,2.38c.1.15.1.34,0,.49l-1.54,2.38c-.08.13-.22.2-.38.21h0Zm-.23-.3c.05.08.13.12.23.12h0c.09,0,.18-.05.23-.12l1.54-2.38c.06-.09.06-.2,0-.29l-1.54-2.38c-.05-.08-.13-.12-.23-.12h0c-.09,0-.18.04-.23.12l-1.54,2.38c-.06.09-.06.2,0,.29l1.54,2.38Z"/>
        </g>
      </g>
      <path class="cls-1" d="m3.26,6.8c0-.83.66-1.2,1.22-1.57-.62-.4-.92-.82-.92-1.33,0-.81.7-1.34,1.58-1.34.78,0,1.38.44,1.38,1.11s-.58,1.01-1.08,1.31c.58.37,1.27.78,1.27,1.64,0,.93-.84,1.61-1.85,1.61-.9,0-1.6-.54-1.6-1.43Zm2.69.06c0-.76-.7-1.14-1.21-1.49-.46.32-.79.72-.79,1.42,0,.66.4,1.16.98,1.16s1.02-.46,1.02-1.09Zm-.07-3.18c0-.51-.33-.86-.8-.86s-.78.34-.78.78c0,.66.43.93.88,1.24.35-.29.7-.59.7-1.17Z"/>
      <path class="cls-1" d="m27.09,32.32c0,.83-.66,1.2-1.22,1.57.62.4.92.82.92,1.33,0,.81-.7,1.34-1.58,1.34-.78,0-1.38-.44-1.38-1.11s.58-1.01,1.08-1.31c-.58-.37-1.27-.78-1.27-1.64,0-.93.84-1.61,1.85-1.61.9,0,1.6.54,1.6,1.43Zm-2.69-.06c0,.76.7,1.14,1.21,1.49.46-.32.79-.72.79-1.42,0-.66-.4-1.16-.98-1.16s-1.02.46-1.02,1.09Zm.07,3.18c0,.51.33.86.8.86s.78-.34.78-.78c0-.66-.43-.93-.88-1.24-.35.29-.7.59-.7,1.17Z"/>
    </g>
  </g>
</svg>