<?xml version="1.0" encoding="UTF-8"?>
<svg id="Laag_2" data-name="Laag 2" xmlns="http://www.w3.org/2000/svg" xmlns:xlink="http://www.w3.org/1999/xlink" viewBox="0 0 30.36 39.67">
  <defs>
    <style>
      .cls-1 {
        fill: #ff3e48;
      }

      .cls-2 {
        fill: url(#Naamloos_verloop_257);
        stroke: #fff;
        stroke-miterlimit: 10;
      }

      .cls-3 {
        fill: url(#Naamloos_verloop_87);
      }
    </style>
    <linearGradient id="Naamloos_verloop_257" data-name="Naamloos verloop 257" x1="15.18" y1="39.17" x2="15.18" y2=".5" gradientUnits="userSpaceOnUse">
      <stop offset="0" stop-color="#f0f0f0"/>
      <stop offset="1" stop-color="#fcfcfc"/>
    </linearGradient>
    <linearGradient id="Naamloos_verloop_87" data-name="Naamloos verloop 87" x1="15.18" y1="11.61" x2="15.18" y2="28.06" gradientUnits="userSpaceOnUse">
      <stop offset="0" stop-color="#ff7078"/>
      <stop offset="1" stop-color="#ff3e48"/>
    </linearGradient>
  </defs>
  <g id="Laag_1-2" data-name="Laag 1">
    <g>
      <rect class="cls-2" x=".5" y=".5" width="29.36" height="38.67" rx="2" ry="2"/>
      <g>
        <path class="cls-3" d="m14.28,27.57l-4.62-7.15c-.23-.36-.23-.81,0-1.17l4.62-7.15c.42-.66,1.38-.66,1.81,0l4.62,7.15c.23.36.23.81,0,1.17l-4.62,7.15c-.42.66-1.38.66-1.81,0Z"/>
        <path class="cls-1" d="m15.18,28.33c-.46,0-.88-.23-1.13-.62l-4.62-7.15c-.29-.44-.29-1.02,0-1.46l4.62-7.15c.25-.39.67-.61,1.13-.61h0c.46,0,.88.23,1.13.61l4.62,7.15c.29.44.29,1.02,0,1.46l-4.62,7.15c-.25.38-.67.61-1.13.62h0Zm-.68-.91c.15.23.4.37.68.37h0c.28,0,.53-.14.68-.37l4.62-7.15c.17-.27.17-.61,0-.88l-4.62-7.15c-.15-.23-.4-.37-.68-.37h0c-.28,0-.53.13-.68.37l-4.62,7.15c-.17.27-.17.61,0,.88l4.62,7.15Z"/>
      </g>
      <path class="cls-1" d="m6.37,8.46v-.12l.34-.09c.31-.09.38-.18.15-.82l-.31-.88h-1.98l-.21.55c-.35.9-.3,1.05.05,1.15l.33.09v.12h-1.81v-.12l.21-.08c.28-.1.34-.2.66-.98l1.54-3.7c.11-.26.1-.33,0-.55l.02-.04h.8l1.69,4.44c.25.66.33.73.62.83l.21.08v.12h-2.3Zm-.52-3.86c-.11-.31-.2-.6-.23-.72h-.02c-.03.14-.15.44-.26.74l-.62,1.58h1.7l-.58-1.6Z"/>
      <path class="cls-1" d="m23.91,31.2v.12l-.34.09c-.31.09-.38.18-.15.82l.31.88h1.98l.21-.55c.35-.9.3-1.05-.05-1.15l-.33-.09v-.12h1.81v.12l-.21.08c-.28.1-.34.2-.66.98l-1.54,3.7c-.11.26-.1.33,0,.55l-.02.04h-.8l-1.69-4.44c-.25-.66-.33-.73-.62-.83l-.21-.08v-.12h2.3Zm.52,3.86c.11.31.2.6.23.72h.02c.03-.14.15-.44.26-.74l.62-1.58h-1.7l.58,1.6Z"/>
    </g>
  </g>
</svg>