<?xml version="1.0" encoding="UTF-8"?>
<svg id="Laag_2" data-name="Laag 2" xmlns="http://www.w3.org/2000/svg" xmlns:xlink="http://www.w3.org/1999/xlink" viewBox="0 0 30.36 39.67">
  <defs>
    <style>
      .cls-1 {
        fill: #1a1a1a;
      }

      .cls-2 {
        fill: url(#Naamloos_verloop_81-3);
      }

      .cls-3 {
        fill: url(#Naamloos_verloop_81-2);
      }

      .cls-4 {
        fill: url(#Naamloos_verloop_257);
        stroke: #fff;
        stroke-miterlimit: 10;
      }

      .cls-5 {
        fill: url(#Naamloos_verloop_85);
      }

      .cls-6 {
        fill: url(#Naamloos_verloop_81);
      }
    </style>
    <linearGradient id="Naamloos_verloop_257" data-name="Naamloos verloop 257" x1="15.18" y1="39.17" x2="15.18" y2=".5" gradientUnits="userSpaceOnUse">
      <stop offset="0" stop-color="#f0f0f0"/>
      <stop offset="1" stop-color="#fcfcfc"/>
    </linearGradient>
    <linearGradient id="Naamloos_verloop_81" data-name="Naamloos verloop 81" x1="12.18" y1="23.14" x2="12.18" y2="17.72" gradientUnits="userSpaceOnUse">
      <stop offset="0" stop-color="#333"/>
      <stop offset="1" stop-color="#1a1a1a"/>
    </linearGradient>
    <linearGradient id="Naamloos_verloop_81-2" data-name="Naamloos verloop 81" x1="18.18" x2="18.18" xlink:href="#Naamloos_verloop_81"/>
    <linearGradient id="Naamloos_verloop_81-3" data-name="Naamloos verloop 81" x1="15.19" y1="17.94" x2="15.19" y2="12.53" xlink:href="#Naamloos_verloop_81"/>
    <linearGradient id="Naamloos_verloop_85" data-name="Naamloos verloop 85" x1="15.19" y1="27.14" x2="15.19" y2="22.47" gradientUnits="userSpaceOnUse">
      <stop offset="0" stop-color="#333"/>
      <stop offset="1" stop-color="#1a1a1a"/>
    </linearGradient>
  </defs>
  <g id="Laag_1-2" data-name="Laag 1">
    <g>
      <rect class="cls-4" x=".5" y=".5" width="29.36" height="38.67" rx="2" ry="2"/>
      <g>
        <path class="cls-6" d="m14.89,20.43c0,1.49-1.21,2.7-2.7,2.7s-2.71-1.21-2.71-2.7,1.22-2.71,2.71-2.71c.47,0,.9.12,1.29.33.05.02.09.06.14.08.76.48,1.27,1.34,1.27,2.3Z"/>
        <path class="cls-3" d="m20.89,20.43c0,1.49-1.21,2.7-2.7,2.7s-2.71-1.21-2.71-2.7c0-.96.52-1.82,1.28-2.3.05-.02.09-.06.14-.08.39-.21.83-.33,1.29-.33,1.49,0,2.7,1.22,2.7,2.71Z"/>
        <path class="cls-2" d="m17.9,15.24c0,.93-.48,1.75-1.2,2.24-.07.05-.15.09-.22.13-.39.21-.83.33-1.29.33s-.88-.12-1.27-.32c-.08-.05-.16-.09-.25-.14-.72-.49-1.19-1.32-1.19-2.24,0-1.5,1.21-2.71,2.7-2.71s2.71,1.21,2.71,2.71Z"/>
        <g>
          <path class="cls-5" d="m17.32,27.14h-4.26c.18-.13.35-.28.52-.45,1.19-1.23,1.44-3.23,1.49-4.23h.22c.06,1,.32,3,1.5,4.23.16.16.34.32.53.45Z"/>
          <path class="cls-1" d="m21.48,20.43c0-1.82-1.48-3.3-3.29-3.3-.11,0-.21,0-.32.01.38-.54.61-1.2.61-1.9,0-1.82-1.48-3.3-3.3-3.3s-3.29,1.48-3.29,3.3c0,.7.22,1.36.61,1.9-.11-.01-.21-.01-.32-.01-1.82,0-3.3,1.48-3.3,3.3s1.48,3.29,3.3,3.29c.88,0,1.68-.35,2.27-.92-.14,1.52-.75,4.35-3.43,4.35v.58h8.32v-.58c-2.69,0-3.3-2.84-3.44-4.36.59.58,1.4.93,2.29.93,1.81,0,3.29-1.48,3.29-3.29Zm-9-5.19c0-1.5,1.21-2.71,2.7-2.71s2.71,1.21,2.71,2.71c0,.93-.48,1.75-1.2,2.24-.07.05-.15.09-.22.13-.39.21-.83.33-1.29.33s-.88-.12-1.27-.32c-.08-.05-.16-.09-.25-.14-.72-.49-1.19-1.32-1.19-2.24Zm.58,11.9c.18-.13.35-.28.52-.45,1.19-1.23,1.44-3.23,1.49-4.23h.22c.06,1,.32,3,1.5,4.23.16.16.34.32.53.45h-4.26Zm-.87-4.01c-1.49,0-2.71-1.21-2.71-2.7s1.22-2.71,2.71-2.71c.47,0,.9.12,1.29.33.05.02.09.06.14.08.76.48,1.27,1.34,1.27,2.3,0,1.49-1.21,2.7-2.7,2.7Zm3.29-2.7c0-.96.52-1.82,1.28-2.3.05-.02.09-.06.14-.08.39-.21.83-.33,1.29-.33,1.49,0,2.7,1.22,2.7,2.71s-1.21,2.7-2.7,2.7-2.71-1.21-2.71-2.7Z"/>
        </g>
      </g>
      <path d="m3.03,9.74c0-.21.16-.38.35-.42h.05c.06.21.26.42.52.42.59,0,.78-.83.78-1.7v-4.04c0-.68-.06-.74-.38-.82l-.33-.09v-.12h2.33v.12l-.33.09c-.33.09-.38.14-.38.82v3.42c0,1.6-.92,2.78-2.03,2.78-.3,0-.59-.18-.59-.46Z"/>
      <path d="m27.34,29.93c0,.21-.16.38-.35.42h-.05c-.06-.21-.26-.42-.52-.42-.59,0-.78.83-.78,1.7v4.04c0,.68.06.74.38.82l.33.09v.12h-2.33v-.12l.33-.09c.33-.09.38-.14.38-.82v-3.42c0-1.6.92-2.78,2.03-2.78.3,0,.59.18.59.46Z"/>
    </g>
  </g>
</svg>