<?xml version="1.0" encoding="UTF-8"?>
<svg id="Laag_2" data-name="Laag 2" xmlns="http://www.w3.org/2000/svg" xmlns:xlink="http://www.w3.org/1999/xlink" viewBox="0 0 30.36 39.67">
  <defs>
    <style>
      .cls-1 {
        fill: #ff3e48;
      }

      .cls-2 {
        fill: url(#Naamloos_verloop_257);
        stroke: #fff;
        stroke-miterlimit: 10;
      }

      .cls-3 {
        fill: url(#Naamloos_verloop_87);
      }
    </style>
    <linearGradient id="Naamloos_verloop_257" data-name="Naamloos verloop 257" x1="15.18" y1="39.17" x2="15.18" y2=".5" gradientUnits="userSpaceOnUse">
      <stop offset="0" stop-color="#f0f0f0"/>
      <stop offset="1" stop-color="#fcfcfc"/>
    </linearGradient>
    <linearGradient id="Naamloos_verloop_87" data-name="Naamloos verloop 87" x1="15.18" y1="11.61" x2="15.18" y2="28.06" gradientUnits="userSpaceOnUse">
      <stop offset="0" stop-color="#ff7078"/>
      <stop offset="1" stop-color="#ff3e48"/>
    </linearGradient>
  </defs>
  <g id="Laag_1-2" data-name="Laag 1">
    <g>
      <rect class="cls-2" x=".5" y=".5" width="29.36" height="38.67" rx="2" ry="2"/>
      <g>
        <path class="cls-3" d="m14.28,27.57l-4.62-7.15c-.23-.36-.23-.81,0-1.17l4.62-7.15c.42-.66,1.38-.66,1.81,0l4.62,7.15c.23.36.23.81,0,1.17l-4.62,7.15c-.42.66-1.38.66-1.81,0Z"/>
        <path class="cls-1" d="m15.18,28.33c-.46,0-.88-.23-1.13-.62l-4.62-7.15c-.29-.44-.29-1.02,0-1.46l4.62-7.15c.25-.39.67-.61,1.13-.61h0c.46,0,.88.23,1.13.61l4.62,7.15c.29.44.29,1.02,0,1.46l-4.62,7.15c-.25.38-.67.61-1.13.62h0Zm-.68-.91c.15.23.4.37.68.37h0c.28,0,.53-.14.68-.37l4.62-7.15c.17-.27.17-.61,0-.88l-4.62-7.15c-.15-.23-.4-.37-.68-.37h0c-.28,0-.53.13-.68.37l-4.62,7.15c-.17.27-.17.61,0,.88l4.62,7.15Z"/>
      </g>
      <path class="cls-1" d="m3.03,9.72c0-.21.16-.38.35-.42h.05c.06.21.26.42.52.42.59,0,.78-.83.78-1.7V3.98c0-.68-.06-.74-.38-.82l-.33-.09v-.12h2.33v.12l-.33.09c-.33.09-.38.14-.38.82v3.42c0,1.6-.92,2.78-2.03,2.78-.3,0-.59-.18-.59-.46Z"/>
      <path class="cls-1" d="m27.34,29.9c0,.21-.16.38-.35.42h-.05c-.06-.21-.26-.42-.52-.42-.59,0-.78.83-.78,1.7v4.04c0,.68.06.74.38.82l.33.09v.12h-2.33v-.12l.33-.09c.33-.09.38-.14.38-.82v-3.42c0-1.6.92-2.78,2.03-2.78.3,0,.59.18.59.46Z"/>
    </g>
  </g>
</svg>