<?xml version="1.0" encoding="UTF-8"?>
<svg id="Laag_2" data-name="Laag 2" xmlns="http://www.w3.org/2000/svg" xmlns:xlink="http://www.w3.org/1999/xlink" viewBox="0 0 30.36 39.67">
  <defs>
    <style>
      .cls-1 {
        fill: #1a1a1a;
      }

      .cls-2 {
        fill: url(#Naamloos_verloop_257);
        stroke: #fff;
        stroke-miterlimit: 10;
      }

      .cls-3 {
        fill: url(#Naamloos_verloop_85);
      }

      .cls-4 {
        fill: url(#Naamloos_verloop_81);
      }
    </style>
    <linearGradient id="Naamloos_verloop_257" data-name="Naamloos verloop 257" x1="15.18" y1="39.17" x2="15.18" y2=".5" gradientUnits="userSpaceOnUse">
      <stop offset="0" stop-color="#f0f0f0"/>
      <stop offset="1" stop-color="#fcfcfc"/>
    </linearGradient>
    <linearGradient id="Naamloos_verloop_81" data-name="Naamloos verloop 81" x1="15.19" y1="12.78" x2="15.19" y2="23.05" gradientUnits="userSpaceOnUse">
      <stop offset="0" stop-color="#333"/>
      <stop offset="1" stop-color="#1a1a1a"/>
    </linearGradient>
    <linearGradient id="Naamloos_verloop_85" data-name="Naamloos verloop 85" x1="15.19" y1="27.14" x2="15.19" y2="22.46" gradientUnits="userSpaceOnUse">
      <stop offset="0" stop-color="#333"/>
      <stop offset="1" stop-color="#1a1a1a"/>
    </linearGradient>
  </defs>
  <g id="Laag_1-2" data-name="Laag 1">
    <g>
      <rect class="cls-2" x=".5" y=".5" width="29.36" height="38.67" rx="2" ry="2"/>
      <g>
        <path class="cls-4" d="m20.41,22.18c-.55.56-1.29.87-2.09.87s-1.53-.31-2.08-.87l-1.05-1.05-1.03,1.05c-.56.56-1.3.87-2.09.87s-1.53-.31-2.09-.87c-1.15-1.15-1.15-3.03,0-4.18.02-.02.06-.06.12-.11l5.1-5.11,5.22,5.22c1.15,1.15,1.15,3.03,0,4.18Z"/>
        <g>
          <path class="cls-3" d="m17.33,27.14h-4.28c.19-.13.36-.28.53-.45,1.19-1.23,1.45-3.23,1.49-4.23h.22c.06,1,.32,3,1.5,4.23.16.16.34.32.53.45Z"/>
          <path class="cls-1" d="m20.82,22.59c1.39-1.38,1.39-3.62,0-5.01l-5.63-5.64-5.48,5.5c-.06.04-.11.08-.15.14-.69.69-1.05,1.6-1.05,2.5s.35,1.82,1.05,2.5c.67.67,1.55,1.05,2.5,1.05s1.75-.34,2.41-.95c-.12,1.48-.69,4.47-3.44,4.47v.58h8.32v-.58c-2.76,0-3.34-3.01-3.46-4.48.66.61,1.52.96,2.42.96.95,0,1.85-.38,2.5-1.05Zm-7.77,4.55c.19-.13.36-.28.53-.45,1.19-1.23,1.45-3.23,1.49-4.23h.22c.06,1,.32,3,1.5,4.23.16.16.34.32.53.45h-4.28Zm2.14-6.01l-1.03,1.05c-.56.56-1.3.87-2.09.87s-1.53-.31-2.09-.87c-1.15-1.15-1.15-3.03,0-4.18.02-.02.06-.06.12-.11l5.1-5.11,5.22,5.22c1.15,1.15,1.15,3.03,0,4.18-.55.56-1.29.87-2.09.87s-1.53-.31-2.08-.87l-1.05-1.05Z"/>
        </g>
      </g>
      <path d="m3.03,9.74c0-.21.16-.38.35-.42h.05c.06.21.26.42.52.42.59,0,.78-.83.78-1.7v-4.04c0-.68-.06-.74-.38-.82l-.33-.09v-.12h2.33v.12l-.33.09c-.33.09-.38.14-.38.82v3.42c0,1.6-.92,2.78-2.03,2.78-.3,0-.59-.18-.59-.46Z"/>
      <path d="m27.34,29.93c0,.21-.16.38-.35.42h-.05c-.06-.21-.26-.42-.52-.42-.59,0-.78.83-.78,1.7v4.04c0,.68.06.74.38.82l.33.09v.12h-2.33v-.12l.33-.09c.33-.09.38-.14.38-.82v-3.42c0-1.6.92-2.78,2.03-2.78.3,0,.59.18.59.46Z"/>
    </g>
  </g>
</svg>