<?xml version="1.0" encoding="UTF-8"?>
<svg id="Laag_2" data-name="Laag 2" xmlns="http://www.w3.org/2000/svg" xmlns:xlink="http://www.w3.org/1999/xlink" viewBox="0 0 30.36 39.67">
  <defs>
    <style>
      .cls-1 {
        fill: #ff3e48;
      }

      .cls-2 {
        fill: url(#Naamloos_verloop_257);
        stroke: #fff;
        stroke-miterlimit: 10;
      }

      .cls-3 {
        fill: url(#Naamloos_verloop_87);
      }
    </style>
    <linearGradient id="Naamloos_verloop_257" data-name="Naamloos verloop 257" x1="15.18" y1="39.17" x2="15.18" y2=".5" gradientUnits="userSpaceOnUse">
      <stop offset="0" stop-color="#f0f0f0"/>
      <stop offset="1" stop-color="#fcfcfc"/>
    </linearGradient>
    <linearGradient id="Naamloos_verloop_87" data-name="Naamloos verloop 87" x1="15.18" y1="11.61" x2="15.18" y2="28.06" gradientUnits="userSpaceOnUse">
      <stop offset="0" stop-color="#ff7078"/>
      <stop offset="1" stop-color="#ff3e48"/>
    </linearGradient>
  </defs>
  <g id="Laag_1-2" data-name="Laag 1">
    <g>
      <rect class="cls-2" x=".5" y=".5" width="29.36" height="38.67" rx="2" ry="2"/>
      <g>
        <path class="cls-3" d="m14.28,27.57l-4.62-7.15c-.23-.36-.23-.81,0-1.17l4.62-7.15c.42-.66,1.38-.66,1.81,0l4.62,7.15c.23.36.23.81,0,1.17l-4.62,7.15c-.42.66-1.38.66-1.81,0Z"/>
        <path class="cls-1" d="m15.18,28.33c-.46,0-.88-.23-1.13-.62l-4.62-7.15c-.29-.44-.29-1.02,0-1.46l4.62-7.15c.25-.39.67-.61,1.13-.61h0c.46,0,.88.23,1.13.61l4.62,7.15c.29.44.29,1.02,0,1.46l-4.62,7.15c-.25.38-.67.61-1.13.62h0Zm-.68-.91c.15.23.4.37.68.37h0c.28,0,.53-.14.68-.37l4.62-7.15c.17-.27.17-.61,0-.88l-4.62-7.15c-.15-.23-.4-.37-.68-.37h0c-.28,0-.53.13-.68.37l-4.62,7.15c-.17.27-.17.61,0,.88l4.62,7.15Z"/>
      </g>
      <path class="cls-1" d="m6.85,9.45l-1.53-1.02c-1.42-.15-2.37-1.09-2.37-2.79s1.38-2.86,2.8-2.86c1.52,0,2.81.88,2.81,2.86,0,1.5-1.08,2.62-2.45,2.79l1.38.63c1.04.47,1.58.58,2.09.38l.06.15c-.98.52-1.85.47-2.77-.15Zm.69-3.81c0-1.84-.91-2.54-1.79-2.54-.83,0-1.78.66-1.78,2.54s.88,2.49,1.79,2.49,1.78-.66,1.78-2.49Z"/>
      <path class="cls-1" d="m23.43,30.01l1.53,1.02c1.42.15,2.37,1.09,2.37,2.79s-1.38,2.86-2.8,2.86c-1.52,0-2.81-.88-2.81-2.86,0-1.5,1.08-2.62,2.45-2.79l-1.38-.63c-1.04-.47-1.58-.58-2.09-.38l-.06-.15c.98-.52,1.85-.47,2.77.15Zm-.69,3.81c0,1.84.91,2.54,1.79,2.54.83,0,1.78-.66,1.78-2.54s-.88-2.49-1.79-2.49-1.78.66-1.78,2.49Z"/>
    </g>
  </g>
</svg>