<?xml version="1.0" encoding="UTF-8"?>
<svg id="Laag_2" data-name="Laag 2" xmlns="http://www.w3.org/2000/svg" xmlns:xlink="http://www.w3.org/1999/xlink" viewBox="0 0 30.36 39.67">
  <defs>
    <style>
      .cls-1 {
        fill: #1a1a1a;
      }

      .cls-2 {
        fill: url(#Naamloos_verloop_257);
        stroke: #fff;
        stroke-miterlimit: 10;
      }

      .cls-3 {
        fill: url(#Naamloos_verloop_85);
      }

      .cls-4 {
        fill: url(#Naamloos_verloop_81);
      }
    </style>
    <linearGradient id="Naamloos_verloop_257" data-name="Naamloos verloop 257" x1="15.18" y1="39.17" x2="15.18" y2=".5" gradientUnits="userSpaceOnUse">
      <stop offset="0" stop-color="#f0f0f0"/>
      <stop offset="1" stop-color="#fcfcfc"/>
    </linearGradient>
    <linearGradient id="Naamloos_verloop_81" data-name="Naamloos verloop 81" x1="15.19" y1="12.78" x2="15.19" y2="23.05" gradientUnits="userSpaceOnUse">
      <stop offset="0" stop-color="#333"/>
      <stop offset="1" stop-color="#1a1a1a"/>
    </linearGradient>
    <linearGradient id="Naamloos_verloop_85" data-name="Naamloos verloop 85" x1="15.19" y1="27.14" x2="15.19" y2="22.46" gradientUnits="userSpaceOnUse">
      <stop offset="0" stop-color="#333"/>
      <stop offset="1" stop-color="#1a1a1a"/>
    </linearGradient>
  </defs>
  <g id="Laag_1-2" data-name="Laag 1">
    <g>
      <rect class="cls-2" x=".5" y=".5" width="29.36" height="38.67" rx="2" ry="2"/>
      <g>
        <path class="cls-4" d="m20.41,22.18c-.55.56-1.29.87-2.09.87s-1.53-.31-2.08-.87l-1.05-1.05-1.03,1.05c-.56.56-1.3.87-2.09.87s-1.53-.31-2.09-.87c-1.15-1.15-1.15-3.03,0-4.18.02-.02.06-.06.12-.11l5.1-5.11,5.22,5.22c1.15,1.15,1.15,3.03,0,4.18Z"/>
        <g>
          <path class="cls-3" d="m17.33,27.14h-4.28c.19-.13.36-.28.53-.45,1.19-1.23,1.45-3.23,1.49-4.23h.22c.06,1,.32,3,1.5,4.23.16.16.34.32.53.45Z"/>
          <path class="cls-1" d="m20.82,22.59c1.39-1.38,1.39-3.62,0-5.01l-5.63-5.64-5.48,5.5c-.06.04-.11.08-.15.14-.69.69-1.05,1.6-1.05,2.5s.35,1.82,1.05,2.5c.67.67,1.55,1.05,2.5,1.05s1.75-.34,2.41-.95c-.12,1.48-.69,4.47-3.44,4.47v.58h8.32v-.58c-2.76,0-3.34-3.01-3.46-4.48.66.61,1.52.96,2.42.96.95,0,1.85-.38,2.5-1.05Zm-7.77,4.55c.19-.13.36-.28.53-.45,1.19-1.23,1.45-3.23,1.49-4.23h.22c.06,1,.32,3,1.5,4.23.16.16.34.32.53.45h-4.28Zm2.14-6.01l-1.03,1.05c-.56.56-1.3.87-2.09.87s-1.53-.31-2.09-.87c-1.15-1.15-1.15-3.03,0-4.18.02-.02.06-.06.12-.11l5.1-5.11,5.22,5.22c1.15,1.15,1.15,3.03,0,4.18-.55.56-1.29.87-2.09.87s-1.53-.31-2.08-.87l-1.05-1.05Z"/>
        </g>
      </g>
      <path d="m6.9,9.55l-1.53-1.02c-1.42-.15-2.37-1.09-2.37-2.79s1.38-2.86,2.8-2.86c1.52,0,2.81.88,2.81,2.86,0,1.5-1.08,2.62-2.45,2.79l1.38.63c1.04.47,1.58.58,2.09.38l.06.15c-.98.52-1.85.47-2.77-.15Zm.69-3.81c0-1.84-.91-2.54-1.79-2.54-.83,0-1.78.66-1.78,2.54s.88,2.49,1.79,2.49,1.78-.66,1.78-2.49Z"/>
      <path d="m23.47,30.12l1.53,1.02c1.42.15,2.37,1.09,2.37,2.79s-1.38,2.86-2.8,2.86c-1.52,0-2.81-.88-2.81-2.86,0-1.5,1.08-2.62,2.45-2.79l-1.38-.63c-1.04-.47-1.58-.58-2.09-.38l-.06-.15c.98-.52,1.85-.47,2.77.15Zm-.69,3.81c0,1.84.91,2.54,1.79,2.54.83,0,1.78-.66,1.78-2.54s-.88-2.49-1.79-2.49-1.78.66-1.78,2.49Z"/>
    </g>
  </g>
</svg>